NotoSerifTamil-Regular.ufo
<glyph name="exclam" format="2">
  <advance width="333"/>
  <unicode hex="0021"/>
  <outline>
    <contour>
      <point x="143" y="201" type="line"/>
      <point x="189" y="201" type="line"/>
      <point x="224" y="714" type="line"/>
      <point x="108" y="714" type="line"/>
    </contour>
    <contour>
      <point x="166" y="-7" type="curve" smooth="yes"/>
      <point x="200" y="-7"/>
      <point x="229" y="10"/>
      <point x="229" y="61" type="curve" smooth="yes"/>
      <point x="229" y="113"/>
      <point x="200" y="129"/>
      <point x="166" y="129" type="curve" smooth="yes"/>
      <point x="131" y="129"/>
      <point x="103" y="113"/>
      <point x="103" y="61" type="curve" smooth="yes"/>
      <point x="103" y="10"/>
      <point x="131" y="-7"/>
    </contour>
  </outline>
</glyph>
<glyph name="quotedbl" format="2">
  <advance width="408"/>
  <unicode hex="0022"/>
  <outline>
    <contour>
      <point x="275" y="479" type="line"/>
      <point x="321" y="479" type="line"/>
      <point x="351" y="714" type="line"/>
      <point x="245" y="714" type="line"/>
    </contour>
    <contour>
      <point x="87" y="479" type="line"/>
      <point x="133" y="479" type="line"/>
      <point x="163" y="714" type="line"/>
      <point x="57" y="714" type="line"/>
    </contour>
  </outline>
</glyph>
<glyph name="numbersign" format="2">
  <advance width="559"/>
  <unicode hex="0023"/>
  <outline>
    <contour>
      <point x="79" y="0" type="line"/>
      <point x="139" y="0" type="line"/>
      <point x="177" y="203" type="line"/>
      <point x="316" y="203" type="line"/>
      <point x="278" y="0" type="line"/>
      <point x="338" y="0" type="line"/>
      <point x="376" y="203" type="line"/>
      <point x="502" y="203" type="line"/>
      <point x="502" y="262" type="line"/>
      <point x="388" y="262" type="line"/>
      <point x="425" y="458" type="line"/>
      <point x="534" y="458" type="line"/>
      <point x="534" y="517" type="line"/>
      <point x="436" y="517" type="line"/>
      <point x="473" y="714" type="line"/>
      <point x="413" y="714" type="line"/>
      <point x="376" y="517" type="line"/>
      <point x="237" y="517" type="line"/>
      <point x="274" y="714" type="line"/>
      <point x="213" y="714" type="line"/>
      <point x="177" y="517" type="line"/>
      <point x="57" y="517" type="line"/>
      <point x="57" y="458" type="line"/>
      <point x="166" y="458" type="line"/>
      <point x="128" y="262" type="line"/>
      <point x="25" y="262" type="line"/>
      <point x="25" y="203" type="line"/>
      <point x="117" y="203" type="line"/>
    </contour>
    <contour>
      <point x="189" y="262" type="line"/>
      <point x="226" y="458" type="line"/>
      <point x="365" y="458" type="line"/>
      <point x="328" y="262" type="line"/>
    </contour>
  </outline>
</glyph>
<glyph name="percent" format="2">
  <advance width="896"/>
  <unicode hex="0025"/>
  <outline>
    <contour>
      <point x="235" y="0" type="line"/>
      <point x="301" y="0" type="line"/>
      <point x="657" y="714" type="line"/>
      <point x="592" y="714" type="line"/>
    </contour>
    <contour>
      <point x="209" y="280" type="curve" smooth="yes"/>
      <point x="319" y="280"/>
      <point x="373" y="369"/>
      <point x="373" y="503" type="curve"/>
      <point x="373" y="637"/>
      <point x="319" y="724"/>
      <point x="210" y="724" type="curve" smooth="yes"/>
      <point x="94" y="724"/>
      <point x="45" y="637"/>
      <point x="45" y="503" type="curve" smooth="yes"/>
      <point x="45" y="369"/>
      <point x="94" y="280"/>
    </contour>
    <contour>
      <point x="209" y="321" type="curve" smooth="yes"/>
      <point x="155" y="321"/>
      <point x="135" y="388"/>
      <point x="135" y="503" type="curve"/>
      <point x="135" y="616"/>
      <point x="155" y="682"/>
      <point x="210" y="682" type="curve" smooth="yes"/>
      <point x="264" y="682"/>
      <point x="282" y="616"/>
      <point x="282" y="503" type="curve" smooth="yes"/>
      <point x="282" y="388"/>
      <point x="264" y="321"/>
    </contour>
    <contour>
      <point x="687" y="-10" type="curve" smooth="yes"/>
      <point x="797" y="-10"/>
      <point x="851" y="79"/>
      <point x="851" y="213" type="curve" smooth="yes"/>
      <point x="851" y="347"/>
      <point x="797" y="434"/>
      <point x="688" y="434" type="curve" smooth="yes"/>
      <point x="572" y="434"/>
      <point x="523" y="347"/>
      <point x="523" y="213" type="curve" smooth="yes"/>
      <point x="523" y="79"/>
      <point x="572" y="-10"/>
    </contour>
    <contour>
      <point x="687" y="31" type="curve" smooth="yes"/>
      <point x="633" y="31"/>
      <point x="613" y="98"/>
      <point x="613" y="213" type="curve" smooth="yes"/>
      <point x="613" y="326"/>
      <point x="633" y="392"/>
      <point x="688" y="392" type="curve" smooth="yes"/>
      <point x="742" y="392"/>
      <point x="760" y="326"/>
      <point x="760" y="213" type="curve" smooth="yes"/>
      <point x="760" y="98"/>
      <point x="742" y="31"/>
    </contour>
  </outline>
</glyph>
<glyph name="quotesingle" format="2">
  <advance width="220"/>
  <unicode hex="0027"/>
  <outline>
    <contour>
      <point x="87" y="479" type="line"/>
      <point x="133" y="479" type="line"/>
      <point x="163" y="714" type="line"/>
      <point x="57" y="714" type="line"/>
    </contour>
  </outline>
</glyph>
<glyph name="parenleft" format="2">
  <advance width="346"/>
  <unicode hex="0028"/>
  <outline>
    <contour>
      <point x="314" y="-128" type="curve"/>
      <point x="314" y="-82" type="line"/>
      <point x="177" y="1"/>
      <point x="161" y="158"/>
      <point x="161" y="317" type="curve" smooth="yes"/>
      <point x="161" y="476"/>
      <point x="177" y="632"/>
      <point x="314" y="715" type="curve"/>
      <point x="314" y="760" type="line"/>
      <point x="130" y="687"/>
      <point x="57" y="557"/>
      <point x="57" y="317" type="curve" smooth="yes"/>
      <point x="57" y="76"/>
      <point x="130" y="-55"/>
    </contour>
  </outline>
</glyph>
<glyph name="parenright" format="2">
  <advance width="346"/>
  <unicode hex="0029"/>
  <outline>
    <contour>
      <point x="32" y="-128" type="line"/>
      <point x="216" y="-55"/>
      <point x="289" y="76"/>
      <point x="289" y="317" type="curve" smooth="yes"/>
      <point x="289" y="557"/>
      <point x="216" y="687"/>
      <point x="32" y="760" type="curve"/>
      <point x="32" y="715" type="line"/>
      <point x="169" y="632"/>
      <point x="185" y="476"/>
      <point x="185" y="317" type="curve" smooth="yes"/>
      <point x="185" y="158"/>
      <point x="169" y="1"/>
      <point x="32" y="-82" type="curve"/>
    </contour>
  </outline>
</glyph>
<glyph name="asterisk" format="2">
  <advance width="500"/>
  <unicode hex="002A"/>
  <outline>
    <contour>
      <point x="204" y="378" type="line"/>
      <point x="291" y="378" type="line"/>
      <point x="263" y="536" type="line"/>
      <point x="418" y="443" type="line"/>
      <point x="453" y="520" type="line"/>
      <point x="284" y="569" type="line"/>
      <point x="453" y="618" type="line"/>
      <point x="418" y="696" type="line"/>
      <point x="263" y="602" type="line"/>
      <point x="291" y="760" type="line"/>
      <point x="204" y="760" type="line"/>
      <point x="230" y="601" type="line"/>
      <point x="76" y="698" type="line"/>
      <point x="41" y="619" type="line"/>
      <point x="209" y="569" type="line"/>
      <point x="41" y="519" type="line"/>
      <point x="76" y="441" type="line"/>
      <point x="229" y="536" type="line"/>
    </contour>
  </outline>
</glyph>
<glyph name="comma" format="2">
  <advance width="250"/>
  <unicode hex="002C"/>
  <outline>
    <contour>
      <point x="30" y="-154" type="line"/>
      <point x="149" y="-119"/>
      <point x="194" y="-43"/>
      <point x="194" y="42" type="curve" smooth="yes"/>
      <point x="194" y="98"/>
      <point x="158" y="129"/>
      <point x="117" y="129" type="curve" smooth="yes"/>
      <point x="80" y="129"/>
      <point x="52" y="108"/>
      <point x="52" y="70" type="curve" smooth="yes"/>
      <point x="52" y="9"/>
      <point x="125" y="18"/>
      <point x="125" y="-22" type="curve" smooth="yes"/>
      <point x="125" y="-61"/>
      <point x="95" y="-91"/>
      <point x="30" y="-112" type="curve"/>
    </contour>
  </outline>
</glyph>
<glyph name="three" format="2">
  <advance width="559"/>
  <unicode hex="0033"/>
  <outline>
    <contour>
      <point x="247" y="-10" type="curve" smooth="yes"/>
      <point x="362" y="-10"/>
      <point x="501" y="43"/>
      <point x="501" y="204" type="curve" smooth="yes"/>
      <point x="501" y="336"/>
      <point x="390" y="373"/>
      <point x="316" y="381" type="curve"/>
      <point x="408" y="403"/>
      <point x="476" y="475"/>
      <point x="476" y="565" type="curve" smooth="yes"/>
      <point x="476" y="666"/>
      <point x="392" y="724"/>
      <point x="266" y="724" type="curve" smooth="yes"/>
      <point x="137" y="724"/>
      <point x="70" y="667"/>
      <point x="70" y="590" type="curve" smooth="yes"/>
      <point x="70" y="539"/>
      <point x="108" y="525"/>
      <point x="156" y="525" type="curve"/>
      <point x="156" y="604"/>
      <point x="175" y="674"/>
      <point x="266" y="674" type="curve" smooth="yes"/>
      <point x="343" y="674"/>
      <point x="373" y="628"/>
      <point x="373" y="550" type="curve" smooth="yes"/>
      <point x="373" y="455"/>
      <point x="304" y="395"/>
      <point x="216" y="395" type="curve"/>
      <point x="184" y="395" type="line"/>
      <point x="184" y="344" type="line"/>
      <point x="216" y="344" type="line" smooth="yes"/>
      <point x="328" y="344"/>
      <point x="397" y="289"/>
      <point x="397" y="205" type="curve" smooth="yes"/>
      <point x="397" y="85"/>
      <point x="327" y="44"/>
      <point x="248" y="44" type="curve" smooth="yes"/>
      <point x="167" y="44"/>
      <point x="121" y="95"/>
      <point x="121" y="165" type="curve"/>
      <point x="83" y="165"/>
      <point x="58" y="141"/>
      <point x="58" y="101" type="curve" smooth="yes"/>
      <point x="58" y="42"/>
      <point x="115" y="-10"/>
    </contour>
  </outline>
</glyph>
<glyph name="five" format="2">
  <advance width="559"/>
  <unicode hex="0035"/>
  <outline>
    <contour>
      <point x="244" y="-10" type="curve" smooth="yes"/>
      <point x="397" y="-10"/>
      <point x="486" y="82"/>
      <point x="486" y="218" type="curve" smooth="yes"/>
      <point x="486" y="359"/>
      <point x="387" y="429"/>
      <point x="258" y="429" type="curve" smooth="yes"/>
      <point x="199" y="429"/>
      <point x="161" y="420"/>
      <point x="141" y="413" type="curve"/>
      <point x="160" y="633" type="line"/>
      <point x="354" y="633" type="line" smooth="yes"/>
      <point x="396" y="633"/>
      <point x="404" y="620"/>
      <point x="408" y="592" type="curve" smooth="yes"/>
      <point x="412" y="562" type="line"/>
      <point x="454" y="562" type="line"/>
      <point x="449" y="713" type="line"/>
      <point x="115" y="713" type="line"/>
      <point x="83" y="359" type="line"/>
      <point x="107" y="352" type="line"/>
      <point x="132" y="363"/>
      <point x="161" y="374"/>
      <point x="230" y="374" type="curve" smooth="yes"/>
      <point x="322" y="374"/>
      <point x="382" y="323"/>
      <point x="382" y="218" type="curve" smooth="yes"/>
      <point x="382" y="91"/>
      <point x="321" y="49"/>
      <point x="239" y="49" type="curve" smooth="yes"/>
      <point x="158" y="49"/>
      <point x="118" y="93"/>
      <point x="118" y="150" type="curve"/>
      <point x="75" y="150"/>
      <point x="55" y="128"/>
      <point x="55" y="91" type="curve" smooth="yes"/>
      <point x="55" y="46"/>
      <point x="96" y="-10"/>
    </contour>
  </outline>
</glyph>
<glyph name="six" format="2">
  <advance width="559"/>
  <unicode hex="0036"/>
  <outline>
    <contour>
      <point x="293" y="-10" type="curve" smooth="yes"/>
      <point x="429" y="-10"/>
      <point x="508" y="88"/>
      <point x="508" y="229" type="curve" smooth="yes"/>
      <point x="508" y="357"/>
      <point x="429" y="434"/>
      <point x="307" y="434" type="curve" smooth="yes"/>
      <point x="242" y="434"/>
      <point x="197" y="409"/>
      <point x="164" y="382" type="curve"/>
      <point x="171" y="575"/>
      <point x="222" y="676"/>
      <point x="322" y="676" type="curve" smooth="yes"/>
      <point x="386" y="676"/>
      <point x="410" y="624"/>
      <point x="410" y="559" type="curve"/>
      <point x="460" y="559"/>
      <point x="487" y="581"/>
      <point x="487" y="619" type="curve" smooth="yes"/>
      <point x="487" y="673"/>
      <point x="433" y="724"/>
      <point x="322" y="724" type="curve" smooth="yes"/>
      <point x="145" y="724"/>
      <point x="61" y="550"/>
      <point x="61" y="360" type="curve" smooth="yes"/>
      <point x="61" y="97"/>
      <point x="160" y="-10"/>
    </contour>
    <contour>
      <point x="296" y="45" type="curve" smooth="yes"/>
      <point x="216" y="45"/>
      <point x="165" y="125"/>
      <point x="163" y="325" type="curve"/>
      <point x="190" y="353"/>
      <point x="235" y="383"/>
      <point x="287" y="383" type="curve" smooth="yes"/>
      <point x="364" y="383"/>
      <point x="406" y="333"/>
      <point x="406" y="219" type="curve" smooth="yes"/>
      <point x="406" y="98"/>
      <point x="367" y="45"/>
    </contour>
  </outline>
</glyph>
<glyph name="nine" format="2">
  <advance width="559"/>
  <unicode hex="0039"/>
  <outline>
    <contour>
      <point x="227" y="-11" type="curve"/>
      <point x="421" y="-11"/>
      <point x="498" y="178"/>
      <point x="498" y="388" type="curve"/>
      <point x="498" y="623"/>
      <point x="400" y="724"/>
      <point x="265" y="724" type="curve" smooth="yes"/>
      <point x="131" y="724"/>
      <point x="51" y="622"/>
      <point x="51" y="478" type="curve" smooth="yes"/>
      <point x="51" y="343"/>
      <point x="132" y="275"/>
      <point x="248" y="275" type="curve" smooth="yes"/>
      <point x="318" y="275"/>
      <point x="366" y="308"/>
      <point x="395" y="343" type="curve"/>
      <point x="388" y="142"/>
      <point x="339" y="44"/>
      <point x="228" y="44" type="curve" smooth="yes"/>
      <point x="165" y="44"/>
      <point x="130" y="81"/>
      <point x="112" y="123" type="curve"/>
      <point x="97" y="118"/>
      <point x="82" y="100"/>
      <point x="82" y="75" type="curve" smooth="yes"/>
      <point x="82" y="33"/>
      <point x="114" y="-11"/>
    </contour>
    <contour>
      <point x="270" y="334" type="curve" smooth="yes"/>
      <point x="193" y="334"/>
      <point x="154" y="378"/>
      <point x="154" y="488" type="curve" smooth="yes"/>
      <point x="154" y="605"/>
      <point x="195" y="669"/>
      <point x="265" y="669" type="curve" smooth="yes"/>
      <point x="342" y="669"/>
      <point x="393" y="593"/>
      <point x="396" y="415" type="curve"/>
      <point x="378" y="372"/>
      <point x="335" y="334"/>
    </contour>
  </outline>
</glyph>
<glyph name="semicolon" format="2">
  <advance width="286"/>
  <unicode hex="003B"/>
  <outline>
    <contour>
      <point x="48" y="-154" type="line"/>
      <point x="167" y="-119"/>
      <point x="212" y="-43"/>
      <point x="212" y="42" type="curve" smooth="yes"/>
      <point x="212" y="98"/>
      <point x="176" y="129"/>
      <point x="135" y="129" type="curve" smooth="yes"/>
      <point x="98" y="129"/>
      <point x="70" y="108"/>
      <point x="70" y="70" type="curve" smooth="yes"/>
      <point x="70" y="9"/>
      <point x="143" y="18"/>
      <point x="143" y="-22" type="curve" smooth="yes"/>
      <point x="143" y="-61"/>
      <point x="113" y="-91"/>
      <point x="48" y="-112" type="curve"/>
    </contour>
    <contour>
      <point x="144" y="405" type="curve" smooth="yes"/>
      <point x="178" y="405"/>
      <point x="207" y="422"/>
      <point x="207" y="473" type="curve" smooth="yes"/>
      <point x="207" y="525"/>
      <point x="178" y="541"/>
      <point x="144" y="541" type="curve" smooth="yes"/>
      <point x="109" y="541"/>
      <point x="81" y="525"/>
      <point x="81" y="473" type="curve" smooth="yes"/>
      <point x="81" y="422"/>
      <point x="109" y="405"/>
    </contour>
  </outline>
</glyph>
<glyph name="less" format="2">
  <advance width="559"/>
  <unicode hex="003C"/>
  <outline>
    <contour>
      <point x="494" y="110" type="line"/>
      <point x="494" y="177" type="line"/>
      <point x="158" y="357" type="line"/>
      <point x="494" y="539" type="line"/>
      <point x="494" y="606" type="line"/>
      <point x="65" y="375" type="line"/>
      <point x="65" y="340" type="line"/>
    </contour>
  </outline>
</glyph>
<glyph name="equal" format="2">
  <advance width="559"/>
  <unicode hex="003D"/>
  <outline>
    <contour>
      <point x="65" y="426" type="line"/>
      <point x="494" y="426" type="line"/>
      <point x="494" y="485" type="line"/>
      <point x="65" y="485" type="line"/>
    </contour>
    <contour>
      <point x="65" y="229" type="line"/>
      <point x="494" y="229" type="line"/>
      <point x="494" y="288" type="line"/>
      <point x="65" y="288" type="line"/>
    </contour>
  </outline>
</glyph>
<glyph name="greater" format="2">
  <advance width="559"/>
  <unicode hex="003E"/>
  <outline>
    <contour>
      <point x="65" y="110" type="line"/>
      <point x="494" y="340" type="line"/>
      <point x="494" y="375" type="line"/>
      <point x="65" y="606" type="line"/>
      <point x="65" y="539" type="line"/>
      <point x="401" y="357" type="line"/>
      <point x="65" y="177" type="line"/>
    </contour>
  </outline>
</glyph>
<glyph name="question" format="2">
  <advance width="500"/>
  <unicode hex="003F"/>
  <outline>
    <contour>
      <point x="194" y="201" type="line"/>
      <point x="255" y="201" type="line"/>
      <point x="255" y="314" type="line"/>
      <point x="379" y="365"/>
      <point x="449" y="433"/>
      <point x="449" y="543" type="curve" smooth="yes"/>
      <point x="449" y="657"/>
      <point x="356" y="724"/>
      <point x="230" y="724" type="curve" smooth="yes"/>
      <point x="101" y="724"/>
      <point x="43" y="676"/>
      <point x="43" y="612" type="curve" smooth="yes"/>
      <point x="43" y="569"/>
      <point x="78" y="547"/>
      <point x="126" y="547" type="curve"/>
      <point x="126" y="616"/>
      <point x="155" y="675"/>
      <point x="238" y="675" type="curve" smooth="yes"/>
      <point x="315" y="675"/>
      <point x="347" y="629"/>
      <point x="347" y="560" type="curve" smooth="yes"/>
      <point x="347" y="480"/>
      <point x="310" y="400"/>
      <point x="194" y="353" type="curve"/>
    </contour>
    <contour>
      <point x="223" y="-7" type="curve" smooth="yes"/>
      <point x="257" y="-7"/>
      <point x="286" y="10"/>
      <point x="286" y="61" type="curve" smooth="yes"/>
      <point x="286" y="113"/>
      <point x="257" y="129"/>
      <point x="223" y="129" type="curve" smooth="yes"/>
      <point x="188" y="129"/>
      <point x="160" y="113"/>
      <point x="160" y="61" type="curve" smooth="yes"/>
      <point x="160" y="10"/>
      <point x="188" y="-7"/>
    </contour>
  </outline>
</glyph>
<glyph name="bracketright" format="2">
  <advance width="360"/>
  <unicode hex="005D"/>
  <outline>
    <contour>
      <point x="37" y="-128" type="line"/>
      <point x="260" y="-128" type="line"/>
      <point x="260" y="760" type="line"/>
      <point x="37" y="760" type="line"/>
      <point x="37" y="718" type="line"/>
      <point x="80" y="718" type="line" smooth="yes"/>
      <point x="125" y="718"/>
      <point x="162" y="709"/>
      <point x="162" y="646" type="curve" smooth="yes"/>
      <point x="162" y="-14" type="line" smooth="yes"/>
      <point x="162" y="-77"/>
      <point x="125" y="-86"/>
      <point x="80" y="-86" type="curve" smooth="yes"/>
      <point x="37" y="-86" type="line"/>
    </contour>
  </outline>
</glyph>
<glyph name="braceleft" format="2">
  <advance width="428"/>
  <unicode hex="007B"/>
  <outline>
    <contour>
      <point x="312" y="-128" type="curve" smooth="yes"/>
      <point x="378" y="-128" type="line"/>
      <point x="378" y="-85" type="line"/>
      <point x="348" y="-85" type="line" smooth="yes"/>
      <point x="289" y="-85"/>
      <point x="266" y="-48"/>
      <point x="266" y="20" type="curve" smooth="yes"/>
      <point x="266" y="193" type="line" smooth="yes"/>
      <point x="266" y="259"/>
      <point x="231" y="304"/>
      <point x="155" y="317" type="curve"/>
      <point x="155" y="318" type="line"/>
      <point x="229" y="330"/>
      <point x="266" y="376"/>
      <point x="266" y="441" type="curve" smooth="yes"/>
      <point x="266" y="612" type="line" smooth="yes"/>
      <point x="266" y="681"/>
      <point x="289" y="717"/>
      <point x="348" y="717" type="curve" smooth="yes"/>
      <point x="378" y="717" type="line"/>
      <point x="378" y="760" type="line"/>
      <point x="312" y="760" type="line" smooth="yes"/>
      <point x="218" y="760"/>
      <point x="168" y="708"/>
      <point x="168" y="617" type="curve" smooth="yes"/>
      <point x="168" y="443" type="line" smooth="yes"/>
      <point x="168" y="362"/>
      <point x="116" y="340"/>
      <point x="50" y="338" type="curve"/>
      <point x="50" y="296" type="line"/>
      <point x="116" y="293"/>
      <point x="168" y="272"/>
      <point x="168" y="190" type="curve" smooth="yes"/>
      <point x="168" y="16" type="line" smooth="yes"/>
      <point x="168" y="-72"/>
      <point x="218" y="-128"/>
    </contour>
  </outline>
</glyph>
<glyph name="bar" format="2">
  <advance width="559"/>
  <unicode hex="007C"/>
  <outline>
    <contour>
      <point x="249" y="-240" type="line"/>
      <point x="309" y="-240" type="line"/>
      <point x="309" y="760" type="line"/>
      <point x="249" y="760" type="line"/>
    </contour>
  </outline>
</glyph>
<glyph name="braceright" format="2">
  <advance width="428"/>
  <unicode hex="007D"/>
  <outline>
    <contour>
      <point x="50" y="-128" type="line"/>
      <point x="116" y="-128" type="line" smooth="yes"/>
      <point x="210" y="-128"/>
      <point x="260" y="-72"/>
      <point x="260" y="16" type="curve" smooth="yes"/>
      <point x="260" y="190" type="line" smooth="yes"/>
      <point x="260" y="272"/>
      <point x="312" y="293"/>
      <point x="378" y="296" type="curve"/>
      <point x="378" y="338" type="line"/>
      <point x="312" y="340"/>
      <point x="260" y="362"/>
      <point x="260" y="443" type="curve" smooth="yes"/>
      <point x="260" y="617" type="line" smooth="yes"/>
      <point x="260" y="708"/>
      <point x="210" y="760"/>
      <point x="116" y="760" type="curve" smooth="yes"/>
      <point x="50" y="760" type="line"/>
      <point x="50" y="717" type="line"/>
      <point x="80" y="717" type="line" smooth="yes"/>
      <point x="139" y="717"/>
      <point x="162" y="681"/>
      <point x="162" y="612" type="curve" smooth="yes"/>
      <point x="162" y="441" type="line" smooth="yes"/>
      <point x="162" y="376"/>
      <point x="199" y="330"/>
      <point x="273" y="318" type="curve"/>
      <point x="273" y="317" type="line"/>
      <point x="197" y="304"/>
      <point x="162" y="259"/>
      <point x="162" y="193" type="curve" smooth="yes"/>
      <point x="162" y="20" type="line" smooth="yes"/>
      <point x="162" y="-48"/>
      <point x="139" y="-85"/>
      <point x="80" y="-85" type="curve" smooth="yes"/>
      <point x="50" y="-85" type="line"/>
    </contour>
  </outline>
</glyph>
<glyph name="twosuperior" format="2">
  <advance width="400"/>
  <unicode hex="00B2"/>
  <outline>
    <contour>
      <point x="42" y="387" type="line"/>
      <point x="346" y="387" type="line"/>
      <point x="349" y="512" type="line"/>
      <point x="315" y="512" type="line"/>
      <point x="311" y="491" type="line"/>
      <point x="307" y="469"/>
      <point x="298" y="450"/>
      <point x="267" y="450" type="curve"/>
      <point x="122" y="450" type="line"/>
      <point x="228" y="541" type="line"/>
      <point x="311" y="612"/>
      <point x="337" y="654"/>
      <point x="337" y="717" type="curve" smooth="yes"/>
      <point x="337" y="787"/>
      <point x="281" y="825"/>
      <point x="188" y="825" type="curve" smooth="yes"/>
      <point x="97" y="825"/>
      <point x="50" y="789"/>
      <point x="50" y="741" type="curve" smooth="yes"/>
      <point x="50" y="706"/>
      <point x="77" y="698"/>
      <point x="122" y="698" type="curve"/>
      <point x="122" y="744"/>
      <point x="139" y="785"/>
      <point x="188" y="785" type="curve" smooth="yes"/>
      <point x="231" y="785"/>
      <point x="247" y="753"/>
      <point x="247" y="709" type="curve" smooth="yes"/>
      <point x="247" y="656"/>
      <point x="228" y="599"/>
      <point x="169" y="546" type="curve" smooth="yes"/>
      <point x="42" y="432" type="line"/>
    </contour>
  </outline>
</glyph>
<glyph name="threesuperior" format="2">
  <advance width="400"/>
  <unicode hex="00B3"/>
  <outline>
    <contour>
      <point x="174" y="380" type="curve" smooth="yes"/>
      <point x="254" y="380"/>
      <point x="351" y="413"/>
      <point x="351" y="511" type="curve" smooth="yes"/>
      <point x="351" y="584"/>
      <point x="285" y="603"/>
      <point x="232" y="612" type="curve"/>
      <point x="232" y="617" type="line"/>
      <point x="287" y="633"/>
      <point x="334" y="667"/>
      <point x="334" y="725" type="curve" smooth="yes"/>
      <point x="334" y="787"/>
      <point x="275" y="824"/>
      <point x="186" y="824" type="curve" smooth="yes"/>
      <point x="95" y="824"/>
      <point x="46" y="788"/>
      <point x="46" y="740" type="curve" smooth="yes"/>
      <point x="46" y="705"/>
      <point x="74" y="697"/>
      <point x="120" y="697" type="curve"/>
      <point x="120" y="743"/>
      <point x="135" y="784"/>
      <point x="186" y="784" type="curve" smooth="yes"/>
      <point x="227" y="784"/>
      <point x="243" y="760"/>
      <point x="243" y="716" type="curve" smooth="yes"/>
      <point x="243" y="663"/>
      <point x="204" y="630"/>
      <point x="154" y="630" type="curve" smooth="yes"/>
      <point x="121" y="630" type="line"/>
      <point x="121" y="589" type="line"/>
      <point x="154" y="589" type="line" smooth="yes"/>
      <point x="227" y="589"/>
      <point x="260" y="559"/>
      <point x="260" y="512" type="curve" smooth="yes"/>
      <point x="260" y="450"/>
      <point x="226" y="425"/>
      <point x="171" y="425" type="curve" smooth="yes"/>
      <point x="113" y="425"/>
      <point x="86" y="469"/>
      <point x="86" y="511" type="curve"/>
      <point x="58" y="511"/>
      <point x="40" y="491"/>
      <point x="40" y="462" type="curve" smooth="yes"/>
      <point x="40" y="413"/>
      <point x="87" y="380"/>
    </contour>
  </outline>
</glyph>
<glyph name="udatta-deva" format="2">
  <unicode hex="0951"/>
  <anchor x="0" y="554" name="_vedic"/>
  <outline>
    <contour>
      <point x="-27" y="912" type="line"/>
      <point x="27" y="912" type="line"/>
      <point x="27" y="1107" type="line"/>
      <point x="-27" y="1107" type="line"/>
    </contour>
  </outline>
</glyph>
<glyph name="anudatta-deva" format="2">
  <unicode hex="0952"/>
  <anchor x="0" y="0" name="_bottom"/>
  <outline>
    <contour>
      <point x="-213" y="-547" type="line"/>
      <point x="213" y="-547" type="line"/>
      <point x="213" y="-480" type="line"/>
      <point x="-213" y="-480" type="line"/>
    </contour>
  </outline>
</glyph>
<glyph name="danda-deva" format="2">
  <advance width="305"/>
  <unicode hex="0964"/>
  <outline>
    <contour>
      <point x="105" y="0" type="line"/>
      <point x="200" y="0" type="line"/>
      <point x="200" y="554" type="line"/>
      <point x="105" y="554" type="line"/>
    </contour>
  </outline>
</glyph>
<glyph name="anusvara-tamil" format="2">
  <unicode hex="0B82"/>
  <note>
uni0B82
</note>
  <anchor x="0" y="554" name="_top"/>
  <outline>
    <contour>
      <point x="0" y="633" type="curve" smooth="yes"/>
      <point x="70" y="633"/>
      <point x="121" y="681"/>
      <point x="121" y="751" type="curve" smooth="yes"/>
      <point x="121" y="822"/>
      <point x="70" y="870"/>
      <point x="0" y="870" type="curve" smooth="yes"/>
      <point x="-70" y="870"/>
      <point x="-121" y="822"/>
      <point x="-121" y="751" type="curve" smooth="yes"/>
      <point x="-121" y="681"/>
      <point x="-70" y="633"/>
    </contour>
    <contour>
      <point x="0" y="687" type="curve" smooth="yes"/>
      <point x="-37" y="687"/>
      <point x="-63" y="713"/>
      <point x="-63" y="751" type="curve" smooth="yes"/>
      <point x="-63" y="790"/>
      <point x="-37" y="816"/>
      <point x="0" y="816" type="curve" smooth="yes"/>
      <point x="37" y="816"/>
      <point x="63" y="790"/>
      <point x="63" y="751" type="curve" smooth="yes"/>
      <point x="63" y="713"/>
      <point x="37" y="687"/>
    </contour>
  </outline>
</glyph>
<glyph name="a-tamil" format="2">
  <advance width="1320"/>
  <unicode hex="0B85"/>
  <note>
uni0B85
</note>
  <anchor x="634" y="0" name="bottom"/>
  <anchor x="455" y="-122" name="nukta"/>
  <anchor x="645" y="554" name="top"/>
  <anchor x="645" y="554" name="vedic"/>
  <outline>
    <contour>
      <point x="1128" y="-199" type="line"/>
      <point x="1223" y="-199" type="line"/>
      <point x="1223" y="554" type="line"/>
      <point x="1128" y="554" type="line"/>
      <point x="1128" y="171" type="line"/>
      <point x="128" y="171" type="line" smooth="yes"/>
      <point x="69" y="171"/>
      <point x="39" y="143"/>
      <point x="39" y="99" type="curve" smooth="yes"/>
      <point x="39" y="4"/>
      <point x="200" y="-122"/>
      <point x="455" y="-122" type="curve" smooth="yes"/>
      <point x="762" y="-122"/>
      <point x="966" y="17"/>
      <point x="966" y="250" type="curve" smooth="yes"/>
      <point x="966" y="442"/>
      <point x="822" y="559"/>
      <point x="645" y="559" type="curve" smooth="yes"/>
      <point x="520" y="559"/>
      <point x="418" y="496"/>
      <point x="418" y="385" type="curve" smooth="yes"/>
      <point x="418" y="307"/>
      <point x="486" y="247"/>
      <point x="579" y="247" type="curve" smooth="yes"/>
      <point x="661" y="247"/>
      <point x="727" y="296"/>
      <point x="727" y="377" type="curve" smooth="yes"/>
      <point x="727" y="452"/>
      <point x="657" y="513"/>
      <point x="598" y="519" type="curve"/>
      <point x="543" y="516" type="line"/>
      <point x="603" y="500"/>
      <point x="636" y="439"/>
      <point x="636" y="386" type="curve" smooth="yes"/>
      <point x="636" y="337"/>
      <point x="611" y="301"/>
      <point x="558" y="301" type="curve" smooth="yes"/>
      <point x="512" y="301"/>
      <point x="477" y="328"/>
      <point x="477" y="382" type="curve" smooth="yes"/>
      <point x="477" y="461"/>
      <point x="547" y="505"/>
      <point x="633" y="505" type="curve" smooth="yes"/>
      <point x="760" y="505"/>
      <point x="870" y="408"/>
      <point x="870" y="250" type="curve" smooth="yes"/>
      <point x="870" y="57"/>
      <point x="721" y="-68"/>
      <point x="455" y="-68" type="curve" smooth="yes"/>
      <point x="247" y="-68"/>
      <point x="98" y="29"/>
      <point x="98" y="91" type="curve" smooth="yes"/>
      <point x="98" y="107"/>
      <point x="105" y="117"/>
      <point x="132" y="117" type="curve" smooth="yes"/>
      <point x="1128" y="117" type="line"/>
    </contour>
  </outline>
</glyph>
<glyph name="aa-tamil" format="2">
  <advance width="1488"/>
  <unicode hex="0B86"/>
  <note>
uni0B86
</note>
  <anchor x="727" y="0" name="bottom"/>
  <anchor x="455" y="-122" name="nukta"/>
  <anchor x="739" y="554" name="top"/>
  <anchor x="738" y="554" name="vedic"/>
  <outline>
    <contour>
      <point x="1053" y="-443" type="curve" smooth="yes"/>
      <point x="1258" y="-443"/>
      <point x="1456" y="-319"/>
      <point x="1456" y="-118" type="curve" smooth="yes"/>
      <point x="1456" y="-20"/>
      <point x="1414" y="45"/>
      <point x="1330" y="45" type="curve" smooth="yes"/>
      <point x="1244" y="45"/>
      <point x="1191" y="-20"/>
      <point x="1184" y="-110" type="curve"/>
      <point x="1213" y="-122" type="line"/>
      <point x="1213" y="-66"/>
      <point x="1253" y="-36"/>
      <point x="1293" y="-36" type="curve" smooth="yes"/>
      <point x="1340" y="-36"/>
      <point x="1363" y="-67"/>
      <point x="1363" y="-126" type="curve" smooth="yes"/>
      <point x="1363" y="-282"/>
      <point x="1193" y="-389"/>
      <point x="1036" y="-389" type="curve" smooth="yes"/>
      <point x="948" y="-389"/>
      <point x="845" y="-362"/>
      <point x="845" y="-283" type="curve" smooth="yes"/>
      <point x="845" y="-236"/>
      <point x="881" y="-201"/>
      <point x="952" y="-193" type="curve"/>
      <point x="939" y="-140" type="line"/>
      <point x="836" y="-155"/>
      <point x="789" y="-208"/>
      <point x="789" y="-278" type="curve" smooth="yes"/>
      <point x="789" y="-394"/>
      <point x="918" y="-443"/>
    </contour>
    <component base="a-tamil"/>
  </outline>
</glyph>
<glyph name="i-tamil" format="2">
  <advance width="1023"/>
  <unicode hex="0B87"/>
  <note>
uni0B87
</note>
  <anchor x="497" y="0" name="bottom"/>
  <anchor x="495" y="-258" name="nukta"/>
  <anchor x="503" y="829" name="top"/>
  <anchor x="503" y="554" name="vedic"/>
  <outline>
    <contour>
      <point x="236" y="-297" type="curve" smooth="yes"/>
      <point x="546" y="-297"/>
      <point x="773" y="-37"/>
      <point x="773" y="239" type="curve" smooth="yes"/>
      <point x="773" y="435"/>
      <point x="669" y="559"/>
      <point x="498" y="559" type="curve" smooth="yes"/>
      <point x="379" y="559"/>
      <point x="272" y="499"/>
      <point x="272" y="382" type="curve" smooth="yes"/>
      <point x="272" y="300"/>
      <point x="347" y="248"/>
      <point x="421" y="248" type="curve" smooth="yes"/>
      <point x="506" y="248"/>
      <point x="566" y="298"/>
      <point x="566" y="374" type="curve" smooth="yes"/>
      <point x="566" y="436"/>
      <point x="524" y="499"/>
      <point x="429" y="517" type="curve"/>
      <point x="370" y="512" type="line"/>
      <point x="433" y="497"/>
      <point x="476" y="440"/>
      <point x="476" y="384" type="curve" smooth="yes"/>
      <point x="476" y="336"/>
      <point x="453" y="302"/>
      <point x="402" y="302" type="curve" smooth="yes"/>
      <point x="358" y="302"/>
      <point x="331" y="334"/>
      <point x="331" y="380" type="curve" smooth="yes"/>
      <point x="331" y="460"/>
      <point x="403" y="505"/>
      <point x="480" y="505" type="curve" smooth="yes"/>
      <point x="617" y="505"/>
      <point x="677" y="403"/>
      <point x="677" y="262" type="curve" smooth="yes"/>
      <point x="677" y="0"/>
      <point x="537" y="-243"/>
      <point x="253" y="-243" type="curve" smooth="yes"/>
      <point x="173" y="-243"/>
      <point x="117" y="-211"/>
      <point x="117" y="-148" type="curve" smooth="yes"/>
      <point x="117" y="-19"/>
      <point x="316" y="57"/>
      <point x="474" y="57" type="curve" smooth="yes"/>
      <point x="635" y="57"/>
      <point x="852" y="0"/>
      <point x="852" y="-139" type="curve" smooth="yes"/>
      <point x="852" y="-215"/>
      <point x="779" y="-243"/>
      <point x="688" y="-243" type="curve" smooth="yes"/>
      <point x="432" y="-243"/>
      <point x="139" y="73"/>
      <point x="139" y="377" type="curve" smooth="yes"/>
      <point x="139" y="634"/>
      <point x="315" y="739"/>
      <point x="503" y="739" type="curve" smooth="yes"/>
      <point x="775" y="739"/>
      <point x="901" y="565"/>
      <point x="901" y="306" type="curve" smooth="yes"/>
      <point x="901" y="86" type="line"/>
      <point x="959" y="86" type="line"/>
      <point x="959" y="306" type="line" smooth="yes"/>
      <point x="959" y="653"/>
      <point x="805" y="829"/>
      <point x="503" y="829" type="curve" smooth="yes"/>
      <point x="260" y="829"/>
      <point x="69" y="653"/>
      <point x="69" y="411" type="curve" smooth="yes"/>
      <point x="69" y="53"/>
      <point x="398" y="-297"/>
      <point x="719" y="-297" type="curve" smooth="yes"/>
      <point x="834" y="-297"/>
      <point x="922" y="-249"/>
      <point x="922" y="-153" type="curve" smooth="yes"/>
      <point x="922" y="23"/>
      <point x="674" y="110"/>
      <point x="474" y="110" type="curve" smooth="yes"/>
      <point x="272" y="110"/>
      <point x="49" y="23"/>
      <point x="49" y="-148" type="curve" smooth="yes"/>
      <point x="49" y="-244"/>
      <point x="126" y="-297"/>
    </contour>
  </outline>
</glyph>
<glyph name="ii-tamil" format="2">
  <advance width="761"/>
  <unicode hex="0B88"/>
  <note>
uni0B88
</note>
  <anchor x="395" y="0" name="bottom"/>
  <anchor x="395" y="0" name="nukta"/>
  <anchor x="397" y="554" name="top"/>
  <anchor x="397" y="554" name="vedic"/>
  <outline>
    <contour>
      <point x="98" y="0" type="line"/>
      <point x="159" y="0" type="line"/>
      <point x="159" y="500" type="line"/>
      <point x="427" y="500" type="line"/>
      <point x="427" y="0" type="line"/>
      <point x="522" y="0" type="line"/>
      <point x="522" y="500" type="line"/>
      <point x="710" y="500" type="line"/>
      <point x="710" y="554" type="line"/>
      <point x="98" y="554" type="line"/>
    </contour>
    <contour>
      <point x="293" y="211" type="curve" smooth="yes"/>
      <point x="323" y="211"/>
      <point x="347" y="235"/>
      <point x="347" y="264" type="curve" smooth="yes"/>
      <point x="347" y="292"/>
      <point x="323" y="316"/>
      <point x="293" y="316" type="curve" smooth="yes"/>
      <point x="263" y="316"/>
      <point x="239" y="292"/>
      <point x="239" y="264" type="curve" smooth="yes"/>
      <point x="239" y="235"/>
      <point x="263" y="211"/>
    </contour>
    <contour>
      <point x="656" y="211" type="curve" smooth="yes"/>
      <point x="687" y="211"/>
      <point x="710" y="235"/>
      <point x="710" y="264" type="curve" smooth="yes"/>
      <point x="710" y="292"/>
      <point x="687" y="316"/>
      <point x="656" y="316" type="curve" smooth="yes"/>
      <point x="626" y="316"/>
      <point x="603" y="292"/>
      <point x="603" y="264" type="curve" smooth="yes"/>
      <point x="603" y="235"/>
      <point x="626" y="211"/>
    </contour>
  </outline>
</glyph>
<glyph name="u-tamil" format="2">
  <advance width="1028"/>
  <unicode hex="0B89"/>
  <note>
uni0B89
</note>
  <anchor x="546" y="0" name="bottom"/>
  <anchor x="546" y="0" name="nukta"/>
  <anchor x="548" y="554" name="top"/>
  <anchor x="549" y="554" name="vedic"/>
  <outline>
    <contour>
      <point x="154" y="0" type="curve" smooth="yes"/>
      <point x="1008" y="0" type="line"/>
      <point x="1008" y="54" type="line"/>
      <point x="146" y="54" type="line" smooth="yes"/>
      <point x="125" y="54"/>
      <point x="107" y="69"/>
      <point x="107" y="94" type="curve" smooth="yes"/>
      <point x="107" y="120"/>
      <point x="125" y="135"/>
      <point x="146" y="135" type="curve" smooth="yes"/>
      <point x="396" y="135" type="line" smooth="yes"/>
      <point x="538" y="135"/>
      <point x="656" y="200"/>
      <point x="656" y="336" type="curve" smooth="yes"/>
      <point x="656" y="481"/>
      <point x="534" y="559"/>
      <point x="374" y="559" type="curve" smooth="yes"/>
      <point x="239" y="559"/>
      <point x="139" y="495"/>
      <point x="139" y="385" type="curve" smooth="yes"/>
      <point x="139" y="307"/>
      <point x="207" y="247"/>
      <point x="299" y="247" type="curve" smooth="yes"/>
      <point x="381" y="247"/>
      <point x="447" y="296"/>
      <point x="447" y="377" type="curve" smooth="yes"/>
      <point x="447" y="452"/>
      <point x="377" y="513"/>
      <point x="318" y="519" type="curve"/>
      <point x="264" y="516" type="line"/>
      <point x="323" y="500"/>
      <point x="356" y="439"/>
      <point x="356" y="386" type="curve" smooth="yes"/>
      <point x="356" y="337"/>
      <point x="331" y="301"/>
      <point x="278" y="301" type="curve" smooth="yes"/>
      <point x="232" y="301"/>
      <point x="197" y="328"/>
      <point x="197" y="382" type="curve" smooth="yes"/>
      <point x="197" y="461"/>
      <point x="268" y="505"/>
      <point x="353" y="505" type="curve" smooth="yes"/>
      <point x="465" y="505"/>
      <point x="561" y="447"/>
      <point x="561" y="349" type="curve" smooth="yes"/>
      <point x="561" y="244"/>
      <point x="495" y="188"/>
      <point x="382" y="188" type="curve" smooth="yes"/>
      <point x="154" y="188" type="line" smooth="yes"/>
      <point x="90" y="188"/>
      <point x="49" y="154"/>
      <point x="49" y="94" type="curve" smooth="yes"/>
      <point x="49" y="35"/>
      <point x="90" y="0"/>
    </contour>
  </outline>
</glyph>
<glyph name="uu-tamil" format="2">
  <advance width="1741"/>
  <unicode hex="0B8A"/>
  <note>
uni0B8A
</note>
  <anchor x="906" y="0" name="bottom"/>
  <anchor x="907" y="0" name="nukta"/>
  <anchor x="910" y="554" name="top"/>
  <anchor x="909" y="554" name="vedic"/>
  <outline>
    <contour>
      <point x="154" y="0" type="curve" smooth="yes"/>
      <point x="1716" y="0" type="line"/>
      <point x="1716" y="54" type="line"/>
      <point x="146" y="54" type="line" smooth="yes"/>
      <point x="125" y="54"/>
      <point x="107" y="69"/>
      <point x="107" y="94" type="curve" smooth="yes"/>
      <point x="107" y="120"/>
      <point x="125" y="135"/>
      <point x="146" y="135" type="curve" smooth="yes"/>
      <point x="396" y="135" type="line" smooth="yes"/>
      <point x="538" y="135"/>
      <point x="656" y="200"/>
      <point x="656" y="336" type="curve" smooth="yes"/>
      <point x="656" y="481"/>
      <point x="534" y="559"/>
      <point x="374" y="559" type="curve" smooth="yes"/>
      <point x="239" y="559"/>
      <point x="139" y="495"/>
      <point x="139" y="385" type="curve" smooth="yes"/>
      <point x="139" y="307"/>
      <point x="207" y="247"/>
      <point x="299" y="247" type="curve" smooth="yes"/>
      <point x="381" y="247"/>
      <point x="447" y="296"/>
      <point x="447" y="377" type="curve" smooth="yes"/>
      <point x="447" y="452"/>
      <point x="377" y="513"/>
      <point x="318" y="519" type="curve"/>
      <point x="264" y="516" type="line"/>
      <point x="323" y="500"/>
      <point x="356" y="439"/>
      <point x="356" y="386" type="curve" smooth="yes"/>
      <point x="356" y="337"/>
      <point x="331" y="301"/>
      <point x="278" y="301" type="curve" smooth="yes"/>
      <point x="232" y="301"/>
      <point x="197" y="328"/>
      <point x="197" y="382" type="curve" smooth="yes"/>
      <point x="197" y="461"/>
      <point x="268" y="505"/>
      <point x="353" y="505" type="curve" smooth="yes"/>
      <point x="465" y="505"/>
      <point x="561" y="447"/>
      <point x="561" y="349" type="curve" smooth="yes"/>
      <point x="561" y="244"/>
      <point x="495" y="188"/>
      <point x="382" y="188" type="curve" smooth="yes"/>
      <point x="154" y="188" type="line" smooth="yes"/>
      <point x="90" y="188"/>
      <point x="49" y="154"/>
      <point x="49" y="94" type="curve" smooth="yes"/>
      <point x="49" y="35"/>
      <point x="90" y="0"/>
    </contour>
    <contour>
      <point x="950" y="103" type="curve" smooth="yes"/>
      <point x="1055" y="103"/>
      <point x="1111" y="170"/>
      <point x="1111" y="242" type="curve" smooth="yes"/>
      <point x="1111" y="334"/>
      <point x="1045" y="390"/>
      <point x="962" y="390" type="curve" smooth="yes"/>
      <point x="890" y="390"/>
      <point x="816" y="334"/>
      <point x="801" y="252" type="curve"/>
      <point x="815" y="209" type="line"/>
      <point x="829" y="272"/>
      <point x="880" y="327"/>
      <point x="939" y="327" type="curve" smooth="yes"/>
      <point x="986" y="327"/>
      <point x="1018" y="296"/>
      <point x="1018" y="245" type="curve" smooth="yes"/>
      <point x="1018" y="200"/>
      <point x="990" y="156"/>
      <point x="932" y="156" type="curve" smooth="yes"/>
      <point x="863" y="156"/>
      <point x="813" y="204"/>
      <point x="813" y="319" type="curve" smooth="yes"/>
      <point x="813" y="425"/>
      <point x="899" y="505"/>
      <point x="1008" y="505" type="curve" smooth="yes"/>
      <point x="1139" y="505"/>
      <point x="1220" y="418"/>
      <point x="1220" y="301" type="curve"/>
      <point x="1262" y="301" type="line"/>
      <point x="1262" y="458"/>
      <point x="1164" y="559"/>
      <point x="1006" y="559" type="curve" smooth="yes"/>
      <point x="861" y="559"/>
      <point x="754" y="456"/>
      <point x="754" y="317" type="curve" smooth="yes"/>
      <point x="754" y="181"/>
      <point x="838" y="103"/>
    </contour>
    <contour>
      <point x="1220" y="107" type="line"/>
      <point x="1315" y="107" type="line"/>
      <point x="1315" y="502" type="line"/>
      <point x="1509" y="502" type="line"/>
      <point x="1509" y="107" type="line"/>
      <point x="1604" y="107" type="line"/>
      <point x="1604" y="502" type="line"/>
      <point x="1716" y="502" type="line"/>
      <point x="1716" y="554" type="line"/>
      <point x="1225" y="554" type="line"/>
      <point x="1225" y="379" type="line"/>
      <point x="1220" y="375" type="line"/>
    </contour>
  </outline>
</glyph>
<glyph name="e-tamil" format="2">
  <advance width="938"/>
  <unicode hex="0B8E"/>
  <note>
uni0B8E
</note>
  <anchor x="505" y="0" name="bottom"/>
  <anchor x="506" y="0" name="nukta"/>
  <anchor x="506" y="554" name="top"/>
  <anchor x="508" y="554" name="vedic"/>
  <outline>
    <contour>
      <point x="278" y="-5" type="curve" smooth="yes"/>
      <point x="387" y="-5"/>
      <point x="459" y="59"/>
      <point x="459" y="150" type="curve" smooth="yes"/>
      <point x="459" y="242"/>
      <point x="401" y="303"/>
      <point x="307" y="303" type="curve" smooth="yes"/>
      <point x="209" y="303"/>
      <point x="127" y="229"/>
      <point x="120" y="123" type="curve"/>
      <point x="150" y="96" type="line"/>
      <point x="156" y="184"/>
      <point x="205" y="236"/>
      <point x="270" y="236" type="curve" smooth="yes"/>
      <point x="337" y="236"/>
      <point x="366" y="190"/>
      <point x="366" y="146" type="curve" smooth="yes"/>
      <point x="366" y="91"/>
      <point x="327" y="49"/>
      <point x="261" y="49" type="curve" smooth="yes"/>
      <point x="187" y="49"/>
      <point x="117" y="115"/>
      <point x="117" y="249" type="curve" smooth="yes"/>
      <point x="117" y="414"/>
      <point x="250" y="500"/>
      <point x="418" y="500" type="curve" smooth="yes"/>
      <point x="648" y="500" type="line"/>
      <point x="648" y="0" type="line"/>
      <point x="743" y="0" type="line"/>
      <point x="743" y="500" type="line"/>
      <point x="919" y="500" type="line"/>
      <point x="919" y="554" type="line"/>
      <point x="415" y="554" type="line" smooth="yes"/>
      <point x="222" y="554"/>
      <point x="59" y="453"/>
      <point x="59" y="250" type="curve" smooth="yes"/>
      <point x="59" y="83"/>
      <point x="162" y="-5"/>
    </contour>
  </outline>
</glyph>
<glyph name="ai-tamil" format="2">
  <advance width="989"/>
  <unicode hex="0B90"/>
  <note>
uni0B90
</note>
  <anchor x="502" y="0" name="bottom"/>
  <anchor x="493" y="-296" name="nukta"/>
  <anchor x="509" y="554" name="top"/>
  <anchor x="508" y="554" name="vedic"/>
  <outline>
    <contour>
      <point x="300" y="-296" type="curve" smooth="yes"/>
      <point x="408" y="-296"/>
      <point x="484" y="-255"/>
      <point x="513" y="-183" type="curve"/>
      <point x="541" y="-250"/>
      <point x="620" y="-296"/>
      <point x="706" y="-296" type="curve" smooth="yes"/>
      <point x="833" y="-296"/>
      <point x="931" y="-237"/>
      <point x="931" y="-100" type="curve" smooth="yes"/>
      <point x="931" y="-36"/>
      <point x="901" y="23"/>
      <point x="851" y="78" type="curve"/>
      <point x="811" y="45" type="line"/>
      <point x="853" y="1"/>
      <point x="872" y="-47"/>
      <point x="872" y="-93" type="curve" smooth="yes"/>
      <point x="872" y="-200"/>
      <point x="802" y="-235"/>
      <point x="706" y="-235" type="curve" smooth="yes"/>
      <point x="618" y="-235"/>
      <point x="563" y="-171"/>
      <point x="563" y="-74" type="curve" smooth="yes"/>
      <point x="563" y="-41" type="line"/>
      <point x="469" y="-41" type="line"/>
      <point x="469" y="-88" type="line" smooth="yes"/>
      <point x="469" y="-188"/>
      <point x="414" y="-241"/>
      <point x="305" y="-241" type="curve" smooth="yes"/>
      <point x="208" y="-241"/>
      <point x="154" y="-197"/>
      <point x="154" y="-117" type="curve" smooth="yes"/>
      <point x="154" y="32"/>
      <point x="302" y="64"/>
      <point x="534" y="76" type="curve" smooth="yes"/>
      <point x="737" y="87"/>
      <point x="926" y="137"/>
      <point x="926" y="340" type="curve" smooth="yes"/>
      <point x="926" y="505"/>
      <point x="818" y="559"/>
      <point x="713" y="559" type="curve" smooth="yes"/>
      <point x="627" y="559"/>
      <point x="551" y="517"/>
      <point x="520" y="439" type="curve"/>
      <point x="484" y="518"/>
      <point x="401" y="559"/>
      <point x="314" y="559" type="curve" smooth="yes"/>
      <point x="172" y="559"/>
      <point x="63" y="476"/>
      <point x="63" y="349" type="curve" smooth="yes"/>
      <point x="63" y="238"/>
      <point x="133" y="156"/>
      <point x="233" y="156" type="curve" smooth="yes"/>
      <point x="323" y="156"/>
      <point x="384" y="205"/>
      <point x="384" y="276" type="curve" smooth="yes"/>
      <point x="384" y="361"/>
      <point x="329" y="412"/>
      <point x="252" y="412" type="curve" smooth="yes"/>
      <point x="195" y="412"/>
      <point x="115" y="378"/>
      <point x="104" y="262" type="curve"/>
      <point x="131" y="224" type="line"/>
      <point x="140" y="322"/>
      <point x="185" y="352"/>
      <point x="224" y="352" type="curve" smooth="yes"/>
      <point x="265" y="352"/>
      <point x="291" y="324"/>
      <point x="291" y="279" type="curve" smooth="yes"/>
      <point x="291" y="237"/>
      <point x="266" y="210"/>
      <point x="225" y="210" type="curve" smooth="yes"/>
      <point x="174" y="210"/>
      <point x="122" y="243"/>
      <point x="122" y="344" type="curve" smooth="yes"/>
      <point x="122" y="448"/>
      <point x="205" y="505"/>
      <point x="294" y="505" type="curve" smooth="yes"/>
      <point x="398" y="505"/>
      <point x="469" y="445"/>
      <point x="469" y="330" type="curve" smooth="yes"/>
      <point x="469" y="215" type="line"/>
      <point x="563" y="215" type="line"/>
      <point x="563" y="356" type="line" smooth="yes"/>
      <point x="563" y="439"/>
      <point x="614" y="505"/>
      <point x="700" y="505" type="curve" smooth="yes"/>
      <point x="792" y="505"/>
      <point x="831" y="445"/>
      <point x="831" y="350" type="curve" smooth="yes"/>
      <point x="831" y="185"/>
      <point x="727" y="131"/>
      <point x="470" y="118" type="curve" smooth="yes"/>
      <point x="223" y="106"/>
      <point x="59" y="62"/>
      <point x="59" y="-105" type="curve" smooth="yes"/>
      <point x="59" y="-225"/>
      <point x="153" y="-296"/>
    </contour>
  </outline>
</glyph>
<glyph name="o-tamil" format="2">
  <advance width="1012"/>
  <unicode hex="0B92"/>
  <note>
uni0B92
</note>
  <anchor x="518" y="0" name="bottom"/>
  <anchor x="516" y="-335" name="nukta"/>
  <anchor x="511" y="554" name="top"/>
  <anchor x="511" y="554" name="vedic"/>
  <outline>
    <contour>
      <point x="383" y="-338" type="curve" smooth="yes"/>
      <point x="590" y="-338"/>
      <point x="597" y="-146"/>
      <point x="772" y="-146" type="curve" smooth="yes"/>
      <point x="805" y="-146" type="line"/>
      <point x="805" y="-93" type="line"/>
      <point x="772" y="-93" type="line" smooth="yes"/>
      <point x="669" y="-93"/>
      <point x="576" y="-12"/>
      <point x="576" y="88" type="curve" smooth="yes"/>
      <point x="576" y="126"/>
      <point x="589" y="168"/>
      <point x="622" y="208" type="curve"/>
      <point x="627" y="204" type="line"/>
      <point x="617" y="183"/>
      <point x="612" y="160"/>
      <point x="612" y="136" type="curve" smooth="yes"/>
      <point x="612" y="66"/>
      <point x="659" y="-5"/>
      <point x="759" y="-5" type="curve" smooth="yes"/>
      <point x="867" y="-5"/>
      <point x="954" y="79"/>
      <point x="954" y="201" type="curve" smooth="yes"/>
      <point x="954" y="413"/>
      <point x="747" y="559"/>
      <point x="494" y="559" type="curve" smooth="yes"/>
      <point x="260" y="559"/>
      <point x="59" y="439"/>
      <point x="59" y="227" type="curve" smooth="yes"/>
      <point x="59" y="79"/>
      <point x="164" y="-5"/>
      <point x="278" y="-5" type="curve" smooth="yes"/>
      <point x="387" y="-5"/>
      <point x="459" y="60"/>
      <point x="459" y="150" type="curve" smooth="yes"/>
      <point x="459" y="242"/>
      <point x="401" y="304"/>
      <point x="307" y="304" type="curve" smooth="yes"/>
      <point x="209" y="304"/>
      <point x="127" y="229"/>
      <point x="120" y="124" type="curve"/>
      <point x="150" y="97" type="line"/>
      <point x="156" y="185"/>
      <point x="205" y="236"/>
      <point x="270" y="236" type="curve" smooth="yes"/>
      <point x="337" y="236"/>
      <point x="366" y="191"/>
      <point x="366" y="146" type="curve" smooth="yes"/>
      <point x="366" y="92"/>
      <point x="327" y="49"/>
      <point x="261" y="49" type="curve" smooth="yes"/>
      <point x="188" y="49"/>
      <point x="117" y="112"/>
      <point x="117" y="225" type="curve" smooth="yes"/>
      <point x="117" y="402"/>
      <point x="295" y="505"/>
      <point x="496" y="505" type="curve" smooth="yes"/>
      <point x="705" y="505"/>
      <point x="859" y="394"/>
      <point x="859" y="211" type="curve" smooth="yes"/>
      <point x="859" y="120"/>
      <point x="816" y="49"/>
      <point x="746" y="49" type="curve" smooth="yes"/>
      <point x="690" y="49"/>
      <point x="663" y="88"/>
      <point x="663" y="139" type="curve" smooth="yes"/>
      <point x="663" y="177"/>
      <point x="678" y="221"/>
      <point x="708" y="260" type="curve"/>
      <point x="652" y="304" type="line"/>
      <point x="564" y="242"/>
      <point x="527" y="160"/>
      <point x="527" y="83" type="curve" smooth="yes"/>
      <point x="527" y="-3"/>
      <point x="574" y="-81"/>
      <point x="648" y="-115" type="curve"/>
      <point x="648" y="-120" type="line"/>
      <point x="509" y="-129"/>
      <point x="494" y="-272"/>
      <point x="357" y="-272" type="curve" smooth="yes"/>
      <point x="307" y="-272"/>
      <point x="268" y="-241"/>
      <point x="268" y="-189" type="curve" smooth="yes"/>
      <point x="268" y="-150"/>
      <point x="286" y="-124"/>
      <point x="325" y="-95" type="curve"/>
      <point x="286" y="-54" type="line"/>
      <point x="233" y="-95"/>
      <point x="209" y="-134"/>
      <point x="209" y="-188" type="curve" smooth="yes"/>
      <point x="209" y="-277"/>
      <point x="286" y="-338"/>
    </contour>
  </outline>
</glyph>
<glyph name="oo-tamil" format="2">
  <advance width="1012"/>
  <unicode hex="0B93"/>
  <note>
uni0B93
</note>
  <anchor x="497" y="0" name="bottom"/>
  <anchor x="495" y="-315" name="nukta"/>
  <anchor x="490" y="554" name="top"/>
  <anchor x="490" y="554" name="vedic"/>
  <outline>
    <contour>
      <point x="366" y="-348" type="curve" smooth="yes"/>
      <point x="595" y="-348"/>
      <point x="591" y="-146"/>
      <point x="752" y="-146" type="curve" smooth="yes"/>
      <point x="787" y="-146" type="line"/>
      <point x="787" y="-93" type="line"/>
      <point x="763" y="-93" type="line" smooth="yes"/>
      <point x="661" y="-93"/>
      <point x="574" y="-14"/>
      <point x="574" y="84" type="curve" smooth="yes"/>
      <point x="574" y="123"/>
      <point x="588" y="166"/>
      <point x="622" y="208" type="curve"/>
      <point x="627" y="204" type="line"/>
      <point x="617" y="183"/>
      <point x="612" y="160"/>
      <point x="612" y="136" type="curve" smooth="yes"/>
      <point x="612" y="66"/>
      <point x="659" y="-5"/>
      <point x="759" y="-5" type="curve" smooth="yes"/>
      <point x="867" y="-5"/>
      <point x="954" y="79"/>
      <point x="954" y="201" type="curve" smooth="yes"/>
      <point x="954" y="413"/>
      <point x="747" y="559"/>
      <point x="494" y="559" type="curve" smooth="yes"/>
      <point x="260" y="559"/>
      <point x="59" y="439"/>
      <point x="59" y="227" type="curve" smooth="yes"/>
      <point x="59" y="79"/>
      <point x="164" y="-5"/>
      <point x="278" y="-5" type="curve" smooth="yes"/>
      <point x="387" y="-5"/>
      <point x="459" y="60"/>
      <point x="459" y="150" type="curve" smooth="yes"/>
      <point x="459" y="242"/>
      <point x="401" y="304"/>
      <point x="307" y="304" type="curve" smooth="yes"/>
      <point x="209" y="304"/>
      <point x="127" y="229"/>
      <point x="120" y="124" type="curve"/>
      <point x="150" y="97" type="line"/>
      <point x="156" y="185"/>
      <point x="205" y="236"/>
      <point x="270" y="236" type="curve" smooth="yes"/>
      <point x="337" y="236"/>
      <point x="366" y="191"/>
      <point x="366" y="146" type="curve" smooth="yes"/>
      <point x="366" y="92"/>
      <point x="327" y="49"/>
      <point x="261" y="49" type="curve" smooth="yes"/>
      <point x="188" y="49"/>
      <point x="117" y="112"/>
      <point x="117" y="225" type="curve" smooth="yes"/>
      <point x="117" y="402"/>
      <point x="295" y="505"/>
      <point x="496" y="505" type="curve" smooth="yes"/>
      <point x="705" y="505"/>
      <point x="859" y="394"/>
      <point x="859" y="211" type="curve" smooth="yes"/>
      <point x="859" y="120"/>
      <point x="816" y="49"/>
      <point x="746" y="49" type="curve" smooth="yes"/>
      <point x="690" y="49"/>
      <point x="663" y="88"/>
      <point x="663" y="139" type="curve" smooth="yes"/>
      <point x="663" y="177"/>
      <point x="678" y="221"/>
      <point x="708" y="260" type="curve"/>
      <point x="652" y="304" type="line"/>
      <point x="562" y="240"/>
      <point x="523" y="155"/>
      <point x="523" y="76" type="curve" smooth="yes"/>
      <point x="523" y="-7"/>
      <point x="566" y="-82"/>
      <point x="638" y="-115" type="curve"/>
      <point x="638" y="-120" type="line"/>
      <point x="500" y="-134"/>
      <point x="500" y="-282"/>
      <point x="338" y="-282" type="curve" smooth="yes"/>
      <point x="275" y="-282"/>
      <point x="248" y="-250"/>
      <point x="248" y="-205" type="curve" smooth="yes"/>
      <point x="248" y="-162"/>
      <point x="286" y="-139"/>
      <point x="323" y="-139" type="curve" smooth="yes"/>
      <point x="359" y="-139"/>
      <point x="394" y="-156"/>
      <point x="406" y="-190" type="curve"/>
      <point x="433" y="-178"/>
      <point x="454" y="-149"/>
      <point x="454" y="-125" type="curve" smooth="yes"/>
      <point x="454" y="-79"/>
      <point x="411" y="-57"/>
      <point x="361" y="-57" type="curve" smooth="yes"/>
      <point x="286" y="-57"/>
      <point x="189" y="-102"/>
      <point x="189" y="-201" type="curve" smooth="yes"/>
      <point x="189" y="-295"/>
      <point x="266" y="-348"/>
    </contour>
  </outline>
</glyph>
<glyph name="au-tamil" format="2">
  <advance width="2237"/>
  <unicode hex="0B94"/>
  <note>
uni0B94
</note>
  <anchor x="1134" y="0" name="bottom"/>
  <anchor x="1215" y="0" name="nukta"/>
  <anchor x="1127" y="554" name="top"/>
  <anchor x="1127" y="554" name="vedic"/>
  <outline>
    <contour>
      <point x="1254" y="-4" type="curve" smooth="yes"/>
      <point x="1362" y="-4"/>
      <point x="1435" y="60"/>
      <point x="1435" y="150" type="curve" smooth="yes"/>
      <point x="1435" y="242"/>
      <point x="1376" y="304"/>
      <point x="1282" y="304" type="curve" smooth="yes"/>
      <point x="1185" y="304"/>
      <point x="1103" y="229"/>
      <point x="1096" y="124" type="curve"/>
      <point x="1126" y="97" type="line"/>
      <point x="1132" y="185"/>
      <point x="1181" y="236"/>
      <point x="1245" y="236" type="curve" smooth="yes"/>
      <point x="1313" y="236"/>
      <point x="1342" y="191"/>
      <point x="1342" y="146" type="curve" smooth="yes"/>
      <point x="1342" y="92"/>
      <point x="1303" y="49"/>
      <point x="1237" y="49" type="curve" smooth="yes"/>
      <point x="1162" y="49"/>
      <point x="1093" y="115"/>
      <point x="1093" y="249" type="curve" smooth="yes"/>
      <point x="1093" y="415"/>
      <point x="1212" y="505"/>
      <point x="1359" y="505" type="curve" smooth="yes"/>
      <point x="1526" y="505"/>
      <point x="1625" y="420"/>
      <point x="1625" y="269" type="curve"/>
      <point x="1680" y="273" type="line"/>
      <point x="1675" y="455"/>
      <point x="1553" y="559"/>
      <point x="1359" y="559" type="curve" smooth="yes"/>
      <point x="1181" y="559"/>
      <point x="1034" y="454"/>
      <point x="1034" y="250" type="curve" smooth="yes"/>
      <point x="1034" y="83"/>
      <point x="1138" y="-4"/>
    </contour>
    <contour>
      <point x="1625" y="0" type="line"/>
      <point x="1719" y="0" type="line"/>
      <point x="1719" y="500" type="line"/>
      <point x="1947" y="500" type="line"/>
      <point x="1947" y="0" type="line"/>
      <point x="2042" y="0" type="line"/>
      <point x="2042" y="500" type="line"/>
      <point x="2218" y="500" type="line"/>
      <point x="2218" y="554" type="line"/>
      <point x="1629" y="554" type="line"/>
      <point x="1629" y="387" type="line"/>
      <point x="1625" y="382" type="line"/>
    </contour>
    <component base="o-tamil"/>
  </outline>
</glyph>
<glyph name="nga-tamil" format="2">
  <advance width="1024"/>
  <unicode hex="0B99"/>
  <note>
uni0B99
</note>
  <anchor x="512" y="0" name="bottom"/>
  <anchor x="578" y="554" name="imatra"/>
  <anchor x="512" y="0" name="nukta"/>
  <anchor x="512" y="554" name="top"/>
  <anchor x="512" y="554" name="vedic"/>
  <outline>
    <contour>
      <point x="98" y="0" type="line"/>
      <point x="159" y="0" type="line"/>
      <point x="159" y="500" type="line"/>
      <point x="336" y="500" type="line"/>
      <point x="336" y="196" type="line"/>
      <point x="431" y="196" type="line"/>
      <point x="431" y="223" type="line" smooth="yes"/>
      <point x="431" y="277"/>
      <point x="464" y="316"/>
      <point x="516" y="316" type="curve" smooth="yes"/>
      <point x="571" y="316"/>
      <point x="610" y="273"/>
      <point x="610" y="210" type="curve" smooth="yes"/>
      <point x="610" y="86"/>
      <point x="500" y="54"/>
      <point x="440" y="54" type="curve" smooth="yes"/>
      <point x="336" y="54" type="line"/>
      <point x="336" y="0" type="line"/>
      <point x="927" y="0" type="line"/>
      <point x="927" y="554" type="line"/>
      <point x="832" y="554" type="line"/>
      <point x="832" y="54" type="line"/>
      <point x="560" y="54" type="line"/>
      <point x="636" y="70"/>
      <point x="703" y="138"/>
      <point x="703" y="226" type="curve" smooth="yes"/>
      <point x="703" y="315"/>
      <point x="635" y="379"/>
      <point x="548" y="379" type="curve" smooth="yes"/>
      <point x="480" y="379"/>
      <point x="441" y="338"/>
      <point x="431" y="311" type="curve"/>
      <point x="431" y="500" type="line"/>
      <point x="606" y="500" type="line"/>
      <point x="606" y="554" type="line"/>
      <point x="98" y="554" type="line"/>
    </contour>
  </outline>
</glyph>
<glyph name="nya-tamil" format="2">
  <advance width="1304"/>
  <unicode hex="0B9E"/>
  <note>
uni0B9E
</note>
  <anchor x="687" y="0" name="bottom"/>
  <anchor x="1052" y="554" name="imatra"/>
  <anchor x="687" y="-348" name="nukta"/>
  <anchor x="678" y="554" name="top"/>
  <anchor x="654" y="554" name="vedic"/>
  <outline>
    <contour>
      <point x="687" y="-348" type="curve" smooth="yes"/>
      <point x="1001" y="-348"/>
      <point x="1246" y="-162"/>
      <point x="1246" y="118" type="curve" smooth="yes"/>
      <point x="1246" y="259"/>
      <point x="1167" y="345"/>
      <point x="1061" y="345" type="curve" smooth="yes"/>
      <point x="977" y="345"/>
      <point x="917" y="281"/>
      <point x="917" y="185" type="curve" smooth="yes"/>
      <point x="917" y="138" type="line"/>
      <point x="944" y="138" type="line"/>
      <point x="944" y="183" type="line" smooth="yes"/>
      <point x="944" y="236"/>
      <point x="975" y="286"/>
      <point x="1035" y="286" type="curve" smooth="yes"/>
      <point x="1105" y="286"/>
      <point x="1151" y="223"/>
      <point x="1151" y="111" type="curve" smooth="yes"/>
      <point x="1151" y="-144"/>
      <point x="951" y="-294"/>
      <point x="682" y="-294" type="curve" smooth="yes"/>
      <point x="380" y="-294"/>
      <point x="120" y="-98"/>
      <point x="120" y="229" type="curve" smooth="yes"/>
      <point x="120" y="417"/>
      <point x="192" y="544"/>
      <point x="333" y="625" type="curve"/>
      <point x="300" y="671" type="line"/>
      <point x="155" y="587"/>
      <point x="63" y="441"/>
      <point x="63" y="229" type="curve" smooth="yes"/>
      <point x="63" y="-62"/>
      <point x="274" y="-348"/>
    </contour>
    <component base="e-tamil" xOffset="211"/>
  </outline>
</glyph>
<glyph name="ta-tamil" format="2">
  <advance width="854"/>
  <unicode hex="0BA4"/>
  <note>
uni0BA4
</note>
  <anchor x="427" y="0" name="bottom"/>
  <anchor x="613" y="554" name="imatra"/>
  <anchor x="427" y="-140" name="nukta"/>
  <anchor x="447" y="554" name="top"/>
  <anchor x="429" y="554" name="vedic"/>
  <outline>
    <contour>
      <point x="159" y="-249" type="curve"/>
      <point x="159" y="-180"/>
      <point x="179" y="-140"/>
      <point x="273" y="-140" type="curve" smooth="yes"/>
      <point x="444" y="-140" type="line" smooth="yes"/>
      <point x="676" y="-140"/>
      <point x="795" y="-61"/>
      <point x="795" y="98" type="curve" smooth="yes"/>
      <point x="795" y="233"/>
      <point x="685" y="317"/>
      <point x="541" y="317" type="curve" smooth="yes"/>
      <point x="514" y="317" type="line"/>
      <point x="514" y="500" type="line"/>
      <point x="689" y="500" type="line"/>
      <point x="689" y="554" type="line"/>
      <point x="195" y="554" type="line"/>
      <point x="195" y="286" type="line"/>
      <point x="256" y="286" type="line"/>
      <point x="256" y="500" type="line"/>
      <point x="419" y="500" type="line"/>
      <point x="419" y="317" type="line"/>
      <point x="251" y="317" type="line" smooth="yes"/>
      <point x="136" y="317"/>
      <point x="63" y="256"/>
      <point x="63" y="162" type="curve" smooth="yes"/>
      <point x="63" y="59"/>
      <point x="159" y="-4"/>
      <point x="278" y="-4" type="curve" smooth="yes"/>
      <point x="427" y="-4"/>
      <point x="514" y="80"/>
      <point x="514" y="200" type="curve" smooth="yes"/>
      <point x="514" y="263" type="line"/>
      <point x="541" y="263" type="line" smooth="yes"/>
      <point x="639" y="263"/>
      <point x="702" y="194"/>
      <point x="702" y="101" type="curve" smooth="yes"/>
      <point x="702" y="-9"/>
      <point x="629" y="-91"/>
      <point x="417" y="-91" type="curve" smooth="yes"/>
      <point x="238" y="-91" type="line" smooth="yes"/>
      <point x="150" y="-91"/>
      <point x="70" y="-108"/>
      <point x="70" y="-179" type="curve" smooth="yes"/>
      <point x="70" y="-228"/>
      <point x="101" y="-249"/>
    </contour>
    <contour>
      <point x="270" y="49" type="curve" smooth="yes"/>
      <point x="189" y="49"/>
      <point x="125" y="84"/>
      <point x="125" y="160" type="curve" smooth="yes"/>
      <point x="125" y="223"/>
      <point x="173" y="263"/>
      <point x="259" y="263" type="curve" smooth="yes"/>
      <point x="419" y="263" type="line"/>
      <point x="419" y="189" type="line" smooth="yes"/>
      <point x="419" y="90"/>
      <point x="351" y="49"/>
    </contour>
  </outline>
</glyph>
<glyph name="na-tamil" format="2">
  <advance width="826"/>
  <unicode hex="0BA8"/>
  <note>
uni0BA8
</note>
  <anchor x="421" y="0" name="bottom"/>
  <anchor x="579" y="554" name="imatra"/>
  <anchor x="413" y="-181" name="nukta"/>
  <anchor x="422" y="554" name="top"/>
  <anchor x="433" y="554" name="vedic"/>
  <outline>
    <contour>
      <point x="187" y="-249" type="curve"/>
      <point x="187" y="-180"/>
      <point x="207" y="-140"/>
      <point x="300" y="-140" type="curve" smooth="yes"/>
      <point x="401" y="-140" type="line" smooth="yes"/>
      <point x="603" y="-140"/>
      <point x="768" y="-62"/>
      <point x="768" y="143" type="curve" smooth="yes"/>
      <point x="768" y="275"/>
      <point x="689" y="345"/>
      <point x="589" y="345" type="curve" smooth="yes"/>
      <point x="517" y="345"/>
      <point x="478" y="302"/>
      <point x="469" y="272" type="curve"/>
      <point x="469" y="500" type="line"/>
      <point x="650" y="500" type="line"/>
      <point x="650" y="554" type="line"/>
      <point x="123" y="554" type="line"/>
      <point x="123" y="0" type="line"/>
      <point x="184" y="0" type="line"/>
      <point x="184" y="500" type="line"/>
      <point x="375" y="500" type="line"/>
      <point x="375" y="0" type="line"/>
      <point x="469" y="0" type="line"/>
      <point x="469" y="183" type="line" smooth="yes"/>
      <point x="469" y="236"/>
      <point x="503" y="286"/>
      <point x="563" y="286" type="curve" smooth="yes"/>
      <point x="627" y="286"/>
      <point x="672" y="239"/>
      <point x="672" y="132" type="curve" smooth="yes"/>
      <point x="672" y="-30"/>
      <point x="579" y="-91"/>
      <point x="374" y="-91" type="curve" smooth="yes"/>
      <point x="266" y="-91" type="line" smooth="yes"/>
      <point x="178" y="-91"/>
      <point x="98" y="-108"/>
      <point x="98" y="-179" type="curve" smooth="yes"/>
      <point x="98" y="-225"/>
      <point x="129" y="-249"/>
    </contour>
  </outline>
</glyph>
<glyph name="nnna-tamil" format="2">
  <advance width="1337"/>
  <unicode hex="0BA9"/>
  <note>
uni0BA9
</note>
  <anchor x="668" y="0" name="bottom"/>
  <anchor x="1174" y="554" name="imatra"/>
  <anchor x="668" y="0" name="nukta"/>
  <anchor x="693" y="554" name="top"/>
  <anchor x="688" y="554" name="vedic"/>
  <outline>
    <contour>
      <point x="279" y="-4" type="curve" smooth="yes"/>
      <point x="387" y="-4"/>
      <point x="459" y="60"/>
      <point x="459" y="150" type="curve" smooth="yes"/>
      <point x="459" y="242"/>
      <point x="401" y="304"/>
      <point x="307" y="304" type="curve" smooth="yes"/>
      <point x="210" y="304"/>
      <point x="128" y="229"/>
      <point x="121" y="124" type="curve"/>
      <point x="151" y="97" type="line"/>
      <point x="157" y="185"/>
      <point x="206" y="236"/>
      <point x="270" y="236" type="curve" smooth="yes"/>
      <point x="338" y="236"/>
      <point x="367" y="191"/>
      <point x="367" y="146" type="curve" smooth="yes"/>
      <point x="367" y="92"/>
      <point x="328" y="49"/>
      <point x="262" y="49" type="curve" smooth="yes"/>
      <point x="190" y="49"/>
      <point x="117" y="109"/>
      <point x="117" y="231" type="curve" smooth="yes"/>
      <point x="117" y="407"/>
      <point x="269" y="505"/>
      <point x="448" y="505" type="curve" smooth="yes"/>
      <point x="664" y="505"/>
      <point x="803" y="399"/>
      <point x="803" y="195" type="curve" smooth="yes"/>
      <point x="803" y="113"/>
      <point x="771" y="49"/>
      <point x="698" y="49" type="curve" smooth="yes"/>
      <point x="627" y="49"/>
      <point x="596" y="108"/>
      <point x="596" y="193" type="curve" smooth="yes"/>
      <point x="596" y="375"/>
      <point x="736" y="500"/>
      <point x="947" y="500" type="curve" smooth="yes"/>
      <point x="1318" y="500" type="line"/>
      <point x="1318" y="554" type="line"/>
      <point x="960" y="554" type="line" smooth="yes"/>
      <point x="718" y="554"/>
      <point x="540" y="411"/>
      <point x="540" y="197" type="curve" smooth="yes"/>
      <point x="540" y="77"/>
      <point x="602" y="-5"/>
      <point x="716" y="-5" type="curve" smooth="yes"/>
      <point x="828" y="-5"/>
      <point x="901" y="77"/>
      <point x="901" y="194" type="curve" smooth="yes"/>
      <point x="901" y="412"/>
      <point x="700" y="559"/>
      <point x="462" y="559" type="curve" smooth="yes"/>
      <point x="250" y="559"/>
      <point x="59" y="445"/>
      <point x="59" y="234" type="curve" smooth="yes"/>
      <point x="59" y="77"/>
      <point x="167" y="-4"/>
    </contour>
    <contour>
      <point x="1047" y="0" type="line"/>
      <point x="1142" y="0" type="line"/>
      <point x="1142" y="529" type="line"/>
      <point x="1047" y="529" type="line"/>
    </contour>
  </outline>
</glyph>
<glyph name="pa-tamil" format="2">
  <advance width="898"/>
  <unicode hex="0BAA"/>
  <note>
uni0BAA
</note>
  <anchor x="449" y="0" name="bottom"/>
  <anchor x="791" y="554" name="imatra"/>
  <anchor x="449" y="0" name="nukta"/>
  <anchor x="449" y="554" name="top"/>
  <anchor x="449" y="554" name="vedic"/>
  <outline>
    <contour>
      <point x="98" y="0" type="line"/>
      <point x="801" y="0" type="line"/>
      <point x="801" y="554" type="line"/>
      <point x="706" y="554" type="line"/>
      <point x="706" y="54" type="line"/>
      <point x="192" y="54" type="line"/>
      <point x="192" y="554" type="line"/>
      <point x="98" y="554" type="line"/>
    </contour>
  </outline>
</glyph>
<glyph name="ma-tamil" format="2">
  <advance width="924"/>
  <unicode hex="0BAE"/>
  <note>
uni0BAE
</note>
  <anchor x="461" y="0" name="bottom"/>
  <anchor x="791" y="554" name="imatra"/>
  <anchor x="462" y="0" name="nukta"/>
  <anchor x="498" y="554" name="top"/>
  <anchor x="479" y="554" name="vedic"/>
  <outline>
    <contour>
      <point x="98" y="0" type="line"/>
      <point x="690" y="0" type="line" smooth="yes"/>
      <point x="822" y="0"/>
      <point x="860" y="90"/>
      <point x="860" y="244" type="curve" smooth="yes"/>
      <point x="860" y="446"/>
      <point x="758" y="559"/>
      <point x="631" y="559" type="curve" smooth="yes"/>
      <point x="528" y="559"/>
      <point x="450" y="497"/>
      <point x="450" y="381" type="curve" smooth="yes"/>
      <point x="450" y="54" type="line"/>
      <point x="192" y="54" type="line"/>
      <point x="192" y="554" type="line"/>
      <point x="98" y="554" type="line"/>
    </contour>
    <contour>
      <point x="545" y="54" type="line"/>
      <point x="545" y="382" type="line" smooth="yes"/>
      <point x="545" y="466"/>
      <point x="588" y="500"/>
      <point x="646" y="500" type="curve" smooth="yes"/>
      <point x="715" y="500"/>
      <point x="799" y="420"/>
      <point x="799" y="242" type="curve" smooth="yes"/>
      <point x="799" y="133"/>
      <point x="790" y="54"/>
      <point x="681" y="54" type="curve" smooth="yes"/>
    </contour>
  </outline>
</glyph>
<glyph name="ra-tamil" format="2">
  <advance width="658"/>
  <unicode hex="0BB0"/>
  <note>
uni0BB0
</note>
  <anchor x="329" y="0" name="bottom"/>
  <anchor x="574" y="554" name="imatra"/>
  <anchor x="329" y="-199" name="nukta"/>
  <anchor x="361" y="554" name="top"/>
  <anchor x="368" y="554" name="vedic"/>
  <outline>
    <contour>
      <point x="227" y="-240" type="line"/>
      <point x="463" y="14" type="line"/>
      <point x="463" y="500" type="line"/>
      <point x="639" y="500" type="line"/>
      <point x="639" y="554" type="line"/>
      <point x="98" y="554" type="line"/>
      <point x="98" y="0" type="line"/>
      <point x="159" y="0" type="line"/>
      <point x="159" y="500" type="line"/>
      <point x="369" y="500" type="line"/>
      <point x="369" y="-2" type="line"/>
      <point x="185" y="-199" type="line"/>
    </contour>
  </outline>
</glyph>
<glyph name="rra-tamil" format="2">
  <advance width="883"/>
  <unicode hex="0BB1"/>
  <note>
uni0BB1
</note>
  <anchor x="458" y="0" name="bottom"/>
  <anchor x="441" y="-199" name="nukta"/>
  <anchor x="420" y="554" name="top"/>
  <anchor x="456" y="554" name="vedic"/>
  <outline>
    <contour>
      <point x="182" y="-249" type="curve"/>
      <point x="182" y="-181"/>
      <point x="202" y="-142"/>
      <point x="295" y="-142" type="curve" smooth="yes"/>
      <point x="425" y="-142" type="line" smooth="yes"/>
      <point x="649" y="-142"/>
      <point x="820" y="-28"/>
      <point x="820" y="239" type="curve" smooth="yes"/>
      <point x="820" y="384"/>
      <point x="774" y="559"/>
      <point x="573" y="559" type="curve" smooth="yes"/>
      <point x="481" y="559"/>
      <point x="428" y="507"/>
      <point x="409" y="471" type="curve"/>
      <point x="396" y="500"/>
      <point x="357" y="558"/>
      <point x="269" y="558" type="curve" smooth="yes"/>
      <point x="185" y="558"/>
      <point x="118" y="504"/>
      <point x="118" y="403" type="curve" smooth="yes"/>
      <point x="118" y="0" type="line"/>
      <point x="179" y="0" type="line"/>
      <point x="179" y="403" type="line" smooth="yes"/>
      <point x="179" y="469"/>
      <point x="218" y="504"/>
      <point x="267" y="504" type="curve" smooth="yes"/>
      <point x="328" y="504"/>
      <point x="358" y="458"/>
      <point x="358" y="390" type="curve" smooth="yes"/>
      <point x="358" y="0" type="line"/>
      <point x="453" y="0" type="line"/>
      <point x="453" y="389" type="line" smooth="yes"/>
      <point x="453" y="462"/>
      <point x="507" y="505"/>
      <point x="572" y="505" type="curve" smooth="yes"/>
      <point x="655" y="505"/>
      <point x="722" y="450"/>
      <point x="722" y="244" type="curve" smooth="yes"/>
      <point x="722" y="6"/>
      <point x="597" y="-88"/>
      <point x="417" y="-88" type="curve" smooth="yes"/>
      <point x="261" y="-88" type="line" smooth="yes"/>
      <point x="173" y="-88"/>
      <point x="93" y="-106"/>
      <point x="93" y="-179" type="curve" smooth="yes"/>
      <point x="93" y="-228"/>
      <point x="130" y="-249"/>
    </contour>
  </outline>
</glyph>
<glyph name="la-tamil" format="2">
  <advance width="1054"/>
  <unicode hex="0BB2"/>
  <note>
uni0BB2
</note>
  <anchor x="527" y="0" name="bottom"/>
  <anchor x="527" y="0" name="nukta"/>
  <anchor x="550" y="554" name="top"/>
  <anchor x="524" y="554" name="vedic"/>
  <outline>
    <contour>
      <point x="279" y="-4" type="curve" smooth="yes"/>
      <point x="387" y="-4"/>
      <point x="459" y="60"/>
      <point x="459" y="150" type="curve" smooth="yes"/>
      <point x="459" y="242"/>
      <point x="401" y="304"/>
      <point x="307" y="304" type="curve" smooth="yes"/>
      <point x="210" y="304"/>
      <point x="128" y="229"/>
      <point x="121" y="124" type="curve"/>
      <point x="151" y="97" type="line"/>
      <point x="157" y="185"/>
      <point x="206" y="236"/>
      <point x="270" y="236" type="curve" smooth="yes"/>
      <point x="338" y="236"/>
      <point x="367" y="191"/>
      <point x="367" y="146" type="curve" smooth="yes"/>
      <point x="367" y="92"/>
      <point x="328" y="49"/>
      <point x="262" y="49" type="curve" smooth="yes"/>
      <point x="190" y="49"/>
      <point x="117" y="109"/>
      <point x="117" y="231" type="curve" smooth="yes"/>
      <point x="117" y="403"/>
      <point x="220" y="505"/>
      <point x="374" y="505" type="curve" smooth="yes"/>
      <point x="499" y="505"/>
      <point x="578" y="430"/>
      <point x="578" y="320" type="curve" smooth="yes"/>
      <point x="578" y="173" type="line" smooth="yes"/>
      <point x="578" y="58"/>
      <point x="661" y="0"/>
      <point x="759" y="0" type="curve" smooth="yes"/>
      <point x="902" y="0"/>
      <point x="991" y="131"/>
      <point x="991" y="279" type="curve" smooth="yes"/>
      <point x="991" y="375"/>
      <point x="964" y="477"/>
      <point x="878" y="559" type="curve"/>
      <point x="841" y="522" type="line"/>
      <point x="913" y="457"/>
      <point x="937" y="370"/>
      <point x="937" y="289" type="curve" smooth="yes"/>
      <point x="937" y="163"/>
      <point x="870" y="59"/>
      <point x="770" y="59" type="curve" smooth="yes"/>
      <point x="703" y="59"/>
      <point x="673" y="94"/>
      <point x="673" y="172" type="curve" smooth="yes"/>
      <point x="673" y="318" type="line" smooth="yes"/>
      <point x="673" y="462"/>
      <point x="548" y="559"/>
      <point x="383" y="559" type="curve" smooth="yes"/>
      <point x="196" y="559"/>
      <point x="59" y="440"/>
      <point x="59" y="234" type="curve" smooth="yes"/>
      <point x="59" y="77"/>
      <point x="167" y="-4"/>
    </contour>
  </outline>
</glyph>
<glyph name="sha-tamil" format="2">
  <advance width="1138"/>
  <unicode hex="0BB6"/>
  <note>
uni0BB6
</note>
  <anchor x="576" y="0" name="bottom"/>
  <anchor x="872" y="554" name="imatra"/>
  <anchor x="576" y="0" name="nukta"/>
  <anchor x="579" y="554" name="top"/>
  <anchor x="583" y="554" name="vedic"/>
  <outline>
    <contour>
      <point x="303" y="-5" type="curve" smooth="yes"/>
      <point x="415" y="-5"/>
      <point x="503" y="47"/>
      <point x="503" y="210" type="curve" smooth="yes"/>
      <point x="503" y="500" type="line"/>
      <point x="649" y="500" type="line"/>
      <point x="649" y="163" type="line" smooth="yes"/>
      <point x="649" y="52"/>
      <point x="727" y="-5"/>
      <point x="825" y="-5" type="curve" smooth="yes"/>
      <point x="952" y="-5"/>
      <point x="1074" y="122"/>
      <point x="1074" y="324" type="curve" smooth="yes"/>
      <point x="1074" y="474"/>
      <point x="1031" y="554"/>
      <point x="899" y="554" type="curve" smooth="yes"/>
      <point x="444" y="554" type="line"/>
      <point x="444" y="210" type="line" smooth="yes"/>
      <point x="444" y="76"/>
      <point x="383" y="54"/>
      <point x="313" y="54" type="curve" smooth="yes"/>
      <point x="246" y="54"/>
      <point x="188" y="87"/>
      <point x="188" y="196" type="curve" smooth="yes"/>
      <point x="188" y="554" type="line"/>
      <point x="93" y="554" type="line"/>
      <point x="93" y="195" type="line" smooth="yes"/>
      <point x="93" y="50"/>
      <point x="190" y="-5"/>
    </contour>
    <contour>
      <point x="836" y="54" type="curve" smooth="yes"/>
      <point x="785" y="54"/>
      <point x="744" y="83"/>
      <point x="744" y="162" type="curve" smooth="yes"/>
      <point x="744" y="500" type="line"/>
      <point x="890" y="500" type="line" smooth="yes"/>
      <point x="999" y="500"/>
      <point x="1013" y="430"/>
      <point x="1013" y="326" type="curve" smooth="yes"/>
      <point x="1013" y="144"/>
      <point x="912" y="54"/>
    </contour>
  </outline>
</glyph>
<glyph name="ssa-tamil" format="2">
  <advance width="1437"/>
  <unicode hex="0BB7"/>
  <note>
uni0BB7
</note>
  <anchor x="731" y="0" name="bottom"/>
  <anchor x="675" y="0" name="nukta"/>
  <anchor x="751" y="554" name="top"/>
  <anchor x="716" y="554" name="vedic"/>
  <outline>
    <contour>
      <point x="279" y="-4" type="curve" smooth="yes"/>
      <point x="387" y="-4"/>
      <point x="459" y="60"/>
      <point x="459" y="150" type="curve" smooth="yes"/>
      <point x="459" y="242"/>
      <point x="401" y="304"/>
      <point x="307" y="304" type="curve" smooth="yes"/>
      <point x="210" y="304"/>
      <point x="128" y="229"/>
      <point x="121" y="124" type="curve"/>
      <point x="151" y="97" type="line"/>
      <point x="157" y="185"/>
      <point x="206" y="236"/>
      <point x="270" y="236" type="curve" smooth="yes"/>
      <point x="338" y="236"/>
      <point x="367" y="191"/>
      <point x="367" y="146" type="curve" smooth="yes"/>
      <point x="367" y="92"/>
      <point x="328" y="49"/>
      <point x="262" y="49" type="curve" smooth="yes"/>
      <point x="190" y="49"/>
      <point x="117" y="109"/>
      <point x="117" y="231" type="curve" smooth="yes"/>
      <point x="117" y="403"/>
      <point x="232" y="505"/>
      <point x="404" y="505" type="curve" smooth="yes"/>
      <point x="553" y="505"/>
      <point x="668" y="402"/>
      <point x="668" y="257" type="curve" smooth="yes"/>
      <point x="668" y="150"/>
      <point x="629" y="83"/>
      <point x="587" y="43" type="curve"/>
      <point x="605" y="0" type="line"/>
      <point x="1374" y="0" type="line"/>
      <point x="1374" y="345" type="line"/>
      <point x="1278" y="294" type="line"/>
      <point x="1278" y="54" type="line"/>
      <point x="676" y="54" type="line"/>
      <point x="719" y="97"/>
      <point x="764" y="164"/>
      <point x="764" y="261" type="curve" smooth="yes"/>
      <point x="764" y="441"/>
      <point x="609" y="559"/>
      <point x="417" y="559" type="curve" smooth="yes"/>
      <point x="211" y="559"/>
      <point x="59" y="440"/>
      <point x="59" y="234" type="curve" smooth="yes"/>
      <point x="59" y="77"/>
      <point x="167" y="-4"/>
    </contour>
    <contour>
      <point x="1038" y="-296" type="line"/>
      <point x="1133" y="-296" type="line"/>
      <point x="1133" y="432" type="line" smooth="yes"/>
      <point x="1133" y="503"/>
      <point x="1079" y="559"/>
      <point x="998" y="559" type="curve" smooth="yes"/>
      <point x="900" y="559"/>
      <point x="848" y="503"/>
      <point x="848" y="415" type="curve" smooth="yes"/>
      <point x="848" y="287"/>
      <point x="946" y="218"/>
      <point x="1077" y="218" type="curve" smooth="yes"/>
      <point x="1173" y="218"/>
      <point x="1267" y="230"/>
      <point x="1374" y="340" type="curve"/>
      <point x="1374" y="351" type="line"/>
      <point x="1333" y="378" type="line"/>
      <point x="1255" y="300"/>
      <point x="1182" y="271"/>
      <point x="1075" y="271" type="curve" smooth="yes"/>
      <point x="974" y="271"/>
      <point x="903" y="307"/>
      <point x="903" y="414" type="curve" smooth="yes"/>
      <point x="903" y="467"/>
      <point x="929" y="505"/>
      <point x="978" y="505" type="curve" smooth="yes"/>
      <point x="1015" y="505"/>
      <point x="1038" y="484"/>
      <point x="1038" y="445" type="curve" smooth="yes"/>
    </contour>
  </outline>
</glyph>
<glyph name="sa-tamil" format="2">
  <advance width="1420"/>
  <unicode hex="0BB8"/>
  <note>
uni0BB8
</note>
  <anchor x="713" y="0" name="bottom"/>
  <anchor x="713" y="0" name="nukta"/>
  <anchor x="694" y="554" name="top"/>
  <anchor x="710" y="554" name="vedic"/>
  <outline>
    <contour>
      <point x="654" y="0" type="line"/>
      <point x="749" y="0" type="line"/>
      <point x="749" y="404" type="line" smooth="yes"/>
      <point x="749" y="463"/>
      <point x="780" y="504"/>
      <point x="845" y="504" type="curve" smooth="yes"/>
      <point x="901" y="504"/>
      <point x="934" y="471"/>
      <point x="934" y="417" type="curve" smooth="yes"/>
      <point x="934" y="178" type="line" smooth="yes"/>
      <point x="934" y="63"/>
      <point x="1017" y="0"/>
      <point x="1115" y="0" type="curve" smooth="yes"/>
      <point x="1269" y="0"/>
      <point x="1357" y="131"/>
      <point x="1357" y="279" type="curve" smooth="yes"/>
      <point x="1357" y="375"/>
      <point x="1325" y="478"/>
      <point x="1237" y="559" type="curve"/>
      <point x="1195" y="519" type="line"/>
      <point x="1270" y="450"/>
      <point x="1293" y="370"/>
      <point x="1293" y="289" type="curve" smooth="yes"/>
      <point x="1293" y="163"/>
      <point x="1226" y="59"/>
      <point x="1125" y="59" type="curve" smooth="yes"/>
      <point x="1077" y="59"/>
      <point x="1029" y="94"/>
      <point x="1029" y="177" type="curve" smooth="yes"/>
      <point x="1029" y="401" type="line" smooth="yes"/>
      <point x="1029" y="498"/>
      <point x="956" y="559"/>
      <point x="859" y="559" type="curve" smooth="yes"/>
      <point x="751" y="559"/>
      <point x="698" y="489"/>
      <point x="698" y="410" type="curve" smooth="yes"/>
      <point x="698" y="330" type="line"/>
      <point x="654" y="330" type="line"/>
    </contour>
    <contour>
      <point x="283" y="-4" type="curve" smooth="yes"/>
      <point x="392" y="-4"/>
      <point x="464" y="60"/>
      <point x="464" y="150" type="curve" smooth="yes"/>
      <point x="464" y="242"/>
      <point x="406" y="304"/>
      <point x="312" y="304" type="curve" smooth="yes"/>
      <point x="214" y="304"/>
      <point x="132" y="229"/>
      <point x="125" y="124" type="curve"/>
      <point x="155" y="97" type="line"/>
      <point x="161" y="185"/>
      <point x="210" y="236"/>
      <point x="274" y="236" type="curve" smooth="yes"/>
      <point x="342" y="236"/>
      <point x="371" y="191"/>
      <point x="371" y="146" type="curve" smooth="yes"/>
      <point x="371" y="92"/>
      <point x="332" y="49"/>
      <point x="266" y="49" type="curve" smooth="yes"/>
      <point x="191" y="49"/>
      <point x="122" y="115"/>
      <point x="122" y="249" type="curve" smooth="yes"/>
      <point x="122" y="409"/>
      <point x="237" y="505"/>
      <point x="400" y="505" type="curve" smooth="yes"/>
      <point x="529" y="505"/>
      <point x="654" y="436"/>
      <point x="654" y="288" type="curve"/>
      <point x="714" y="293" type="line"/>
      <point x="709" y="470"/>
      <point x="561" y="559"/>
      <point x="400" y="559" type="curve" smooth="yes"/>
      <point x="203" y="559"/>
      <point x="63" y="445"/>
      <point x="63" y="250" type="curve" smooth="yes"/>
      <point x="63" y="83"/>
      <point x="167" y="-4"/>
    </contour>
  </outline>
</glyph>
<glyph name="ha-tamil" format="2">
  <advance width="1663"/>
  <unicode hex="0BB9"/>
  <note>
uni0BB9
</note>
  <anchor x="832" y="0" name="bottom"/>
  <anchor x="832" y="-152" name="nukta"/>
  <anchor x="848" y="554" name="top"/>
  <anchor x="829" y="554" name="vedic"/>
  <outline>
    <contour>
      <point x="221" y="-258" type="curve"/>
      <point x="221" y="-191"/>
      <point x="241" y="-152"/>
      <point x="334" y="-152" type="curve" smooth="yes"/>
      <point x="1094" y="-152" type="line" smooth="yes"/>
      <point x="1407" y="-152"/>
      <point x="1600" y="-50"/>
      <point x="1600" y="231" type="curve" smooth="yes"/>
      <point x="1600" y="389"/>
      <point x="1544" y="559"/>
      <point x="1355" y="559" type="curve" smooth="yes"/>
      <point x="1264" y="559"/>
      <point x="1200" y="507"/>
      <point x="1181" y="471" type="curve"/>
      <point x="1168" y="505"/>
      <point x="1129" y="558"/>
      <point x="1047" y="558" type="curve" smooth="yes"/>
      <point x="964" y="558"/>
      <point x="894" y="504"/>
      <point x="894" y="403" type="curve" smooth="yes"/>
      <point x="894" y="54" type="line"/>
      <point x="676" y="54" type="line"/>
      <point x="719" y="97"/>
      <point x="764" y="164"/>
      <point x="764" y="261" type="curve" smooth="yes"/>
      <point x="764" y="441"/>
      <point x="609" y="559"/>
      <point x="417" y="559" type="curve" smooth="yes"/>
      <point x="211" y="559"/>
      <point x="59" y="440"/>
      <point x="59" y="234" type="curve" smooth="yes"/>
      <point x="59" y="77"/>
      <point x="167" y="-4"/>
      <point x="279" y="-4" type="curve" smooth="yes"/>
      <point x="387" y="-4"/>
      <point x="459" y="60"/>
      <point x="459" y="150" type="curve" smooth="yes"/>
      <point x="459" y="242"/>
      <point x="401" y="304"/>
      <point x="307" y="304" type="curve" smooth="yes"/>
      <point x="210" y="304"/>
      <point x="128" y="229"/>
      <point x="121" y="124" type="curve"/>
      <point x="151" y="97" type="line"/>
      <point x="157" y="185"/>
      <point x="206" y="236"/>
      <point x="270" y="236" type="curve" smooth="yes"/>
      <point x="338" y="236"/>
      <point x="367" y="191"/>
      <point x="367" y="146" type="curve" smooth="yes"/>
      <point x="367" y="92"/>
      <point x="328" y="49"/>
      <point x="262" y="49" type="curve" smooth="yes"/>
      <point x="190" y="49"/>
      <point x="117" y="109"/>
      <point x="117" y="231" type="curve" smooth="yes"/>
      <point x="117" y="403"/>
      <point x="232" y="505"/>
      <point x="404" y="505" type="curve" smooth="yes"/>
      <point x="553" y="505"/>
      <point x="668" y="402"/>
      <point x="668" y="257" type="curve" smooth="yes"/>
      <point x="668" y="150"/>
      <point x="629" y="83"/>
      <point x="587" y="43" type="curve"/>
      <point x="605" y="0" type="line"/>
      <point x="955" y="0" type="line"/>
      <point x="955" y="403" type="line" smooth="yes"/>
      <point x="955" y="469"/>
      <point x="992" y="504"/>
      <point x="1046" y="504" type="curve" smooth="yes"/>
      <point x="1107" y="504"/>
      <point x="1140" y="458"/>
      <point x="1140" y="390" type="curve" smooth="yes"/>
      <point x="1140" y="0" type="line"/>
      <point x="1235" y="0" type="line"/>
      <point x="1235" y="389" type="line" smooth="yes"/>
      <point x="1235" y="462"/>
      <point x="1290" y="505"/>
      <point x="1354" y="505" type="curve" smooth="yes"/>
      <point x="1430" y="505"/>
      <point x="1504" y="448"/>
      <point x="1504" y="242" type="curve" smooth="yes"/>
      <point x="1504" y="-21"/>
      <point x="1367" y="-98"/>
      <point x="1078" y="-98" type="curve" smooth="yes"/>
      <point x="300" y="-98" type="line" smooth="yes"/>
      <point x="212" y="-98"/>
      <point x="132" y="-116"/>
      <point x="132" y="-188" type="curve" smooth="yes"/>
      <point x="132" y="-237"/>
      <point x="163" y="-258"/>
    </contour>
  </outline>
</glyph>
<glyph name="aaMatra-tamil" format="2">
  <advance width="676"/>
  <unicode hex="0BBE"/>
  <note>
uni0BBE
</note>
  <anchor x="373" y="0" name="bottom"/>
  <anchor x="372" y="0" name="nukta"/>
  <anchor x="366" y="554" name="top"/>
  <anchor x="366" y="554" name="vedic"/>
  <outline>
    <contour>
      <point x="98" y="0" type="line"/>
      <point x="159" y="0" type="line"/>
      <point x="159" y="500" type="line"/>
      <point x="387" y="500" type="line"/>
      <point x="387" y="0" type="line"/>
      <point x="481" y="0" type="line"/>
      <point x="481" y="500" type="line"/>
      <point x="657" y="500" type="line"/>
      <point x="657" y="554" type="line"/>
      <point x="98" y="554" type="line"/>
    </contour>
  </outline>
</glyph>
<glyph name="iMatra-tamil" format="2">
  <advance width="232"/>
  <unicode hex="0BBF"/>
  <note>
uni0BBF
</note>
  <outline>
    <contour>
      <point x="73" y="0" type="line"/>
      <point x="134" y="0" type="line"/>
      <point x="134" y="570" type="line" smooth="yes"/>
      <point x="134" y="736"/>
      <point x="43" y="834"/>
      <point x="-110" y="834" type="curve" smooth="yes"/>
      <point x="-232" y="834"/>
      <point x="-326" y="760"/>
      <point x="-326" y="652" type="curve" smooth="yes"/>
      <point x="-326" y="563"/>
      <point x="-258" y="500"/>
      <point x="-176" y="500" type="curve" smooth="yes"/>
      <point x="-171" y="500" type="line"/>
      <point x="-171" y="554" type="line"/>
      <point x="-176" y="554" type="line" smooth="yes"/>
      <point x="-226" y="554"/>
      <point x="-261" y="587"/>
      <point x="-261" y="639" type="curve" smooth="yes"/>
      <point x="-261" y="709"/>
      <point x="-200" y="746"/>
      <point x="-117" y="746" type="curve" smooth="yes"/>
      <point x="11" y="746"/>
      <point x="73" y="678"/>
      <point x="73" y="540" type="curve" smooth="yes"/>
    </contour>
  </outline>
</glyph>
<glyph name="iiMatra-tamil" format="2">
  <unicode hex="0BC0"/>
  <note>
uni0BC0
</note>
  <anchor x="0" y="554" name="_imatra"/>
  <outline>
    <contour>
      <point x="-24" y="505" type="curve" smooth="yes"/>
      <point x="0" y="505" type="line"/>
      <point x="0" y="554" type="line"/>
      <point x="-24" y="554" type="line" smooth="yes"/>
      <point x="-96" y="554"/>
      <point x="-158" y="604"/>
      <point x="-158" y="684" type="curve" smooth="yes"/>
      <point x="-158" y="770"/>
      <point x="-102" y="828"/>
      <point x="8" y="828" type="curve" smooth="yes"/>
      <point x="83" y="828"/>
      <point x="134" y="792"/>
      <point x="134" y="730" type="curve" smooth="yes"/>
      <point x="134" y="687"/>
      <point x="101" y="656"/>
      <point x="56" y="656" type="curve" smooth="yes"/>
      <point x="-6" y="656"/>
      <point x="-37" y="698"/>
      <point x="-37" y="754" type="curve" smooth="yes"/>
      <point x="-37" y="784"/>
      <point x="-28" y="818"/>
      <point x="-10" y="851" type="curve"/>
      <point x="-53" y="855" type="line"/>
      <point x="-76" y="816"/>
      <point x="-86" y="778"/>
      <point x="-86" y="743" type="curve" smooth="yes"/>
      <point x="-86" y="663"/>
      <point x="-31" y="602"/>
      <point x="70" y="602" type="curve" smooth="yes"/>
      <point x="156" y="602"/>
      <point x="217" y="656"/>
      <point x="217" y="725" type="curve" smooth="yes"/>
      <point x="217" y="818"/>
      <point x="138" y="882"/>
      <point x="12" y="882" type="curve" smooth="yes"/>
      <point x="-124" y="882"/>
      <point x="-216" y="800"/>
      <point x="-216" y="685" type="curve" smooth="yes"/>
      <point x="-216" y="576"/>
      <point x="-127" y="505"/>
    </contour>
  </outline>
</glyph>
<glyph name="uMatra-tamil" format="2">
  <advance width="554"/>
  <unicode hex="0BC1"/>
  <note>
uni0BC1
</note>
  <anchor x="239" y="554" name="top"/>
  <outline>
    <contour>
      <point x="344" y="214" type="curve" smooth="yes"/>
      <point x="452" y="214"/>
      <point x="535" y="276"/>
      <point x="535" y="383" type="curve" smooth="yes"/>
      <point x="535" y="554" type="line"/>
      <point x="-264" y="554" type="line"/>
      <point x="-215" y="500" type="line"/>
      <point x="440" y="500" type="line"/>
      <point x="440" y="374" type="line" smooth="yes"/>
      <point x="440" y="313"/>
      <point x="397" y="268"/>
      <point x="336" y="268" type="curve" smooth="yes"/>
      <point x="266" y="268"/>
      <point x="229" y="309"/>
      <point x="229" y="383" type="curve" smooth="yes"/>
      <point x="229" y="523" type="line"/>
      <point x="168" y="523" type="line"/>
      <point x="168" y="388" type="line" smooth="yes"/>
      <point x="168" y="278"/>
      <point x="236" y="214"/>
    </contour>
  </outline>
</glyph>
<glyph name="eMatra-tamil" format="2">
  <advance width="878"/>
  <unicode hex="0BC6"/>
  <note>
uni0BC6
</note>
  <outline>
    <contour>
      <point x="352" y="-4" type="curve" smooth="yes"/>
      <point x="460" y="-4"/>
      <point x="532" y="60"/>
      <point x="532" y="150" type="curve" smooth="yes"/>
      <point x="532" y="247"/>
      <point x="474" y="309"/>
      <point x="375" y="309" type="curve" smooth="yes"/>
      <point x="273" y="309"/>
      <point x="186" y="229"/>
      <point x="184" y="99" type="curve"/>
      <point x="214" y="72" type="line"/>
      <point x="215" y="185"/>
      <point x="269" y="241"/>
      <point x="338" y="241" type="curve" smooth="yes"/>
      <point x="411" y="241"/>
      <point x="439" y="196"/>
      <point x="439" y="146" type="curve" smooth="yes"/>
      <point x="439" y="92"/>
      <point x="400" y="49"/>
      <point x="334" y="49" type="curve" smooth="yes"/>
      <point x="151" y="49"/>
      <point x="122" y="257"/>
      <point x="122" y="376" type="curve" smooth="yes"/>
      <point x="122" y="599"/>
      <point x="238" y="739"/>
      <point x="449" y="739" type="curve" smooth="yes"/>
      <point x="640" y="739"/>
      <point x="719" y="650"/>
      <point x="719" y="446" type="curve" smooth="yes"/>
      <point x="719" y="0" type="line"/>
      <point x="780" y="0" type="line"/>
      <point x="780" y="446" type="line" smooth="yes"/>
      <point x="780" y="698"/>
      <point x="674" y="829"/>
      <point x="453" y="829" type="curve" smooth="yes"/>
      <point x="212" y="829"/>
      <point x="63" y="637"/>
      <point x="63" y="388" type="curve" smooth="yes"/>
      <point x="63" y="241"/>
      <point x="116" y="-4"/>
    </contour>
  </outline>
</glyph>
<glyph name="halant-tamil" format="2">
  <unicode hex="0BCD"/>
  <note>
uni0BCD
</note>
  <anchor x="0" y="554" name="_top"/>
  <anchor x="0" y="697" name="top"/>
  <outline>
    <contour>
      <point x="0" y="637" type="curve" smooth="yes"/>
      <point x="34" y="637"/>
      <point x="61" y="665"/>
      <point x="61" y="697" type="curve" smooth="yes"/>
      <point x="61" y="729"/>
      <point x="34" y="757"/>
      <point x="0" y="757" type="curve" smooth="yes"/>
      <point x="-34" y="757"/>
      <point x="-61" y="729"/>
      <point x="-61" y="697" type="curve" smooth="yes"/>
      <point x="-61" y="665"/>
      <point x="-34" y="637"/>
    </contour>
  </outline>
</glyph>
<glyph name="om-tamil" format="2">
  <advance width="1012"/>
  <unicode hex="0BD0"/>
  <note>
uni0BD0
</note>
  <outline>
    <contour>
      <point x="368" y="-388" type="curve" smooth="yes"/>
      <point x="633" y="-388"/>
      <point x="648" y="-146"/>
      <point x="777" y="-146" type="curve" smooth="yes"/>
      <point x="840" y="-146" type="line"/>
      <point x="840" y="-93" type="line"/>
      <point x="777" y="-93" type="line" smooth="yes"/>
      <point x="673" y="-93"/>
      <point x="576" y="-11"/>
      <point x="576" y="90" type="curve" smooth="yes"/>
      <point x="576" y="128"/>
      <point x="590" y="168"/>
      <point x="622" y="208" type="curve"/>
      <point x="627" y="204" type="line"/>
      <point x="617" y="183"/>
      <point x="612" y="160"/>
      <point x="612" y="136" type="curve" smooth="yes"/>
      <point x="612" y="66"/>
      <point x="659" y="-5"/>
      <point x="759" y="-5" type="curve" smooth="yes"/>
      <point x="867" y="-5"/>
      <point x="954" y="79"/>
      <point x="954" y="201" type="curve" smooth="yes"/>
      <point x="954" y="423"/>
      <point x="729" y="559"/>
      <point x="480" y="559" type="curve" smooth="yes"/>
      <point x="252" y="559"/>
      <point x="59" y="436"/>
      <point x="59" y="237" type="curve" smooth="yes"/>
      <point x="59" y="89"/>
      <point x="164" y="5"/>
      <point x="278" y="5" type="curve" smooth="yes"/>
      <point x="387" y="5"/>
      <point x="459" y="69"/>
      <point x="459" y="160" type="curve" smooth="yes"/>
      <point x="459" y="252"/>
      <point x="401" y="313"/>
      <point x="307" y="313" type="curve" smooth="yes"/>
      <point x="209" y="313"/>
      <point x="127" y="239"/>
      <point x="120" y="133" type="curve"/>
      <point x="150" y="106" type="line"/>
      <point x="156" y="194"/>
      <point x="205" y="246"/>
      <point x="270" y="246" type="curve" smooth="yes"/>
      <point x="337" y="246"/>
      <point x="366" y="201"/>
      <point x="366" y="156" type="curve" smooth="yes"/>
      <point x="366" y="102"/>
      <point x="327" y="59"/>
      <point x="261" y="59" type="curve" smooth="yes"/>
      <point x="188" y="59"/>
      <point x="117" y="122"/>
      <point x="117" y="234" type="curve" smooth="yes"/>
      <point x="117" y="398"/>
      <point x="287" y="505"/>
      <point x="483" y="505" type="curve" smooth="yes"/>
      <point x="691" y="505"/>
      <point x="859" y="402"/>
      <point x="859" y="211" type="curve" smooth="yes"/>
      <point x="859" y="120"/>
      <point x="816" y="48"/>
      <point x="746" y="48" type="curve" smooth="yes"/>
      <point x="690" y="48"/>
      <point x="663" y="88"/>
      <point x="663" y="139" type="curve" smooth="yes"/>
      <point x="663" y="177"/>
      <point x="678" y="221"/>
      <point x="708" y="260" type="curve"/>
      <point x="652" y="304" type="line"/>
      <point x="566" y="244"/>
      <point x="528" y="165"/>
      <point x="528" y="90" type="curve" smooth="yes"/>
      <point x="528" y="3"/>
      <point x="579" y="-78"/>
      <point x="663" y="-115" type="curve"/>
      <point x="663" y="-120" type="line"/>
      <point x="551" y="-141"/>
      <point x="560" y="-323"/>
      <point x="334" y="-323" type="curve" smooth="yes"/>
      <point x="246" y="-323"/>
      <point x="181" y="-285"/>
      <point x="181" y="-206" type="curve" smooth="yes"/>
      <point x="181" y="-195"/>
      <point x="182" y="-183"/>
      <point x="185" y="-170" type="curve"/>
      <point x="128" y="-158" type="line"/>
      <point x="125" y="-173"/>
      <point x="124" y="-188"/>
      <point x="124" y="-202" type="curve" smooth="yes"/>
      <point x="124" y="-335"/>
      <point x="256" y="-388"/>
    </contour>
    <contour>
      <point x="241" y="-251" type="line"/>
      <point x="285" y="-251" type="line"/>
      <point x="285" y="-99" type="line"/>
      <point x="241" y="-99" type="line"/>
    </contour>
    <contour>
      <point x="260" y="-251" type="line"/>
      <point x="451" y="-251" type="line"/>
      <point x="451" y="-211" type="line"/>
      <point x="260" y="-211" type="line"/>
    </contour>
    <contour>
      <point x="336" y="-251" type="line"/>
      <point x="377" y="-251" type="line"/>
      <point x="377" y="-163" type="line" smooth="yes"/>
      <point x="377" y="-146"/>
      <point x="385" y="-136"/>
      <point x="404" y="-136" type="curve" smooth="yes"/>
      <point x="424" y="-136"/>
      <point x="431" y="-146"/>
      <point x="431" y="-163" type="curve" smooth="yes"/>
      <point x="431" y="-251" type="line"/>
      <point x="475" y="-251" type="line"/>
      <point x="475" y="-170" type="line" smooth="yes"/>
      <point x="475" y="-111"/>
      <point x="438" y="-97"/>
      <point x="404" y="-97" type="curve" smooth="yes"/>
      <point x="370" y="-97"/>
      <point x="336" y="-111"/>
      <point x="336" y="-170" type="curve" smooth="yes"/>
    </contour>
    <contour>
      <point x="353" y="-81" type="curve" smooth="yes"/>
      <point x="372" y="-81"/>
      <point x="387" y="-65"/>
      <point x="387" y="-48" type="curve" smooth="yes"/>
      <point x="387" y="-32"/>
      <point x="372" y="-16"/>
      <point x="353" y="-16" type="curve" smooth="yes"/>
      <point x="334" y="-16"/>
      <point x="319" y="-32"/>
      <point x="319" y="-48" type="curve" smooth="yes"/>
      <point x="319" y="-65"/>
      <point x="334" y="-81"/>
    </contour>
  </outline>
</glyph>
<glyph name="aulengthmark-tamil" format="2">
  <advance width="1261"/>
  <unicode hex="0BD7"/>
  <note>
uni0BD7
</note>
  <outline>
    <contour>
      <point x="278" y="-4" type="curve" smooth="yes"/>
      <point x="387" y="-4"/>
      <point x="459" y="60"/>
      <point x="459" y="150" type="curve" smooth="yes"/>
      <point x="459" y="242"/>
      <point x="401" y="304"/>
      <point x="307" y="304" type="curve" smooth="yes"/>
      <point x="209" y="304"/>
      <point x="127" y="229"/>
      <point x="120" y="124" type="curve"/>
      <point x="150" y="97" type="line"/>
      <point x="156" y="185"/>
      <point x="205" y="236"/>
      <point x="270" y="236" type="curve" smooth="yes"/>
      <point x="337" y="236"/>
      <point x="366" y="191"/>
      <point x="366" y="146" type="curve" smooth="yes"/>
      <point x="366" y="92"/>
      <point x="327" y="49"/>
      <point x="261" y="49" type="curve" smooth="yes"/>
      <point x="187" y="49"/>
      <point x="117" y="115"/>
      <point x="117" y="249" type="curve" smooth="yes"/>
      <point x="117" y="415"/>
      <point x="236" y="505"/>
      <point x="384" y="505" type="curve" smooth="yes"/>
      <point x="550" y="505"/>
      <point x="649" y="420"/>
      <point x="649" y="269" type="curve"/>
      <point x="705" y="273" type="line"/>
      <point x="700" y="455"/>
      <point x="578" y="559"/>
      <point x="383" y="559" type="curve" smooth="yes"/>
      <point x="206" y="559"/>
      <point x="59" y="454"/>
      <point x="59" y="250" type="curve" smooth="yes"/>
      <point x="59" y="83"/>
      <point x="162" y="-4"/>
    </contour>
    <contour>
      <point x="649" y="0" type="line"/>
      <point x="744" y="0" type="line"/>
      <point x="744" y="500" type="line"/>
      <point x="972" y="500" type="line"/>
      <point x="972" y="0" type="line"/>
      <point x="1066" y="0" type="line"/>
      <point x="1066" y="500" type="line"/>
      <point x="1242" y="500" type="line"/>
      <point x="1242" y="554" type="line"/>
      <point x="654" y="554" type="line"/>
      <point x="654" y="387" type="line"/>
      <point x="649" y="382" type="line"/>
    </contour>
  </outline>
</glyph>
<glyph name="zero-tamil" format="2">
  <advance width="620"/>
  <unicode hex="0BE6"/>
  <note>
uni0BE6
</note>
  <outline>
    <contour>
      <point x="316" y="-5" type="curve" smooth="yes"/>
      <point x="459" y="-5"/>
      <point x="562" y="107"/>
      <point x="562" y="277" type="curve" smooth="yes"/>
      <point x="562" y="442"/>
      <point x="459" y="559"/>
      <point x="316" y="559" type="curve" smooth="yes"/>
      <point x="153" y="559"/>
      <point x="59" y="439"/>
      <point x="59" y="277" type="curve" smooth="yes"/>
      <point x="59" y="115"/>
      <point x="153" y="-5"/>
    </contour>
    <contour>
      <point x="297" y="56" type="curve" smooth="yes"/>
      <point x="179" y="56"/>
      <point x="120" y="155"/>
      <point x="120" y="277" type="curve" smooth="yes"/>
      <point x="120" y="394"/>
      <point x="179" y="498"/>
      <point x="297" y="498" type="curve" smooth="yes"/>
      <point x="408" y="498"/>
      <point x="466" y="414"/>
      <point x="466" y="277" type="curve" smooth="yes"/>
      <point x="466" y="135"/>
      <point x="408" y="56"/>
    </contour>
  </outline>
</glyph>
<glyph name="one-tamil" format="2">
  <advance width="858"/>
  <unicode hex="0BE7"/>
  <note>
uni0BE7
</note>
  <outline>
    <contour>
      <point x="278" y="-5" type="curve" smooth="yes"/>
      <point x="427" y="-5"/>
      <point x="514" y="80"/>
      <point x="514" y="200" type="curve" smooth="yes"/>
      <point x="514" y="263" type="line"/>
      <point x="560" y="263" type="line" smooth="yes"/>
      <point x="643" y="263"/>
      <point x="700" y="229"/>
      <point x="700" y="154" type="curve" smooth="yes"/>
      <point x="700" y="93"/>
      <point x="656" y="51"/>
      <point x="594" y="51" type="curve" smooth="yes"/>
      <point x="542" y="51"/>
      <point x="497" y="74"/>
      <point x="460" y="111" type="curve"/>
      <point x="429" y="72" type="line"/>
      <point x="481" y="21"/>
      <point x="535" y="-5"/>
      <point x="609" y="-5" type="curve" smooth="yes"/>
      <point x="713" y="-5"/>
      <point x="795" y="54"/>
      <point x="795" y="151" type="curve" smooth="yes"/>
      <point x="795" y="259"/>
      <point x="704" y="317"/>
      <point x="559" y="317" type="curve" smooth="yes"/>
      <point x="514" y="317" type="line"/>
      <point x="514" y="500" type="line"/>
      <point x="689" y="500" type="line"/>
      <point x="689" y="554" type="line"/>
      <point x="195" y="554" type="line"/>
      <point x="195" y="286" type="line"/>
      <point x="256" y="286" type="line"/>
      <point x="256" y="500" type="line"/>
      <point x="419" y="500" type="line"/>
      <point x="419" y="317" type="line"/>
      <point x="246" y="317" type="line" smooth="yes"/>
      <point x="137" y="317"/>
      <point x="63" y="261"/>
      <point x="63" y="161" type="curve" smooth="yes"/>
      <point x="63" y="61"/>
      <point x="158" y="-5"/>
    </contour>
    <contour>
      <point x="270" y="49" type="curve" smooth="yes"/>
      <point x="188" y="49"/>
      <point x="125" y="86"/>
      <point x="125" y="160" type="curve" smooth="yes"/>
      <point x="125" y="224"/>
      <point x="173" y="263"/>
      <point x="249" y="263" type="curve" smooth="yes"/>
      <point x="419" y="263" type="line"/>
      <point x="419" y="189" type="line" smooth="yes"/>
      <point x="419" y="92"/>
      <point x="351" y="49"/>
    </contour>
  </outline>
</glyph>
<glyph name="two-tamil" format="2">
  <advance width="942"/>
  <unicode hex="0BE8"/>
  <note>
uni0BE8
</note>
  <outline>
    <contour>
      <point x="154" y="0" type="curve" smooth="yes"/>
      <point x="925" y="0" type="line"/>
      <point x="925" y="54" type="line"/>
      <point x="146" y="54" type="line" smooth="yes"/>
      <point x="125" y="54"/>
      <point x="107" y="69"/>
      <point x="107" y="94" type="curve" smooth="yes"/>
      <point x="107" y="120"/>
      <point x="125" y="135"/>
      <point x="146" y="135" type="curve" smooth="yes"/>
      <point x="396" y="135" type="line" smooth="yes"/>
      <point x="538" y="135"/>
      <point x="656" y="212"/>
      <point x="656" y="336" type="curve" smooth="yes"/>
      <point x="656" y="483"/>
      <point x="518" y="559"/>
      <point x="374" y="559" type="curve" smooth="yes"/>
      <point x="230" y="559"/>
      <point x="116" y="490"/>
      <point x="116" y="347" type="curve" smooth="yes"/>
      <point x="116" y="208"/>
      <point x="243" y="149"/>
      <point x="381" y="149" type="curve"/>
      <point x="381" y="188" type="line"/>
      <point x="250" y="188"/>
      <point x="175" y="247"/>
      <point x="175" y="347" type="curve" smooth="yes"/>
      <point x="175" y="450"/>
      <point x="254" y="505"/>
      <point x="368" y="505" type="curve" smooth="yes"/>
      <point x="474" y="505"/>
      <point x="561" y="450"/>
      <point x="561" y="347" type="curve" smooth="yes"/>
      <point x="561" y="255"/>
      <point x="495" y="188"/>
      <point x="382" y="188" type="curve" smooth="yes"/>
      <point x="154" y="188" type="line" smooth="yes"/>
      <point x="90" y="188"/>
      <point x="49" y="154"/>
      <point x="49" y="94" type="curve" smooth="yes"/>
      <point x="49" y="35"/>
      <point x="90" y="0"/>
    </contour>
  </outline>
</glyph>
<glyph name="three-tamil" format="2">
  <advance width="903"/>
  <unicode hex="0BE9"/>
  <note>
uni0BE9
</note>
  <outline>
    <contour>
      <point x="98" y="0" type="line"/>
      <point x="159" y="0" type="line"/>
      <point x="159" y="500" type="line"/>
      <point x="336" y="500" type="line"/>
      <point x="336" y="196" type="line"/>
      <point x="431" y="196" type="line"/>
      <point x="431" y="223" type="line" smooth="yes"/>
      <point x="431" y="277"/>
      <point x="464" y="316"/>
      <point x="516" y="316" type="curve" smooth="yes"/>
      <point x="571" y="316"/>
      <point x="610" y="273"/>
      <point x="610" y="210" type="curve" smooth="yes"/>
      <point x="610" y="86"/>
      <point x="500" y="54"/>
      <point x="440" y="54" type="curve" smooth="yes"/>
      <point x="336" y="54" type="line"/>
      <point x="336" y="0" type="line"/>
      <point x="884" y="0" type="line"/>
      <point x="884" y="54" type="line"/>
      <point x="560" y="54" type="line"/>
      <point x="636" y="70"/>
      <point x="703" y="138"/>
      <point x="703" y="226" type="curve" smooth="yes"/>
      <point x="703" y="315"/>
      <point x="635" y="379"/>
      <point x="548" y="379" type="curve" smooth="yes"/>
      <point x="480" y="379"/>
      <point x="441" y="338"/>
      <point x="431" y="311" type="curve"/>
      <point x="431" y="500" type="line"/>
      <point x="606" y="500" type="line"/>
      <point x="606" y="554" type="line"/>
      <point x="98" y="554" type="line"/>
    </contour>
  </outline>
</glyph>
<glyph name="four-tamil" format="2">
  <advance width="897"/>
  <unicode hex="0BEA"/>
  <note>
uni0BEA
</note>
  <outline>
    <contour>
      <point x="278" y="-4" type="curve" smooth="yes"/>
      <point x="427" y="-4"/>
      <point x="514" y="80"/>
      <point x="514" y="200" type="curve" smooth="yes"/>
      <point x="514" y="263" type="line"/>
      <point x="848" y="263" type="line"/>
      <point x="848" y="554" type="line"/>
      <point x="787" y="554" type="line"/>
      <point x="787" y="317" type="line"/>
      <point x="514" y="317" type="line"/>
      <point x="514" y="500" type="line"/>
      <point x="689" y="500" type="line"/>
      <point x="689" y="554" type="line"/>
      <point x="195" y="554" type="line"/>
      <point x="195" y="286" type="line"/>
      <point x="256" y="286" type="line"/>
      <point x="256" y="500" type="line"/>
      <point x="419" y="500" type="line"/>
      <point x="419" y="317" type="line"/>
      <point x="251" y="317" type="line" smooth="yes"/>
      <point x="136" y="317"/>
      <point x="63" y="256"/>
      <point x="63" y="162" type="curve" smooth="yes"/>
      <point x="63" y="59"/>
      <point x="159" y="-4"/>
    </contour>
    <contour>
      <point x="270" y="49" type="curve" smooth="yes"/>
      <point x="189" y="49"/>
      <point x="125" y="84"/>
      <point x="125" y="160" type="curve" smooth="yes"/>
      <point x="125" y="223"/>
      <point x="173" y="263"/>
      <point x="259" y="263" type="curve" smooth="yes"/>
      <point x="419" y="263" type="line"/>
      <point x="419" y="189" type="line" smooth="yes"/>
      <point x="419" y="90"/>
      <point x="351" y="49"/>
    </contour>
  </outline>
</glyph>
<glyph name="six-tamil" format="2">
  <advance width="1104"/>
  <unicode hex="0BEC"/>
  <note>
uni0BEC
</note>
  <outline>
    <contour>
      <point x="278" y="-4" type="curve" smooth="yes"/>
      <point x="427" y="-4"/>
      <point x="514" y="80"/>
      <point x="514" y="200" type="curve" smooth="yes"/>
      <point x="514" y="263" type="line"/>
      <point x="597" y="263" type="line" smooth="yes"/>
      <point x="628" y="263"/>
      <point x="646" y="246"/>
      <point x="646" y="214" type="curve" smooth="yes"/>
      <point x="646" y="0" type="line"/>
      <point x="738" y="0" type="line"/>
      <point x="738" y="214" type="line" smooth="yes"/>
      <point x="738" y="246"/>
      <point x="755" y="263"/>
      <point x="787" y="263" type="curve" smooth="yes"/>
      <point x="1056" y="263" type="line"/>
      <point x="1056" y="317" type="line"/>
      <point x="777" y="317" type="line" smooth="yes"/>
      <point x="731" y="317"/>
      <point x="699" y="295"/>
      <point x="692" y="256" type="curve"/>
      <point x="685" y="295"/>
      <point x="653" y="317"/>
      <point x="606" y="317" type="curve" smooth="yes"/>
      <point x="514" y="317" type="line"/>
      <point x="514" y="500" type="line"/>
      <point x="689" y="500" type="line"/>
      <point x="689" y="554" type="line"/>
      <point x="195" y="554" type="line"/>
      <point x="195" y="286" type="line"/>
      <point x="256" y="286" type="line"/>
      <point x="256" y="500" type="line"/>
      <point x="419" y="500" type="line"/>
      <point x="419" y="317" type="line"/>
      <point x="251" y="317" type="line" smooth="yes"/>
      <point x="136" y="317"/>
      <point x="63" y="256"/>
      <point x="63" y="162" type="curve" smooth="yes"/>
      <point x="63" y="59"/>
      <point x="159" y="-4"/>
    </contour>
    <contour>
      <point x="270" y="49" type="curve" smooth="yes"/>
      <point x="189" y="49"/>
      <point x="125" y="84"/>
      <point x="125" y="160" type="curve" smooth="yes"/>
      <point x="125" y="223"/>
      <point x="173" y="263"/>
      <point x="259" y="263" type="curve" smooth="yes"/>
      <point x="419" y="263" type="line"/>
      <point x="419" y="189" type="line" smooth="yes"/>
      <point x="419" y="90"/>
      <point x="351" y="49"/>
    </contour>
    <contour>
      <point x="870" y="0" type="line"/>
      <point x="963" y="0" type="line"/>
      <point x="963" y="288" type="line"/>
      <point x="870" y="288" type="line"/>
    </contour>
  </outline>
</glyph>
<glyph name="eight-tamil" format="2">
  <advance width="1319"/>
  <unicode hex="0BEE"/>
  <note>
uni0BEE
</note>
  <outline>
    <contour>
      <point x="1127" y="-203" type="line"/>
      <point x="1222" y="-203" type="line"/>
      <point x="1222" y="554" type="line"/>
      <point x="1127" y="554" type="line"/>
      <point x="1127" y="171" type="line"/>
      <point x="128" y="171" type="line" smooth="yes"/>
      <point x="69" y="171"/>
      <point x="39" y="143"/>
      <point x="39" y="99" type="curve" smooth="yes"/>
      <point x="39" y="4"/>
      <point x="200" y="-122"/>
      <point x="455" y="-122" type="curve" smooth="yes"/>
      <point x="762" y="-122"/>
      <point x="966" y="17"/>
      <point x="966" y="260" type="curve" smooth="yes"/>
      <point x="966" y="438"/>
      <point x="846" y="559"/>
      <point x="666" y="559" type="curve" smooth="yes"/>
      <point x="511" y="559"/>
      <point x="389" y="469"/>
      <point x="389" y="324" type="curve" smooth="yes"/>
      <point x="389" y="256"/>
      <point x="415" y="195"/>
      <point x="470" y="138" type="curve"/>
      <point x="541" y="138" type="line"/>
      <point x="479" y="196"/>
      <point x="452" y="252"/>
      <point x="452" y="314" type="curve" smooth="yes"/>
      <point x="452" y="434"/>
      <point x="549" y="505"/>
      <point x="659" y="505" type="curve" smooth="yes"/>
      <point x="789" y="505"/>
      <point x="870" y="403"/>
      <point x="870" y="260" type="curve" smooth="yes"/>
      <point x="870" y="57"/>
      <point x="721" y="-68"/>
      <point x="455" y="-68" type="curve" smooth="yes"/>
      <point x="247" y="-68"/>
      <point x="98" y="29"/>
      <point x="98" y="91" type="curve" smooth="yes"/>
      <point x="98" y="107"/>
      <point x="105" y="117"/>
      <point x="132" y="117" type="curve" smooth="yes"/>
      <point x="1127" y="117" type="line"/>
    </contour>
  </outline>
</glyph>
<glyph name="onethousand-tamil" format="2">
  <advance width="1155"/>
  <unicode hex="0BF2"/>
  <note>
uni0BF2
</note>
  <outline>
    <contour>
      <point x="258" y="-4" type="curve" smooth="yes"/>
      <point x="408" y="-4"/>
      <point x="494" y="80"/>
      <point x="494" y="200" type="curve" smooth="yes"/>
      <point x="494" y="500" type="line"/>
      <point x="670" y="500" type="line"/>
      <point x="670" y="554" type="line"/>
      <point x="175" y="554" type="line"/>
      <point x="175" y="286" type="line"/>
      <point x="236" y="286" type="line"/>
      <point x="236" y="500" type="line"/>
      <point x="399" y="500" type="line"/>
      <point x="399" y="189" type="line" smooth="yes"/>
      <point x="399" y="90"/>
      <point x="331" y="49"/>
      <point x="250" y="49" type="curve" smooth="yes"/>
      <point x="170" y="49"/>
      <point x="105" y="84"/>
      <point x="105" y="160" type="curve" smooth="yes"/>
      <point x="105" y="223"/>
      <point x="154" y="263"/>
      <point x="239" y="263" type="curve" smooth="yes"/>
      <point x="1025" y="263" type="line"/>
      <point x="1025" y="317" type="line"/>
      <point x="231" y="317" type="line" smooth="yes"/>
      <point x="117" y="317"/>
      <point x="44" y="256"/>
      <point x="44" y="162" type="curve" smooth="yes"/>
      <point x="44" y="59"/>
      <point x="139" y="-4"/>
    </contour>
    <contour>
      <point x="500" y="-285" type="curve"/>
      <point x="500" y="-218"/>
      <point x="520" y="-179"/>
      <point x="613" y="-179" type="curve" smooth="yes"/>
      <point x="824" y="-179" type="line" smooth="yes"/>
      <point x="997" y="-179"/>
      <point x="1111" y="-133"/>
      <point x="1111" y="18" type="curve" smooth="yes"/>
      <point x="1111" y="127"/>
      <point x="1026" y="188"/>
      <point x="896" y="188" type="curve" smooth="yes"/>
      <point x="708" y="188" type="line" smooth="yes"/>
      <point x="618" y="188"/>
      <point x="560" y="148"/>
      <point x="560" y="69" type="curve" smooth="yes"/>
      <point x="560" y="-4"/>
      <point x="629" y="-56"/>
      <point x="716" y="-56" type="curve" smooth="yes"/>
      <point x="831" y="-56"/>
      <point x="893" y="19"/>
      <point x="893" y="109" type="curve" smooth="yes"/>
      <point x="893" y="291" type="line"/>
      <point x="803" y="291" type="line"/>
      <point x="803" y="99" type="line" smooth="yes"/>
      <point x="803" y="29"/>
      <point x="764" y="-2"/>
      <point x="708" y="-2" type="curve" smooth="yes"/>
      <point x="660" y="-2"/>
      <point x="621" y="21"/>
      <point x="621" y="67" type="curve" smooth="yes"/>
      <point x="621" y="115"/>
      <point x="655" y="134"/>
      <point x="715" y="134" type="curve" smooth="yes"/>
      <point x="896" y="134" type="line" smooth="yes"/>
      <point x="980" y="134"/>
      <point x="1023" y="89"/>
      <point x="1023" y="18" type="curve" smooth="yes"/>
      <point x="1023" y="-89"/>
      <point x="942" y="-125"/>
      <point x="796" y="-125" type="curve" smooth="yes"/>
      <point x="579" y="-125" type="line" smooth="yes"/>
      <point x="491" y="-125"/>
      <point x="411" y="-143"/>
      <point x="411" y="-215" type="curve" smooth="yes"/>
      <point x="411" y="-264"/>
      <point x="441" y="-285"/>
    </contour>
  </outline>
</glyph>
<glyph name="month-tamil" format="2">
  <advance width="1152"/>
  <unicode hex="0BF4"/>
  <note>
uni0BF4
</note>
  <anchor x="461" y="0" name="bottom"/>
  <anchor x="791" y="554" name="imatra"/>
  <anchor x="462" y="0" name="nukta"/>
  <anchor x="498" y="554" name="top"/>
  <anchor x="479" y="554" name="vedic"/>
  <outline>
    <contour>
      <point x="759" y="468" type="curve"/>
      <point x="780" y="493" type="line"/>
      <point x="731" y="539"/>
      <point x="701" y="576"/>
      <point x="701" y="647" type="curve" smooth="yes"/>
      <point x="701" y="735"/>
      <point x="772" y="786"/>
      <point x="855" y="786" type="curve" smooth="yes"/>
      <point x="915" y="786"/>
      <point x="959" y="748"/>
      <point x="959" y="686" type="curve" smooth="yes"/>
      <point x="959" y="645"/>
      <point x="935" y="620"/>
      <point x="896" y="620" type="curve" smooth="yes"/>
      <point x="847" y="620"/>
      <point x="820" y="667"/>
      <point x="820" y="730" type="curve" smooth="yes"/>
      <point x="820" y="828"/>
      <point x="884" y="887"/>
      <point x="973" y="887" type="curve" smooth="yes"/>
      <point x="1049" y="887"/>
      <point x="1111" y="846"/>
      <point x="1111" y="766" type="curve" smooth="yes"/>
      <point x="1111" y="571" type="line"/>
      <point x="1199" y="571" type="line"/>
      <point x="1199" y="791" type="line" smooth="yes"/>
      <point x="1199" y="850"/>
      <point x="1220" y="900"/>
      <point x="1285" y="892" type="curve"/>
      <point x="1289" y="936" type="line"/>
      <point x="1207" y="940"/>
      <point x="1168" y="898"/>
      <point x="1157" y="835" type="curve"/>
      <point x="1152" y="835" type="line"/>
      <point x="1127" y="899"/>
      <point x="1054" y="936"/>
      <point x="976" y="936" type="curve" smooth="yes"/>
      <point x="852" y="936"/>
      <point x="771" y="849"/>
      <point x="771" y="727" type="curve" smooth="yes"/>
      <point x="771" y="636"/>
      <point x="828" y="566"/>
      <point x="913" y="566" type="curve" smooth="yes"/>
      <point x="984" y="566"/>
      <point x="1042" y="610"/>
      <point x="1042" y="682" type="curve" smooth="yes"/>
      <point x="1042" y="784"/>
      <point x="964" y="837"/>
      <point x="846" y="837" type="curve" smooth="yes"/>
      <point x="735" y="837"/>
      <point x="652" y="754"/>
      <point x="652" y="659" type="curve" smooth="yes"/>
      <point x="652" y="584"/>
      <point x="678" y="534"/>
    </contour>
    <component base="ma-tamil"/>
  </outline>
</glyph>
<glyph name="debit-tamil" format="2">
  <advance width="1176"/>
  <unicode hex="0BF6"/>
  <note>
uni0BF6
</note>
  <outline>
    <contour>
      <point x="388" y="-348" type="curve" smooth="yes"/>
      <point x="642" y="-348"/>
      <point x="801" y="-210"/>
      <point x="801" y="14" type="curve" smooth="yes"/>
      <point x="801" y="554" type="line"/>
      <point x="706" y="554" type="line"/>
      <point x="706" y="15" type="line" smooth="yes"/>
      <point x="706" y="-170"/>
      <point x="600" y="-294"/>
      <point x="387" y="-294" type="curve" smooth="yes"/>
      <point x="231" y="-294"/>
      <point x="98" y="-227"/>
      <point x="98" y="-145" type="curve" smooth="yes"/>
      <point x="98" y="-129"/>
      <point x="105" y="-119"/>
      <point x="132" y="-119" type="curve" smooth="yes"/>
      <point x="1079" y="-119" type="line"/>
      <point x="1079" y="554" type="line"/>
      <point x="984" y="554" type="line"/>
      <point x="984" y="-65" type="line"/>
      <point x="128" y="-65" type="line" smooth="yes"/>
      <point x="69" y="-65"/>
      <point x="39" y="-93"/>
      <point x="39" y="-137" type="curve" smooth="yes"/>
      <point x="39" y="-254"/>
      <point x="196" y="-348"/>
    </contour>
    <contour>
      <point x="98" y="15" type="line"/>
      <point x="752" y="15" type="line"/>
      <point x="752" y="68" type="line"/>
      <point x="192" y="68" type="line"/>
      <point x="192" y="554" type="line"/>
      <point x="98" y="554" type="line"/>
    </contour>
  </outline>
</glyph>
<glyph name="asabove-tamil" format="2">
  <advance width="1947"/>
  <unicode hex="0BF8"/>
  <note>
uni0BF8
</note>
  <outline>
    <contour>
      <point x="747" y="-6" type="curve" smooth="yes"/>
      <point x="859" y="-6"/>
      <point x="951" y="96"/>
      <point x="951" y="239" type="curve" smooth="yes"/>
      <point x="951" y="476"/>
      <point x="756" y="658"/>
      <point x="495" y="658" type="curve" smooth="yes"/>
      <point x="244" y="658"/>
      <point x="59" y="495"/>
      <point x="59" y="250" type="curve" smooth="yes"/>
      <point x="59" y="83"/>
      <point x="162" y="-4"/>
      <point x="278" y="-4" type="curve" smooth="yes"/>
      <point x="387" y="-4"/>
      <point x="454" y="60"/>
      <point x="454" y="150" type="curve" smooth="yes"/>
      <point x="454" y="242"/>
      <point x="401" y="304"/>
      <point x="307" y="304" type="curve" smooth="yes"/>
      <point x="209" y="304"/>
      <point x="127" y="229"/>
      <point x="120" y="124" type="curve"/>
      <point x="150" y="97" type="line"/>
      <point x="156" y="185"/>
      <point x="205" y="236"/>
      <point x="270" y="236" type="curve" smooth="yes"/>
      <point x="337" y="236"/>
      <point x="366" y="191"/>
      <point x="366" y="146" type="curve" smooth="yes"/>
      <point x="366" y="92"/>
      <point x="327" y="49"/>
      <point x="261" y="49" type="curve" smooth="yes"/>
      <point x="187" y="49"/>
      <point x="117" y="115"/>
      <point x="117" y="249" type="curve" smooth="yes"/>
      <point x="117" y="465"/>
      <point x="275" y="604"/>
      <point x="500" y="604" type="curve" smooth="yes"/>
      <point x="757" y="604"/>
      <point x="855" y="448"/>
      <point x="855" y="241" type="curve" smooth="yes"/>
      <point x="855" y="140"/>
      <point x="814" y="58"/>
      <point x="725" y="58" type="curve" smooth="yes"/>
      <point x="647" y="58"/>
      <point x="602" y="117"/>
      <point x="602" y="206" type="curve" smooth="yes"/>
      <point x="602" y="360"/>
      <point x="709" y="505"/>
      <point x="904" y="505" type="curve" smooth="yes"/>
      <point x="1078" y="505"/>
      <point x="1170" y="398"/>
      <point x="1170" y="268" type="curve" smooth="yes"/>
      <point x="1170" y="194"/>
      <point x="1136" y="114"/>
      <point x="1060" y="51" type="curve"/>
      <point x="1082" y="0" type="line"/>
      <point x="1928" y="0" type="line"/>
      <point x="1928" y="63" type="line"/>
      <point x="1133" y="63" type="line"/>
      <point x="1134" y="40" type="line"/>
      <point x="1225" y="102"/>
      <point x="1266" y="184"/>
      <point x="1266" y="265" type="curve" smooth="yes"/>
      <point x="1266" y="420"/>
      <point x="1132" y="559"/>
      <point x="911" y="559" type="curve" smooth="yes"/>
      <point x="676" y="559"/>
      <point x="543" y="394"/>
      <point x="543" y="211" type="curve" smooth="yes"/>
      <point x="543" y="83"/>
      <point x="624" y="-6"/>
    </contour>
    <contour>
      <point x="1676" y="-296" type="line"/>
      <point x="1771" y="-296" type="line"/>
      <point x="1771" y="392" type="line" smooth="yes"/>
      <point x="1771" y="505"/>
      <point x="1699" y="554"/>
      <point x="1590" y="554" type="curve" smooth="yes"/>
      <point x="1471" y="554"/>
      <point x="1383" y="457"/>
      <point x="1383" y="298" type="curve" smooth="yes"/>
      <point x="1383" y="151"/>
      <point x="1469" y="13"/>
      <point x="1645" y="13" type="curve"/>
      <point x="1645" y="54" type="line"/>
      <point x="1517" y="54"/>
      <point x="1441" y="165"/>
      <point x="1441" y="292" type="curve" smooth="yes"/>
      <point x="1441" y="413"/>
      <point x="1501" y="495"/>
      <point x="1584" y="495" type="curve" smooth="yes"/>
      <point x="1646" y="495"/>
      <point x="1676" y="463"/>
      <point x="1676" y="402" type="curve" smooth="yes"/>
    </contour>
  </outline>
</glyph>
<glyph name="rupee-tamil" format="2">
  <advance width="1056"/>
  <unicode hex="0BF9"/>
  <note>
uni0BF9
</note>
  <outline>
    <contour>
      <point x="548" y="-296" type="curve" smooth="yes"/>
      <point x="845" y="-296"/>
      <point x="998" y="-109"/>
      <point x="998" y="112" type="curve" smooth="yes"/>
      <point x="998" y="245"/>
      <point x="933" y="345"/>
      <point x="812" y="345" type="curve" smooth="yes"/>
      <point x="728" y="345"/>
      <point x="668" y="281"/>
      <point x="668" y="185" type="curve" smooth="yes"/>
      <point x="668" y="138" type="line"/>
      <point x="695" y="138" type="line"/>
      <point x="695" y="183" type="line" smooth="yes"/>
      <point x="695" y="236"/>
      <point x="726" y="286"/>
      <point x="786" y="286" type="curve" smooth="yes"/>
      <point x="872" y="286"/>
      <point x="902" y="202"/>
      <point x="902" y="102" type="curve" smooth="yes"/>
      <point x="902" y="-92"/>
      <point x="797" y="-243"/>
      <point x="548" y="-243" type="curve" smooth="yes"/>
      <point x="269" y="-243"/>
      <point x="125" y="-5"/>
      <point x="125" y="295" type="curve" smooth="yes"/>
      <point x="125" y="604"/>
      <point x="272" y="798"/>
      <point x="413" y="798" type="curve" smooth="yes"/>
      <point x="497" y="798"/>
      <point x="522" y="746"/>
      <point x="522" y="714" type="curve" smooth="yes"/>
      <point x="522" y="676"/>
      <point x="501" y="659"/>
      <point x="472" y="659" type="curve" smooth="yes"/>
      <point x="436" y="659"/>
      <point x="420" y="692"/>
      <point x="420" y="728" type="curve" smooth="yes"/>
      <point x="420" y="810"/>
      <point x="476" y="850"/>
      <point x="552" y="850" type="curve" smooth="yes"/>
      <point x="644" y="850"/>
      <point x="691" y="799"/>
      <point x="691" y="742" type="curve" smooth="yes"/>
      <point x="691" y="710"/>
      <point x="675" y="677"/>
      <point x="640" y="651" type="curve"/>
      <point x="655" y="610" type="line"/>
      <point x="871" y="610" type="line"/>
      <point x="871" y="664" type="line"/>
      <point x="686" y="664" type="line"/>
      <point x="691" y="633" type="line"/>
      <point x="735" y="658"/>
      <point x="774" y="694"/>
      <point x="774" y="745" type="curve" smooth="yes"/>
      <point x="774" y="833"/>
      <point x="697" y="904"/>
      <point x="582" y="904" type="curve" smooth="yes"/>
      <point x="459" y="904"/>
      <point x="361" y="836"/>
      <point x="361" y="733" type="curve" smooth="yes"/>
      <point x="361" y="657"/>
      <point x="405" y="605"/>
      <point x="482" y="605" type="curve" smooth="yes"/>
      <point x="553" y="605"/>
      <point x="605" y="646"/>
      <point x="605" y="714" type="curve" smooth="yes"/>
      <point x="605" y="802"/>
      <point x="527" y="852"/>
      <point x="428" y="852" type="curve" smooth="yes"/>
      <point x="224" y="852"/>
      <point x="63" y="628"/>
      <point x="63" y="295" type="curve" smooth="yes"/>
      <point x="63" y="-31"/>
      <point x="233" y="-296"/>
    </contour>
    <contour>
      <point x="349" y="0" type="line"/>
      <point x="410" y="0" type="line"/>
      <point x="410" y="500" type="line"/>
      <point x="601" y="500" type="line"/>
      <point x="601" y="0" type="line"/>
      <point x="695" y="0" type="line"/>
      <point x="695" y="500" type="line"/>
      <point x="871" y="500" type="line"/>
      <point x="871" y="554" type="line"/>
      <point x="349" y="554" type="line"/>
    </contour>
  </outline>
</glyph>
<glyph name="doubleSvarita-vedic" format="2">
  <unicode hex="1CDA"/>
  <note>
uni1CDA
</note>
  <anchor x="0" y="554" name="_vedic"/>
  <outline>
    <contour>
      <point x="-82" y="912" type="line"/>
      <point x="-27" y="912" type="line"/>
      <point x="-27" y="1107" type="line"/>
      <point x="-82" y="1107" type="line"/>
    </contour>
    <contour>
      <point x="27" y="912" type="line"/>
      <point x="82" y="912" type="line"/>
      <point x="82" y="1107" type="line"/>
      <point x="27" y="1107" type="line"/>
    </contour>
  </outline>
</glyph>
<glyph name="quoteleft" format="2">
  <advance width="250"/>
  <unicode hex="2018"/>
  <outline>
    <contour>
      <point x="133" y="432" type="curve" smooth="yes"/>
      <point x="170" y="432"/>
      <point x="198" y="453"/>
      <point x="198" y="491" type="curve" smooth="yes"/>
      <point x="198" y="552"/>
      <point x="125" y="543"/>
      <point x="125" y="583" type="curve"/>
      <point x="125" y="622"/>
      <point x="155" y="652"/>
      <point x="220" y="673" type="curve"/>
      <point x="220" y="715" type="line"/>
      <point x="101" y="680"/>
      <point x="56" y="604"/>
      <point x="56" y="519" type="curve" smooth="yes"/>
      <point x="56" y="463"/>
      <point x="92" y="432"/>
    </contour>
  </outline>
</glyph>
<glyph name="quoteright" format="2">
  <advance width="250"/>
  <unicode hex="2019"/>
  <outline>
    <contour>
      <point x="30" y="431" type="line"/>
      <point x="149" y="466"/>
      <point x="194" y="542"/>
      <point x="194" y="627" type="curve" smooth="yes"/>
      <point x="194" y="683"/>
      <point x="158" y="714"/>
      <point x="117" y="714" type="curve" smooth="yes"/>
      <point x="80" y="714"/>
      <point x="52" y="693"/>
      <point x="52" y="655" type="curve" smooth="yes"/>
      <point x="52" y="594"/>
      <point x="125" y="603"/>
      <point x="125" y="563" type="curve"/>
      <point x="125" y="524"/>
      <point x="95" y="494"/>
      <point x="30" y="473" type="curve"/>
    </contour>
  </outline>
</glyph>
<glyph name="quotedblleft" format="2">
  <advance width="450"/>
  <unicode hex="201C"/>
  <outline>
    <contour>
      <point x="333" y="432" type="curve" smooth="yes"/>
      <point x="370" y="432"/>
      <point x="398" y="453"/>
      <point x="398" y="491" type="curve" smooth="yes"/>
      <point x="398" y="552"/>
      <point x="325" y="543"/>
      <point x="325" y="583" type="curve"/>
      <point x="325" y="622"/>
      <point x="355" y="652"/>
      <point x="420" y="673" type="curve"/>
      <point x="420" y="715" type="line"/>
      <point x="301" y="680"/>
      <point x="256" y="604"/>
      <point x="256" y="519" type="curve" smooth="yes"/>
      <point x="256" y="463"/>
      <point x="292" y="432"/>
    </contour>
    <contour>
      <point x="133" y="432" type="curve" smooth="yes"/>
      <point x="170" y="432"/>
      <point x="198" y="453"/>
      <point x="198" y="491" type="curve" smooth="yes"/>
      <point x="198" y="552"/>
      <point x="125" y="543"/>
      <point x="125" y="583" type="curve"/>
      <point x="125" y="622"/>
      <point x="155" y="652"/>
      <point x="220" y="673" type="curve"/>
      <point x="220" y="715" type="line"/>
      <point x="101" y="680"/>
      <point x="56" y="604"/>
      <point x="56" y="519" type="curve" smooth="yes"/>
      <point x="56" y="463"/>
      <point x="92" y="432"/>
    </contour>
  </outline>
</glyph>
<glyph name="quotedblright" format="2">
  <advance width="450"/>
  <unicode hex="201D"/>
  <outline>
    <contour>
      <point x="230" y="431" type="line"/>
      <point x="349" y="466"/>
      <point x="394" y="542"/>
      <point x="394" y="627" type="curve" smooth="yes"/>
      <point x="394" y="683"/>
      <point x="358" y="714"/>
      <point x="317" y="714" type="curve" smooth="yes"/>
      <point x="280" y="714"/>
      <point x="252" y="693"/>
      <point x="252" y="655" type="curve" smooth="yes"/>
      <point x="252" y="594"/>
      <point x="325" y="603"/>
      <point x="325" y="563" type="curve"/>
      <point x="325" y="524"/>
      <point x="295" y="494"/>
      <point x="230" y="473" type="curve"/>
    </contour>
    <contour>
      <point x="30" y="431" type="line"/>
      <point x="149" y="466"/>
      <point x="194" y="542"/>
      <point x="194" y="627" type="curve" smooth="yes"/>
      <point x="194" y="683"/>
      <point x="158" y="714"/>
      <point x="117" y="714" type="curve" smooth="yes"/>
      <point x="80" y="714"/>
      <point x="52" y="693"/>
      <point x="52" y="655" type="curve" smooth="yes"/>
      <point x="52" y="594"/>
      <point x="125" y="603"/>
      <point x="125" y="563" type="curve"/>
      <point x="125" y="524"/>
      <point x="95" y="494"/>
      <point x="30" y="473" type="curve"/>
    </contour>
  </outline>
</glyph>
<glyph name="ellipsis" format="2">
  <advance width="858"/>
  <unicode hex="2026"/>
  <outline>
    <contour>
      <point x="715" y="-7" type="curve" smooth="yes"/>
      <point x="749" y="-7"/>
      <point x="778" y="10"/>
      <point x="778" y="61" type="curve" smooth="yes"/>
      <point x="778" y="113"/>
      <point x="749" y="129"/>
      <point x="715" y="129" type="curve" smooth="yes"/>
      <point x="680" y="129"/>
      <point x="652" y="113"/>
      <point x="652" y="61" type="curve" smooth="yes"/>
      <point x="652" y="10"/>
      <point x="680" y="-7"/>
    </contour>
    <contour>
      <point x="143" y="-7" type="curve" smooth="yes"/>
      <point x="177" y="-7"/>
      <point x="206" y="10"/>
      <point x="206" y="61" type="curve" smooth="yes"/>
      <point x="206" y="113"/>
      <point x="177" y="129"/>
      <point x="143" y="129" type="curve" smooth="yes"/>
      <point x="108" y="129"/>
      <point x="80" y="113"/>
      <point x="80" y="61" type="curve" smooth="yes"/>
      <point x="80" y="10"/>
      <point x="108" y="-7"/>
    </contour>
    <contour>
      <point x="429" y="-7" type="curve" smooth="yes"/>
      <point x="463" y="-7"/>
      <point x="492" y="10"/>
      <point x="492" y="61" type="curve" smooth="yes"/>
      <point x="492" y="113"/>
      <point x="463" y="129"/>
      <point x="429" y="129" type="curve" smooth="yes"/>
      <point x="394" y="129"/>
      <point x="366" y="113"/>
      <point x="366" y="61" type="curve" smooth="yes"/>
      <point x="366" y="10"/>
      <point x="394" y="-7"/>
    </contour>
  </outline>
</glyph>
<glyph name="rupeeIndian" format="2">
  <advance width="559"/>
  <unicode hex="20B9"/>
  <outline>
    <contour>
      <point x="393" y="0" type="curve" smooth="yes"/>
      <point x="417" y="0" type="line"/>
      <point x="417" y="42" type="line"/>
      <point x="404" y="42" type="line" smooth="yes"/>
      <point x="362" y="42"/>
      <point x="331" y="68"/>
      <point x="299" y="122" type="curve" smooth="yes"/>
      <point x="184" y="318" type="line"/>
      <point x="349" y="324"/>
      <point x="409" y="400"/>
      <point x="418" y="497" type="curve"/>
      <point x="530" y="497" type="line"/>
      <point x="530" y="544" type="line"/>
      <point x="419" y="544" type="line"/>
      <point x="415" y="597"/>
      <point x="395" y="638"/>
      <point x="358" y="667" type="curve"/>
      <point x="530" y="667" type="line"/>
      <point x="530" y="714" type="line"/>
      <point x="59" y="714" type="line"/>
      <point x="59" y="667" type="line"/>
      <point x="157" y="667" type="line" smooth="yes"/>
      <point x="261" y="667"/>
      <point x="305" y="632"/>
      <point x="311" y="544" type="curve"/>
      <point x="59" y="544" type="line"/>
      <point x="59" y="497" type="line"/>
      <point x="311" y="497" type="line"/>
      <point x="304" y="397"/>
      <point x="254" y="365"/>
      <point x="142" y="365" type="curve" smooth="yes"/>
      <point x="59" y="365" type="line"/>
      <point x="59" y="337" type="line"/>
      <point x="197" y="90" type="line" smooth="yes"/>
      <point x="240" y="13"/>
      <point x="268" y="0"/>
    </contour>
  </outline>
</glyph>
<glyph name="minus" format="2">
  <advance width="559"/>
  <unicode hex="2212"/>
  <outline>
    <contour>
      <point x="65" y="328" type="line"/>
      <point x="494" y="328" type="line"/>
      <point x="494" y="387" type="line"/>
      <point x="65" y="387" type="line"/>
    </contour>
  </outline>
</glyph>
<glyph name="candrabinduhalant-deva" format="2">
  <advance width="484"/>
  <unicode hex="A8F3"/>
  <note>
uniA8F3
</note>
  <outline>
    <contour>
      <point x="247" y="362" type="curve" smooth="yes"/>
      <point x="338" y="362"/>
      <point x="414" y="418"/>
      <point x="436" y="539" type="curve"/>
      <point x="370" y="557" type="line"/>
      <point x="353" y="461"/>
      <point x="307" y="423"/>
      <point x="240" y="423" type="curve" smooth="yes"/>
      <point x="161" y="423"/>
      <point x="115" y="472"/>
      <point x="89" y="546" type="curve"/>
      <point x="54" y="534" type="line"/>
      <point x="80" y="423"/>
      <point x="168" y="362"/>
    </contour>
    <contour>
      <point x="236" y="478" type="curve" smooth="yes"/>
      <point x="259" y="478"/>
      <point x="279" y="489"/>
      <point x="279" y="524" type="curve" smooth="yes"/>
      <point x="279" y="560"/>
      <point x="259" y="570"/>
      <point x="236" y="570" type="curve" smooth="yes"/>
      <point x="212" y="570"/>
      <point x="193" y="560"/>
      <point x="193" y="524" type="curve" smooth="yes"/>
      <point x="193" y="489"/>
      <point x="212" y="478"/>
    </contour>
    <contour>
      <point x="401" y="67" type="curve"/>
      <point x="432" y="83" type="line"/>
      <point x="305" y="246"/>
      <point x="269" y="277"/>
      <point x="187" y="277" type="curve" smooth="yes"/>
      <point x="164" y="277"/>
      <point x="139" y="273"/>
      <point x="127" y="270" type="curve"/>
      <point x="150" y="200" type="line"/>
      <point x="167" y="205"/>
      <point x="189" y="208"/>
      <point x="211" y="208" type="curve" smooth="yes"/>
      <point x="257" y="208"/>
      <point x="294" y="192"/>
    </contour>
  </outline>
</glyph>
<glyph name="u11301" format="2">
  <unicode hex="11301"/>
  <anchor x="0" y="554" name="_vedic"/>
  <outline>
    <contour>
      <point x="11" y="901" type="curve" smooth="yes"/>
      <point x="120" y="901"/>
      <point x="180" y="956"/>
      <point x="180" y="1029" type="curve" smooth="yes"/>
      <point x="180" y="1062"/>
      <point x="164" y="1095"/>
      <point x="129" y="1095" type="curve" smooth="yes"/>
      <point x="123" y="1095"/>
      <point x="116" y="1094"/>
      <point x="110" y="1092" type="curve"/>
      <point x="117" y="1078"/>
      <point x="120" y="1063"/>
      <point x="120" y="1047" type="curve" smooth="yes"/>
      <point x="120" y="987"/>
      <point x="78" y="959"/>
      <point x="10" y="959" type="curve" smooth="yes"/>
      <point x="-66" y="959"/>
      <point x="-102" y="992"/>
      <point x="-102" y="1051" type="curve" smooth="yes"/>
      <point x="-102" y="1064"/>
      <point x="-100" y="1078"/>
      <point x="-95" y="1092" type="curve"/>
      <point x="-103" y="1095"/>
      <point x="-110" y="1096"/>
      <point x="-116" y="1096" type="curve" smooth="yes"/>
      <point x="-148" y="1096"/>
      <point x="-179" y="1069"/>
      <point x="-179" y="1023" type="curve" smooth="yes"/>
      <point x="-179" y="965"/>
      <point x="-140" y="901"/>
    </contour>
    <contour>
      <point x="5" y="1006" type="curve" smooth="yes"/>
      <point x="34" y="1006"/>
      <point x="56" y="1026"/>
      <point x="56" y="1057" type="curve" smooth="yes"/>
      <point x="56" y="1085"/>
      <point x="34" y="1107"/>
      <point x="5" y="1107" type="curve" smooth="yes"/>
      <point x="-24" y="1107"/>
      <point x="-45" y="1085"/>
      <point x="-45" y="1057" type="curve" smooth="yes"/>
      <point x="-45" y="1026"/>
      <point x="-24" y="1006"/>
    </contour>
  </outline>
</glyph>
<glyph name="visarga-grantha" format="2">
  <advance width="262"/>
  <unicode hex="11303"/>
  <outline>
    <contour>
      <point x="136" y="-4" type="curve" smooth="yes"/>
      <point x="206" y="-4"/>
      <point x="257" y="43"/>
      <point x="257" y="114" type="curve" smooth="yes"/>
      <point x="257" y="185"/>
      <point x="206" y="232"/>
      <point x="136" y="232" type="curve" smooth="yes"/>
      <point x="65" y="232"/>
      <point x="15" y="185"/>
      <point x="15" y="114" type="curve" smooth="yes"/>
      <point x="15" y="43"/>
      <point x="65" y="-4"/>
    </contour>
    <contour>
      <point x="136" y="49" type="curve" smooth="yes"/>
      <point x="99" y="49"/>
      <point x="73" y="76"/>
      <point x="73" y="114" type="curve" smooth="yes"/>
      <point x="73" y="152"/>
      <point x="99" y="178"/>
      <point x="136" y="178" type="curve" smooth="yes"/>
      <point x="172" y="178"/>
      <point x="198" y="152"/>
      <point x="198" y="114" type="curve" smooth="yes"/>
      <point x="198" y="76"/>
      <point x="172" y="49"/>
    </contour>
    <contour>
      <point x="136" y="322" type="curve" smooth="yes"/>
      <point x="206" y="322"/>
      <point x="257" y="369"/>
      <point x="257" y="440" type="curve" smooth="yes"/>
      <point x="257" y="511"/>
      <point x="206" y="558"/>
      <point x="136" y="558" type="curve" smooth="yes"/>
      <point x="65" y="558"/>
      <point x="15" y="511"/>
      <point x="15" y="440" type="curve" smooth="yes"/>
      <point x="15" y="369"/>
      <point x="65" y="322"/>
    </contour>
    <contour>
      <point x="136" y="375" type="curve" smooth="yes"/>
      <point x="99" y="375"/>
      <point x="73" y="402"/>
      <point x="73" y="440" type="curve" smooth="yes"/>
      <point x="73" y="478"/>
      <point x="99" y="504"/>
      <point x="136" y="504" type="curve" smooth="yes"/>
      <point x="172" y="504"/>
      <point x="198" y="478"/>
      <point x="198" y="440" type="curve" smooth="yes"/>
      <point x="198" y="402"/>
      <point x="172" y="375"/>
    </contour>
  </outline>
</glyph>
<glyph name="u1133B" format="2">
  <unicode hex="1133B"/>
  <anchor x="0" y="0" name="_nukta"/>
  <outline>
    <contour>
      <point x="0" y="-182" type="curve" smooth="yes"/>
      <point x="34" y="-182"/>
      <point x="61" y="-154"/>
      <point x="61" y="-122" type="curve" smooth="yes"/>
      <point x="61" y="-90"/>
      <point x="34" y="-62"/>
      <point x="0" y="-62" type="curve" smooth="yes"/>
      <point x="-34" y="-62"/>
      <point x="-61" y="-90"/>
      <point x="-61" y="-122" type="curve" smooth="yes"/>
      <point x="-61" y="-154"/>
      <point x="-34" y="-182"/>
    </contour>
  </outline>
</glyph>
<glyph name="nukta-grantha" format="2">
  <unicode hex="1133C"/>
  <anchor x="0" y="0" name="_nukta"/>
  <outline>
    <contour>
      <point x="-112" y="-182" type="curve" smooth="yes"/>
      <point x="-78" y="-182"/>
      <point x="-51" y="-154"/>
      <point x="-51" y="-122" type="curve" smooth="yes"/>
      <point x="-51" y="-90"/>
      <point x="-78" y="-62"/>
      <point x="-112" y="-62" type="curve" smooth="yes"/>
      <point x="-146" y="-62"/>
      <point x="-173" y="-90"/>
      <point x="-173" y="-122" type="curve" smooth="yes"/>
      <point x="-173" y="-154"/>
      <point x="-146" y="-182"/>
    </contour>
    <contour>
      <point x="112" y="-182" type="curve" smooth="yes"/>
      <point x="146" y="-182"/>
      <point x="173" y="-154"/>
      <point x="173" y="-122" type="curve" smooth="yes"/>
      <point x="173" y="-90"/>
      <point x="146" y="-62"/>
      <point x="112" y="-62" type="curve" smooth="yes"/>
      <point x="78" y="-62"/>
      <point x="51" y="-90"/>
      <point x="51" y="-122" type="curve" smooth="yes"/>
      <point x="51" y="-154"/>
      <point x="78" y="-182"/>
    </contour>
  </outline>
</glyph>
<glyph name=".notdef" format="2">
  <advance width="600"/>
  <outline>
    <contour>
      <point x="94" y="5" type="line"/>
      <point x="505" y="5" type="line"/>
      <point x="505" y="719" type="line"/>
      <point x="94" y="719" type="line"/>
    </contour>
    <contour>
      <point x="145" y="56" type="line"/>
      <point x="145" y="668" type="line"/>
      <point x="454" y="668" type="line"/>
      <point x="454" y="56" type="line"/>
    </contour>
  </outline>
</glyph>
<glyph name="anusvara-tamil.alt" format="2">
  <note>
uni0B82
</note>
  <anchor x="0" y="424" name="_top"/>
  <outline>
    <contour>
      <point x="0" y="633" type="curve" smooth="yes"/>
      <point x="70" y="633"/>
      <point x="121" y="681"/>
      <point x="121" y="751" type="curve" smooth="yes"/>
      <point x="121" y="822"/>
      <point x="70" y="870"/>
      <point x="0" y="870" type="curve" smooth="yes"/>
      <point x="-70" y="870"/>
      <point x="-121" y="822"/>
      <point x="-121" y="751" type="curve" smooth="yes"/>
      <point x="-121" y="681"/>
      <point x="-70" y="633"/>
    </contour>
    <contour>
      <point x="0" y="687" type="curve" smooth="yes"/>
      <point x="-37" y="687"/>
      <point x="-63" y="713"/>
      <point x="-63" y="751" type="curve" smooth="yes"/>
      <point x="-63" y="790"/>
      <point x="-37" y="816"/>
      <point x="0" y="816" type="curve" smooth="yes"/>
      <point x="37" y="816"/>
      <point x="63" y="790"/>
      <point x="63" y="751" type="curve" smooth="yes"/>
      <point x="63" y="713"/>
      <point x="37" y="687"/>
    </contour>
  </outline>
</glyph>
<glyph name="cii-tamil" format="2">
  <advance width="733"/>
  <note>
uni0B9A
</note>
  <anchor x="384" y="0" name="bottom"/>
  <anchor x="378" y="0" name="nukta"/>
  <anchor x="625" y="882" name="top"/>
  <anchor x="376" y="554" name="vedic"/>
  <outline>
    <contour>
      <point x="278" y="-4" type="curve" smooth="yes"/>
      <point x="427" y="-4"/>
      <point x="514" y="80"/>
      <point x="514" y="200" type="curve" smooth="yes"/>
      <point x="514" y="263" type="line"/>
      <point x="689" y="263" type="line"/>
      <point x="689" y="317" type="line"/>
      <point x="514" y="317" type="line"/>
      <point x="514" y="500" type="line"/>
      <point x="689" y="500" type="line"/>
      <point x="689" y="554" type="line"/>
      <point x="195" y="554" type="line"/>
      <point x="195" y="286" type="line"/>
      <point x="256" y="286" type="line"/>
      <point x="256" y="500" type="line"/>
      <point x="419" y="500" type="line"/>
      <point x="419" y="317" type="line"/>
      <point x="251" y="317" type="line" smooth="yes"/>
      <point x="136" y="317"/>
      <point x="63" y="256"/>
      <point x="63" y="162" type="curve" smooth="yes"/>
      <point x="63" y="59"/>
      <point x="159" y="-4"/>
    </contour>
    <contour>
      <point x="270" y="49" type="curve" smooth="yes"/>
      <point x="189" y="49"/>
      <point x="125" y="84"/>
      <point x="125" y="160" type="curve" smooth="yes"/>
      <point x="125" y="223"/>
      <point x="173" y="263"/>
      <point x="259" y="263" type="curve" smooth="yes"/>
      <point x="419" y="263" type="line"/>
      <point x="419" y="189" type="line" smooth="yes"/>
      <point x="419" y="90"/>
      <point x="351" y="49"/>
    </contour>
    <component base="iiMatra-tamil" xOffset="613"/>
  </outline>
</glyph>
<glyph name="cuu-tamil" format="2">
  <advance width="1188"/>
  <note>
g107
</note>
  <anchor x="627" y="0" name="bottom"/>
  <anchor x="627" y="-296" name="nukta"/>
  <anchor x="645" y="554" name="top"/>
  <anchor x="597" y="554" name="vedic"/>
  <outline>
    <contour>
      <point x="627" y="-296" type="curve" smooth="yes"/>
      <point x="928" y="-296"/>
      <point x="1130" y="-171"/>
      <point x="1130" y="31" type="curve" smooth="yes"/>
      <point x="1130" y="133"/>
      <point x="1067" y="181"/>
      <point x="1003" y="181" type="curve" smooth="yes"/>
      <point x="931" y="181"/>
      <point x="889" y="138"/>
      <point x="889" y="64" type="curve" smooth="yes"/>
      <point x="889" y="46" type="line"/>
      <point x="917" y="46" type="line"/>
      <point x="917" y="62" type="line" smooth="yes"/>
      <point x="917" y="95"/>
      <point x="939" y="121"/>
      <point x="976" y="121" type="curve" smooth="yes"/>
      <point x="1013" y="121"/>
      <point x="1037" y="99"/>
      <point x="1037" y="32" type="curve" smooth="yes"/>
      <point x="1037" y="-147"/>
      <point x="883" y="-235"/>
      <point x="618" y="-235" type="curve" smooth="yes"/>
      <point x="314" y="-235"/>
      <point x="125" y="-81"/>
      <point x="125" y="170" type="curve" smooth="yes"/>
      <point x="125" y="270"/>
      <point x="167" y="370"/>
      <point x="252" y="446" type="curve"/>
      <point x="213" y="487" type="line"/>
      <point x="111" y="394"/>
      <point x="63" y="280"/>
      <point x="63" y="168" type="curve" smooth="yes"/>
      <point x="63" y="-111"/>
      <point x="286" y="-296"/>
    </contour>
    <contour>
      <point x="456" y="-4" type="curve" smooth="yes"/>
      <point x="605" y="-4"/>
      <point x="692" y="80"/>
      <point x="692" y="200" type="curve" smooth="yes"/>
      <point x="692" y="263" type="line"/>
      <point x="824" y="263" type="line"/>
      <point x="824" y="0" type="line"/>
      <point x="917" y="0" type="line"/>
      <point x="917" y="263" type="line"/>
      <point x="1039" y="263" type="line"/>
      <point x="1039" y="317" type="line"/>
      <point x="692" y="317" type="line"/>
      <point x="692" y="500" type="line"/>
      <point x="868" y="500" type="line"/>
      <point x="868" y="554" type="line"/>
      <point x="373" y="554" type="line"/>
      <point x="373" y="286" type="line"/>
      <point x="434" y="286" type="line"/>
      <point x="434" y="500" type="line"/>
      <point x="597" y="500" type="line"/>
      <point x="597" y="317" type="line"/>
      <point x="429" y="317" type="line" smooth="yes"/>
      <point x="314" y="317"/>
      <point x="242" y="256"/>
      <point x="242" y="162" type="curve" smooth="yes"/>
      <point x="242" y="59"/>
      <point x="337" y="-4"/>
    </contour>
    <contour>
      <point x="448" y="49" type="curve" smooth="yes"/>
      <point x="368" y="49"/>
      <point x="303" y="84"/>
      <point x="303" y="160" type="curve" smooth="yes"/>
      <point x="303" y="223"/>
      <point x="352" y="263"/>
      <point x="437" y="263" type="curve" smooth="yes"/>
      <point x="597" y="263" type="line"/>
      <point x="597" y="189" type="line" smooth="yes"/>
      <point x="597" y="90"/>
      <point x="529" y="49"/>
    </contour>
  </outline>
</glyph>
<glyph name="iMatra-tamil.alt01" format="2">
  <advance width="232"/>
  <note>
uni0BBF
</note>
  <outline>
    <contour>
      <point x="73" y="0" type="line"/>
      <point x="134" y="0" type="line"/>
      <point x="134" y="570" type="line" smooth="yes"/>
      <point x="134" y="772"/>
      <point x="-5" y="834"/>
      <point x="-115" y="834" type="curve" smooth="yes"/>
      <point x="-232" y="834"/>
      <point x="-326" y="758"/>
      <point x="-326" y="647" type="curve" smooth="yes"/>
      <point x="-326" y="581"/>
      <point x="-287" y="539"/>
      <point x="-224" y="504" type="curve"/>
      <point x="-199" y="536" type="line"/>
      <point x="-245" y="558"/>
      <point x="-262" y="592"/>
      <point x="-262" y="630" type="curve" smooth="yes"/>
      <point x="-262" y="707"/>
      <point x="-194" y="746"/>
      <point x="-112" y="746" type="curve" smooth="yes"/>
      <point x="-32" y="746"/>
      <point x="73" y="711"/>
      <point x="73" y="540" type="curve" smooth="yes"/>
    </contour>
  </outline>
</glyph>
<glyph name="iMatra-tamil.alt02" format="2">
  <advance width="232"/>
  <note>
uni0BBF
</note>
  <outline>
    <contour>
      <point x="73" y="0" type="line"/>
      <point x="134" y="0" type="line"/>
      <point x="134" y="521" type="line" smooth="yes"/>
      <point x="134" y="712"/>
      <point x="12" y="834"/>
      <point x="-192" y="834" type="curve" smooth="yes"/>
      <point x="-359" y="834"/>
      <point x="-472" y="752"/>
      <point x="-472" y="636" type="curve" smooth="yes"/>
      <point x="-472" y="568"/>
      <point x="-433" y="525"/>
      <point x="-374" y="490" type="curve"/>
      <point x="-349" y="529" type="line"/>
      <point x="-389" y="558"/>
      <point x="-408" y="577"/>
      <point x="-408" y="624" type="curve" smooth="yes"/>
      <point x="-408" y="695"/>
      <point x="-320" y="746"/>
      <point x="-192" y="746" type="curve" smooth="yes"/>
      <point x="-16" y="746"/>
      <point x="73" y="652"/>
      <point x="73" y="491" type="curve" smooth="yes"/>
    </contour>
  </outline>
</glyph>
<glyph name="iiMatra-tamil.alt01" format="2">
  <note>
uni0BC0
</note>
  <anchor x="-162" y="882" name="top"/>
  <outline>
    <contour>
      <point x="-222" y="502" type="curve"/>
      <point x="-222" y="546" type="line"/>
      <point x="-293" y="570"/>
      <point x="-332" y="609"/>
      <point x="-332" y="684" type="curve" smooth="yes"/>
      <point x="-332" y="770"/>
      <point x="-276" y="828"/>
      <point x="-166" y="828" type="curve" smooth="yes"/>
      <point x="-91" y="828"/>
      <point x="-40" y="792"/>
      <point x="-40" y="730" type="curve" smooth="yes"/>
      <point x="-40" y="687"/>
      <point x="-73" y="656"/>
      <point x="-118" y="656" type="curve" smooth="yes"/>
      <point x="-213" y="656"/>
      <point x="-234" y="756"/>
      <point x="-184" y="851" type="curve"/>
      <point x="-227" y="855" type="line"/>
      <point x="-301" y="729"/>
      <point x="-249" y="602"/>
      <point x="-104" y="602" type="curve" smooth="yes"/>
      <point x="-18" y="602"/>
      <point x="43" y="656"/>
      <point x="43" y="725" type="curve" smooth="yes"/>
      <point x="43" y="818"/>
      <point x="-36" y="882"/>
      <point x="-162" y="882" type="curve" smooth="yes"/>
      <point x="-297" y="882"/>
      <point x="-390" y="800"/>
      <point x="-390" y="685" type="curve" smooth="yes"/>
      <point x="-390" y="585"/>
      <point x="-315" y="526"/>
    </contour>
  </outline>
</glyph>
<glyph name="iiMatra-tamil.alt02" format="2">
  <note>
uni0BC0
</note>
  <outline>
    <contour>
      <point x="-417" y="510" type="curve"/>
      <point x="-408" y="556" type="line"/>
      <point x="-468" y="570"/>
      <point x="-517" y="614"/>
      <point x="-517" y="684" type="curve" smooth="yes"/>
      <point x="-517" y="770"/>
      <point x="-461" y="828"/>
      <point x="-351" y="828" type="curve" smooth="yes"/>
      <point x="-276" y="828"/>
      <point x="-225" y="792"/>
      <point x="-225" y="730" type="curve" smooth="yes"/>
      <point x="-225" y="687"/>
      <point x="-258" y="656"/>
      <point x="-303" y="656" type="curve" smooth="yes"/>
      <point x="-365" y="656"/>
      <point x="-395" y="698"/>
      <point x="-395" y="754" type="curve" smooth="yes"/>
      <point x="-395" y="784"/>
      <point x="-386" y="818"/>
      <point x="-369" y="851" type="curve"/>
      <point x="-412" y="855" type="line"/>
      <point x="-435" y="816"/>
      <point x="-445" y="778"/>
      <point x="-445" y="743" type="curve" smooth="yes"/>
      <point x="-445" y="663"/>
      <point x="-390" y="602"/>
      <point x="-289" y="602" type="curve" smooth="yes"/>
      <point x="-203" y="602"/>
      <point x="-142" y="656"/>
      <point x="-142" y="725" type="curve" smooth="yes"/>
      <point x="-142" y="818"/>
      <point x="-221" y="882"/>
      <point x="-347" y="882" type="curve" smooth="yes"/>
      <point x="-482" y="882"/>
      <point x="-575" y="800"/>
      <point x="-575" y="685" type="curve" smooth="yes"/>
      <point x="-575" y="591"/>
      <point x="-513" y="534"/>
    </contour>
  </outline>
</glyph>
<glyph name="jii-tamil" format="2">
  <advance width="986"/>
  <note>
uni0B9C
</note>
  <anchor x="502" y="0" name="bottom"/>
  <anchor x="493" y="-296" name="nukta"/>
  <anchor x="856" y="882" name="top"/>
  <anchor x="502" y="554" name="vedic"/>
  <outline>
    <contour>
      <point x="280" y="-296" type="curve" smooth="yes"/>
      <point x="524" y="-296"/>
      <point x="536" y="-17"/>
      <point x="717" y="-17" type="curve" smooth="yes"/>
      <point x="794" y="-17"/>
      <point x="832" y="-65"/>
      <point x="832" y="-133" type="curve" smooth="yes"/>
      <point x="832" y="-193"/>
      <point x="791" y="-247"/>
      <point x="717" y="-247" type="curve" smooth="yes"/>
      <point x="687" y="-247"/>
      <point x="656" y="-239"/>
      <point x="618" y="-219" type="curve"/>
      <point x="599" y="-258" type="line"/>
      <point x="644" y="-284"/>
      <point x="692" y="-296"/>
      <point x="737" y="-296" type="curve" smooth="yes"/>
      <point x="839" y="-296"/>
      <point x="927" y="-235"/>
      <point x="927" y="-138" type="curve" smooth="yes"/>
      <point x="927" y="-15"/>
      <point x="832" y="37"/>
      <point x="727" y="37" type="curve" smooth="yes"/>
      <point x="495" y="37"/>
      <point x="482" y="-243"/>
      <point x="284" y="-243" type="curve" smooth="yes"/>
      <point x="199" y="-243"/>
      <point x="153" y="-190"/>
      <point x="153" y="-104" type="curve" smooth="yes"/>
      <point x="153" y="54"/>
      <point x="346" y="61"/>
      <point x="534" y="79" type="curve" smooth="yes"/>
      <point x="737" y="98"/>
      <point x="927" y="135"/>
      <point x="927" y="340" type="curve" smooth="yes"/>
      <point x="927" y="505"/>
      <point x="819" y="559"/>
      <point x="713" y="559" type="curve" smooth="yes"/>
      <point x="628" y="559"/>
      <point x="551" y="517"/>
      <point x="520" y="439" type="curve"/>
      <point x="485" y="518"/>
      <point x="401" y="559"/>
      <point x="314" y="559" type="curve" smooth="yes"/>
      <point x="173" y="559"/>
      <point x="63" y="476"/>
      <point x="63" y="349" type="curve" smooth="yes"/>
      <point x="63" y="238"/>
      <point x="132" y="156"/>
      <point x="233" y="156" type="curve" smooth="yes"/>
      <point x="316" y="156"/>
      <point x="384" y="201"/>
      <point x="384" y="276" type="curve" smooth="yes"/>
      <point x="384" y="363"/>
      <point x="325" y="412"/>
      <point x="252" y="412" type="curve" smooth="yes"/>
      <point x="195" y="412"/>
      <point x="116" y="378"/>
      <point x="105" y="262" type="curve"/>
      <point x="132" y="224" type="line"/>
      <point x="141" y="322"/>
      <point x="183" y="352"/>
      <point x="227" y="352" type="curve" smooth="yes"/>
      <point x="266" y="352"/>
      <point x="292" y="323"/>
      <point x="292" y="279" type="curve" smooth="yes"/>
      <point x="292" y="241"/>
      <point x="270" y="210"/>
      <point x="225" y="210" type="curve" smooth="yes"/>
      <point x="174" y="210"/>
      <point x="122" y="243"/>
      <point x="122" y="344" type="curve" smooth="yes"/>
      <point x="122" y="449"/>
      <point x="206" y="505"/>
      <point x="295" y="505" type="curve" smooth="yes"/>
      <point x="399" y="505"/>
      <point x="469" y="445"/>
      <point x="469" y="330" type="curve" smooth="yes"/>
      <point x="469" y="215" type="line"/>
      <point x="564" y="215" type="line"/>
      <point x="564" y="356" type="line" smooth="yes"/>
      <point x="564" y="439"/>
      <point x="614" y="505"/>
      <point x="700" y="505" type="curve" smooth="yes"/>
      <point x="792" y="505"/>
      <point x="832" y="445"/>
      <point x="832" y="350" type="curve" smooth="yes"/>
      <point x="832" y="186"/>
      <point x="722" y="146"/>
      <point x="471" y="124" type="curve" smooth="yes"/>
      <point x="263" y="106"/>
      <point x="59" y="87"/>
      <point x="59" y="-102" type="curve" smooth="yes"/>
      <point x="59" y="-227"/>
      <point x="157" y="-296"/>
    </contour>
    <component base="iiMatra-tamil.alt01" xOffset="1018"/>
  </outline>
</glyph>
<glyph name="kii-tamil" format="2">
  <advance width="854"/>
  <note>
uni0B95
</note>
  <anchor x="427" y="0" name="bottom"/>
  <anchor x="427" y="0" name="nukta"/>
  <anchor x="579" y="881" name="top"/>
  <anchor x="462" y="554" name="vedic"/>
  <outline>
    <contour>
      <point x="278" y="-4" type="curve" smooth="yes"/>
      <point x="427" y="-4"/>
      <point x="514" y="80"/>
      <point x="514" y="200" type="curve" smooth="yes"/>
      <point x="514" y="263" type="line"/>
      <point x="560" y="263" type="line" smooth="yes"/>
      <point x="643" y="263"/>
      <point x="700" y="229"/>
      <point x="700" y="154" type="curve" smooth="yes"/>
      <point x="700" y="95"/>
      <point x="658" y="51"/>
      <point x="593" y="51" type="curve" smooth="yes"/>
      <point x="555" y="51" type="line"/>
      <point x="555" y="-2" type="line"/>
      <point x="611" y="-2" type="line" smooth="yes"/>
      <point x="714" y="-2"/>
      <point x="795" y="52"/>
      <point x="795" y="151" type="curve" smooth="yes"/>
      <point x="795" y="259"/>
      <point x="704" y="317"/>
      <point x="559" y="317" type="curve" smooth="yes"/>
      <point x="514" y="317" type="line"/>
      <point x="514" y="500" type="line"/>
      <point x="689" y="500" type="line"/>
      <point x="689" y="554" type="line"/>
      <point x="195" y="554" type="line"/>
      <point x="195" y="286" type="line"/>
      <point x="256" y="286" type="line"/>
      <point x="256" y="500" type="line"/>
      <point x="419" y="500" type="line"/>
      <point x="419" y="317" type="line"/>
      <point x="251" y="317" type="line" smooth="yes"/>
      <point x="136" y="317"/>
      <point x="63" y="256"/>
      <point x="63" y="162" type="curve" smooth="yes"/>
      <point x="63" y="59"/>
      <point x="159" y="-4"/>
    </contour>
    <contour>
      <point x="270" y="49" type="curve" smooth="yes"/>
      <point x="193" y="49"/>
      <point x="128" y="86"/>
      <point x="128" y="160" type="curve" smooth="yes"/>
      <point x="128" y="223"/>
      <point x="177" y="263"/>
      <point x="259" y="263" type="curve" smooth="yes"/>
      <point x="419" y="263" type="line"/>
      <point x="419" y="189" type="line" smooth="yes"/>
      <point x="419" y="92"/>
      <point x="351" y="49"/>
    </contour>
    <component base="iiMatra-tamil" xOffset="567"/>
  </outline>
</glyph>
<glyph name="kssa-tamil" format="2">
  <advance width="1867"/>
  <note>
g76
</note>
  <anchor x="933" y="0" name="bottom"/>
  <anchor x="885" y="0" name="nukta"/>
  <anchor x="962" y="554" name="top"/>
  <anchor x="948" y="554" name="vedic"/>
  <outline>
    <contour>
      <point x="805" y="-5" type="curve" smooth="yes"/>
      <point x="903" y="-5"/>
      <point x="974" y="59"/>
      <point x="974" y="144" type="curve" smooth="yes"/>
      <point x="974" y="263"/>
      <point x="873" y="317"/>
      <point x="733" y="317" type="curve" smooth="yes"/>
      <point x="514" y="317" type="line"/>
      <point x="514" y="500" type="line"/>
      <point x="689" y="500" type="line"/>
      <point x="689" y="554" type="line"/>
      <point x="195" y="554" type="line"/>
      <point x="195" y="286" type="line"/>
      <point x="256" y="286" type="line"/>
      <point x="256" y="500" type="line"/>
      <point x="419" y="500" type="line"/>
      <point x="419" y="317" type="line"/>
      <point x="251" y="317" type="line" smooth="yes"/>
      <point x="136" y="317"/>
      <point x="63" y="256"/>
      <point x="63" y="162" type="curve" smooth="yes"/>
      <point x="63" y="59"/>
      <point x="159" y="-4"/>
      <point x="278" y="-4" type="curve" smooth="yes"/>
      <point x="427" y="-4"/>
      <point x="514" y="80"/>
      <point x="514" y="200" type="curve" smooth="yes"/>
      <point x="514" y="263" type="line"/>
      <point x="733" y="263" type="line" smooth="yes"/>
      <point x="820" y="263"/>
      <point x="881" y="220"/>
      <point x="881" y="137" type="curve" smooth="yes"/>
      <point x="881" y="83"/>
      <point x="845" y="49"/>
      <point x="787" y="49" type="curve" smooth="yes"/>
      <point x="718" y="49"/>
      <point x="683" y="107"/>
      <point x="683" y="172" type="curve" smooth="yes"/>
      <point x="683" y="295"/>
      <point x="774" y="370"/>
      <point x="903" y="370" type="curve" smooth="yes"/>
      <point x="1032" y="370"/>
      <point x="1121" y="301"/>
      <point x="1121" y="185" type="curve" smooth="yes"/>
      <point x="1121" y="132"/>
      <point x="1102" y="82"/>
      <point x="1061" y="43" type="curve"/>
      <point x="1079" y="0" type="line"/>
      <point x="1804" y="0" type="line"/>
      <point x="1804" y="345" type="line"/>
      <point x="1708" y="294" type="line"/>
      <point x="1708" y="54" type="line"/>
      <point x="1126" y="54" type="line"/>
      <point x="1143" y="42" type="line"/>
      <point x="1194" y="84"/>
      <point x="1215" y="134"/>
      <point x="1215" y="191" type="curve" smooth="yes"/>
      <point x="1215" y="328"/>
      <point x="1073" y="423"/>
      <point x="917" y="423" type="curve" smooth="yes"/>
      <point x="758" y="423"/>
      <point x="622" y="330"/>
      <point x="622" y="179" type="curve" smooth="yes"/>
      <point x="622" y="77"/>
      <point x="682" y="-5"/>
    </contour>
    <contour>
      <point x="270" y="49" type="curve" smooth="yes"/>
      <point x="189" y="49"/>
      <point x="125" y="84"/>
      <point x="125" y="160" type="curve" smooth="yes"/>
      <point x="125" y="223"/>
      <point x="173" y="263"/>
      <point x="259" y="263" type="curve" smooth="yes"/>
      <point x="419" y="263" type="line"/>
      <point x="419" y="189" type="line" smooth="yes"/>
      <point x="419" y="90"/>
      <point x="351" y="49"/>
    </contour>
    <contour>
      <point x="1468" y="-296" type="line"/>
      <point x="1563" y="-296" type="line"/>
      <point x="1563" y="432" type="line" smooth="yes"/>
      <point x="1563" y="503"/>
      <point x="1509" y="559"/>
      <point x="1428" y="559" type="curve" smooth="yes"/>
      <point x="1330" y="559"/>
      <point x="1278" y="503"/>
      <point x="1278" y="415" type="curve" smooth="yes"/>
      <point x="1278" y="287"/>
      <point x="1376" y="218"/>
      <point x="1507" y="218" type="curve" smooth="yes"/>
      <point x="1604" y="218"/>
      <point x="1697" y="230"/>
      <point x="1804" y="340" type="curve"/>
      <point x="1804" y="351" type="line"/>
      <point x="1763" y="378" type="line"/>
      <point x="1685" y="300"/>
      <point x="1612" y="271"/>
      <point x="1505" y="271" type="curve" smooth="yes"/>
      <point x="1404" y="271"/>
      <point x="1333" y="307"/>
      <point x="1333" y="414" type="curve" smooth="yes"/>
      <point x="1333" y="467"/>
      <point x="1359" y="505"/>
      <point x="1408" y="505" type="curve" smooth="yes"/>
      <point x="1445" y="505"/>
      <point x="1468" y="484"/>
      <point x="1468" y="445" type="curve" smooth="yes"/>
    </contour>
  </outline>
</glyph>
<glyph name="ku-tamil" format="2">
  <advance width="1048"/>
  <note>
g101
</note>
  <anchor x="557" y="0" name="bottom"/>
  <anchor x="557" y="-297" name="nukta"/>
  <anchor x="646" y="554" name="top"/>
  <anchor x="647" y="554" name="vedic"/>
  <outline>
    <contour>
      <point x="557" y="-297" type="curve" smooth="yes"/>
      <point x="807" y="-297"/>
      <point x="989" y="-147"/>
      <point x="989" y="54" type="curve" smooth="yes"/>
      <point x="989" y="230"/>
      <point x="873" y="317"/>
      <point x="713" y="317" type="curve" smooth="yes"/>
      <point x="450" y="317" type="line" smooth="yes"/>
      <point x="335" y="317"/>
      <point x="263" y="256"/>
      <point x="263" y="162" type="curve" smooth="yes"/>
      <point x="263" y="59"/>
      <point x="358" y="-4"/>
      <point x="477" y="-4" type="curve" smooth="yes"/>
      <point x="626" y="-4"/>
      <point x="713" y="80"/>
      <point x="713" y="200" type="curve" smooth="yes"/>
      <point x="713" y="500" type="line"/>
      <point x="882" y="500" type="line"/>
      <point x="882" y="554" type="line"/>
      <point x="394" y="554" type="line"/>
      <point x="394" y="291" type="line"/>
      <point x="455" y="291" type="line"/>
      <point x="455" y="500" type="line"/>
      <point x="618" y="500" type="line"/>
      <point x="618" y="189" type="line" smooth="yes"/>
      <point x="618" y="92"/>
      <point x="550" y="49"/>
      <point x="469" y="49" type="curve" smooth="yes"/>
      <point x="392" y="49"/>
      <point x="327" y="86"/>
      <point x="327" y="160" type="curve" smooth="yes"/>
      <point x="327" y="223"/>
      <point x="376" y="263"/>
      <point x="458" y="263" type="curve" smooth="yes"/>
      <point x="685" y="263" type="line" smooth="yes"/>
      <point x="817" y="263"/>
      <point x="894" y="198"/>
      <point x="894" y="59" type="curve" smooth="yes"/>
      <point x="894" y="-120"/>
      <point x="767" y="-243"/>
      <point x="558" y="-243" type="curve" smooth="yes"/>
      <point x="302" y="-243"/>
      <point x="125" y="-90"/>
      <point x="125" y="163" type="curve" smooth="yes"/>
      <point x="125" y="269"/>
      <point x="165" y="372"/>
      <point x="253" y="459" type="curve"/>
      <point x="212" y="499" type="line"/>
      <point x="103" y="393"/>
      <point x="63" y="278"/>
      <point x="63" y="154" type="curve" smooth="yes"/>
      <point x="63" y="-107"/>
      <point x="264" y="-297"/>
    </contour>
  </outline>
</glyph>
<glyph name="kuu-tamil" format="2">
  <advance width="1352"/>
  <note>
g102
</note>
  <anchor x="676" y="0" name="bottom"/>
  <anchor x="676" y="0" name="nukta"/>
  <anchor x="466" y="554" name="top"/>
  <anchor x="698" y="554" name="vedic"/>
  <outline>
    <contour>
      <point x="805" y="-5" type="curve" smooth="yes"/>
      <point x="903" y="-5"/>
      <point x="974" y="59"/>
      <point x="974" y="144" type="curve" smooth="yes"/>
      <point x="974" y="263"/>
      <point x="873" y="317"/>
      <point x="733" y="317" type="curve" smooth="yes"/>
      <point x="514" y="317" type="line"/>
      <point x="514" y="500" type="line"/>
      <point x="689" y="500" type="line"/>
      <point x="689" y="554" type="line"/>
      <point x="195" y="554" type="line"/>
      <point x="195" y="286" type="line"/>
      <point x="256" y="286" type="line"/>
      <point x="256" y="500" type="line"/>
      <point x="419" y="500" type="line"/>
      <point x="419" y="317" type="line"/>
      <point x="251" y="317" type="line" smooth="yes"/>
      <point x="136" y="317"/>
      <point x="63" y="256"/>
      <point x="63" y="162" type="curve" smooth="yes"/>
      <point x="63" y="59"/>
      <point x="159" y="-4"/>
      <point x="278" y="-4" type="curve" smooth="yes"/>
      <point x="427" y="-4"/>
      <point x="514" y="80"/>
      <point x="514" y="200" type="curve" smooth="yes"/>
      <point x="514" y="263" type="line"/>
      <point x="733" y="263" type="line" smooth="yes"/>
      <point x="820" y="263"/>
      <point x="881" y="220"/>
      <point x="881" y="137" type="curve" smooth="yes"/>
      <point x="881" y="83"/>
      <point x="845" y="49"/>
      <point x="787" y="49" type="curve" smooth="yes"/>
      <point x="718" y="49"/>
      <point x="683" y="107"/>
      <point x="683" y="172" type="curve" smooth="yes"/>
      <point x="683" y="295"/>
      <point x="774" y="370"/>
      <point x="903" y="370" type="curve" smooth="yes"/>
      <point x="1032" y="370"/>
      <point x="1121" y="301"/>
      <point x="1121" y="185" type="curve" smooth="yes"/>
      <point x="1121" y="132"/>
      <point x="1102" y="82"/>
      <point x="1061" y="43" type="curve"/>
      <point x="1079" y="0" type="line"/>
      <point x="1333" y="0" type="line"/>
      <point x="1333" y="54" type="line"/>
      <point x="1131" y="54" type="line"/>
      <point x="1143" y="44" type="line"/>
      <point x="1184" y="79"/>
      <point x="1215" y="129"/>
      <point x="1215" y="191" type="curve" smooth="yes"/>
      <point x="1215" y="328"/>
      <point x="1073" y="423"/>
      <point x="917" y="423" type="curve" smooth="yes"/>
      <point x="758" y="423"/>
      <point x="622" y="330"/>
      <point x="622" y="179" type="curve" smooth="yes"/>
      <point x="622" y="77"/>
      <point x="682" y="-5"/>
    </contour>
    <contour>
      <point x="270" y="49" type="curve" smooth="yes"/>
      <point x="189" y="49"/>
      <point x="125" y="84"/>
      <point x="125" y="160" type="curve" smooth="yes"/>
      <point x="125" y="223"/>
      <point x="173" y="263"/>
      <point x="259" y="263" type="curve" smooth="yes"/>
      <point x="419" y="263" type="line"/>
      <point x="419" y="189" type="line" smooth="yes"/>
      <point x="419" y="90"/>
      <point x="351" y="49"/>
    </contour>
  </outline>
</glyph>
<glyph name="li-tamil" format="2">
  <advance width="1300"/>
  <note>
g134
</note>
  <anchor x="625" y="0" name="bottom"/>
  <anchor x="625" y="0" name="nukta"/>
  <anchor x="990" y="833" name="top"/>
  <anchor x="630" y="554" name="vedic"/>
  <outline>
    <contour>
      <point x="279" y="-4" type="curve" smooth="yes"/>
      <point x="387" y="-4"/>
      <point x="459" y="60"/>
      <point x="459" y="150" type="curve" smooth="yes"/>
      <point x="459" y="242"/>
      <point x="401" y="304"/>
      <point x="307" y="304" type="curve" smooth="yes"/>
      <point x="210" y="304"/>
      <point x="128" y="229"/>
      <point x="121" y="124" type="curve"/>
      <point x="151" y="97" type="line"/>
      <point x="157" y="185"/>
      <point x="206" y="236"/>
      <point x="270" y="236" type="curve" smooth="yes"/>
      <point x="338" y="236"/>
      <point x="367" y="191"/>
      <point x="367" y="146" type="curve" smooth="yes"/>
      <point x="367" y="92"/>
      <point x="328" y="49"/>
      <point x="262" y="49" type="curve" smooth="yes"/>
      <point x="190" y="49"/>
      <point x="117" y="109"/>
      <point x="117" y="231" type="curve" smooth="yes"/>
      <point x="117" y="403"/>
      <point x="220" y="505"/>
      <point x="374" y="505" type="curve" smooth="yes"/>
      <point x="499" y="505"/>
      <point x="578" y="430"/>
      <point x="578" y="320" type="curve" smooth="yes"/>
      <point x="578" y="178" type="line" smooth="yes"/>
      <point x="578" y="63"/>
      <point x="661" y="0"/>
      <point x="764" y="0" type="curve" smooth="yes"/>
      <point x="912" y="0"/>
      <point x="1000" y="96"/>
      <point x="1000" y="229" type="curve" smooth="yes"/>
      <point x="1000" y="397"/>
      <point x="851" y="484"/>
      <point x="851" y="627" type="curve" smooth="yes"/>
      <point x="851" y="704"/>
      <point x="906" y="746"/>
      <point x="983" y="746" type="curve" smooth="yes"/>
      <point x="1046" y="746"/>
      <point x="1141" y="724"/>
      <point x="1141" y="540" type="curve" smooth="yes"/>
      <point x="1141" y="0" type="line"/>
      <point x="1202" y="0" type="line"/>
      <point x="1202" y="570" type="line" smooth="yes"/>
      <point x="1202" y="777"/>
      <point x="1086" y="833"/>
      <point x="990" y="833" type="curve" smooth="yes"/>
      <point x="873" y="833"/>
      <point x="790" y="758"/>
      <point x="790" y="643" type="curve" smooth="yes"/>
      <point x="790" y="464"/>
      <point x="939" y="405"/>
      <point x="939" y="237" type="curve" smooth="yes"/>
      <point x="939" y="129"/>
      <point x="871" y="59"/>
      <point x="774" y="59" type="curve" smooth="yes"/>
      <point x="721" y="59"/>
      <point x="673" y="94"/>
      <point x="673" y="177" type="curve" smooth="yes"/>
      <point x="673" y="318" type="line" smooth="yes"/>
      <point x="673" y="462"/>
      <point x="548" y="559"/>
      <point x="383" y="559" type="curve" smooth="yes"/>
      <point x="196" y="559"/>
      <point x="59" y="440"/>
      <point x="59" y="234" type="curve" smooth="yes"/>
      <point x="59" y="77"/>
      <point x="167" y="-4"/>
    </contour>
  </outline>
</glyph>
<glyph name="lii-tamil" format="2">
  <advance width="1052"/>
  <note>
g135
</note>
  <anchor x="539" y="0" name="bottom"/>
  <anchor x="538" y="0" name="nukta"/>
  <anchor x="884" y="877" name="top"/>
  <anchor x="606" y="554" name="vedic"/>
  <outline>
    <contour>
      <point x="279" y="-4" type="curve" smooth="yes"/>
      <point x="387" y="-4"/>
      <point x="459" y="60"/>
      <point x="459" y="150" type="curve" smooth="yes"/>
      <point x="459" y="242"/>
      <point x="401" y="304"/>
      <point x="307" y="304" type="curve" smooth="yes"/>
      <point x="210" y="304"/>
      <point x="128" y="229"/>
      <point x="121" y="124" type="curve"/>
      <point x="151" y="97" type="line"/>
      <point x="157" y="185"/>
      <point x="206" y="236"/>
      <point x="270" y="236" type="curve" smooth="yes"/>
      <point x="338" y="236"/>
      <point x="367" y="191"/>
      <point x="367" y="146" type="curve" smooth="yes"/>
      <point x="367" y="92"/>
      <point x="328" y="49"/>
      <point x="262" y="49" type="curve" smooth="yes"/>
      <point x="190" y="49"/>
      <point x="117" y="109"/>
      <point x="117" y="231" type="curve" smooth="yes"/>
      <point x="117" y="403"/>
      <point x="220" y="505"/>
      <point x="374" y="505" type="curve" smooth="yes"/>
      <point x="499" y="505"/>
      <point x="578" y="430"/>
      <point x="578" y="320" type="curve" smooth="yes"/>
      <point x="578" y="173" type="line" smooth="yes"/>
      <point x="578" y="58"/>
      <point x="661" y="0"/>
      <point x="759" y="0" type="curve" smooth="yes"/>
      <point x="897" y="0"/>
      <point x="994" y="106"/>
      <point x="994" y="235" type="curve" smooth="yes"/>
      <point x="994" y="479"/>
      <point x="730" y="496"/>
      <point x="730" y="678" type="curve" smooth="yes"/>
      <point x="730" y="757"/>
      <point x="794" y="828"/>
      <point x="883" y="828" type="curve" smooth="yes"/>
      <point x="952" y="828"/>
      <point x="1013" y="791"/>
      <point x="1013" y="711" type="curve" smooth="yes"/>
      <point x="1013" y="668"/>
      <point x="985" y="636"/>
      <point x="942" y="636" type="curve" smooth="yes"/>
      <point x="888" y="636"/>
      <point x="855" y="688"/>
      <point x="855" y="752" type="curve" smooth="yes"/>
      <point x="855" y="784"/>
      <point x="863" y="818"/>
      <point x="880" y="851" type="curve"/>
      <point x="842" y="855" type="line"/>
      <point x="820" y="818"/>
      <point x="810" y="778"/>
      <point x="810" y="741" type="curve" smooth="yes"/>
      <point x="810" y="658"/>
      <point x="863" y="587"/>
      <point x="957" y="587" type="curve" smooth="yes"/>
      <point x="1020" y="587"/>
      <point x="1086" y="633"/>
      <point x="1086" y="716" type="curve" smooth="yes"/>
      <point x="1086" y="830"/>
      <point x="983" y="882"/>
      <point x="884" y="882" type="curve" smooth="yes"/>
      <point x="754" y="882"/>
      <point x="669" y="792"/>
      <point x="669" y="687" type="curve" smooth="yes"/>
      <point x="669" y="459"/>
      <point x="933" y="452"/>
      <point x="933" y="244" type="curve" smooth="yes"/>
      <point x="933" y="139"/>
      <point x="853" y="59"/>
      <point x="770" y="59" type="curve" smooth="yes"/>
      <point x="703" y="59"/>
      <point x="673" y="94"/>
      <point x="673" y="172" type="curve" smooth="yes"/>
      <point x="673" y="318" type="line" smooth="yes"/>
      <point x="673" y="462"/>
      <point x="548" y="559"/>
      <point x="383" y="559" type="curve" smooth="yes"/>
      <point x="196" y="559"/>
      <point x="59" y="440"/>
      <point x="59" y="234" type="curve" smooth="yes"/>
      <point x="59" y="77"/>
      <point x="167" y="-4"/>
    </contour>
  </outline>
</glyph>
<glyph name="lllii-tamil" format="2">
  <advance width="924"/>
  <note>
uni0BB4
</note>
  <anchor x="462" y="0" name="bottom"/>
  <anchor x="462" y="-335" name="nukta"/>
  <anchor x="761" y="882" name="top"/>
  <anchor x="479" y="554" name="vedic"/>
  <anchor x="791" y="554" name="imatra"/>
  <outline>
    <contour>
      <point x="319" y="-363" type="curve" smooth="yes"/>
      <point x="538" y="-363"/>
      <point x="546" y="-171"/>
      <point x="708" y="-171" type="curve" smooth="yes"/>
      <point x="780" y="-171" type="line"/>
      <point x="780" y="-117" type="line"/>
      <point x="694" y="-117" type="line" smooth="yes"/>
      <point x="591" y="-117"/>
      <point x="545" y="-71"/>
      <point x="545" y="15" type="curve" smooth="yes"/>
      <point x="545" y="96" type="line"/>
      <point x="450" y="96" type="line"/>
      <point x="450" y="15" type="line" smooth="yes"/>
      <point x="450" y="-71"/>
      <point x="517" y="-134"/>
      <point x="594" y="-139" type="curve"/>
      <point x="594" y="-144" type="line"/>
      <point x="451" y="-155"/>
      <point x="440" y="-306"/>
      <point x="305" y="-306" type="curve" smooth="yes"/>
      <point x="233" y="-306"/>
      <point x="196" y="-261"/>
      <point x="196" y="-212" type="curve" smooth="yes"/>
      <point x="196" y="-159"/>
      <point x="233" y="-123"/>
      <point x="287" y="-123" type="curve" smooth="yes"/>
      <point x="320" y="-123"/>
      <point x="349" y="-135"/>
      <point x="374" y="-162" type="curve"/>
      <point x="408" y="-125" type="line"/>
      <point x="371" y="-84"/>
      <point x="329" y="-69"/>
      <point x="282" y="-69" type="curve" smooth="yes"/>
      <point x="201" y="-69"/>
      <point x="138" y="-128"/>
      <point x="138" y="-209" type="curve" smooth="yes"/>
      <point x="138" y="-302"/>
      <point x="214" y="-363"/>
    </contour>
    <component base="ma-tamil"/>
    <component base="iiMatra-tamil.alt01" xOffset="923"/>
  </outline>
</glyph>
<glyph name="lllu-tamil" format="2">
  <advance width="1260"/>
  <note>
g140
</note>
  <anchor x="649" y="0" name="bottom"/>
  <anchor x="671" y="-333" name="nukta"/>
  <anchor x="833" y="554" name="top"/>
  <anchor x="831" y="554" name="vedic"/>
  <outline>
    <contour>
      <point x="434" y="0" type="line"/>
      <point x="1026" y="0" type="line" smooth="yes"/>
      <point x="1158" y="0"/>
      <point x="1196" y="90"/>
      <point x="1196" y="244" type="curve" smooth="yes"/>
      <point x="1196" y="446"/>
      <point x="1094" y="559"/>
      <point x="967" y="559" type="curve" smooth="yes"/>
      <point x="864" y="559"/>
      <point x="786" y="497"/>
      <point x="786" y="381" type="curve" smooth="yes"/>
      <point x="786" y="-188" type="line"/>
      <point x="881" y="-188" type="line"/>
      <point x="881" y="382" type="line" smooth="yes"/>
      <point x="881" y="466"/>
      <point x="924" y="500"/>
      <point x="982" y="500" type="curve" smooth="yes"/>
      <point x="1051" y="500"/>
      <point x="1135" y="420"/>
      <point x="1135" y="242" type="curve" smooth="yes"/>
      <point x="1135" y="133"/>
      <point x="1126" y="54"/>
      <point x="1017" y="54" type="curve" smooth="yes"/>
      <point x="528" y="54" type="line"/>
      <point x="528" y="554" type="line"/>
      <point x="434" y="554" type="line"/>
    </contour>
    <contour>
      <point x="671" y="-333" type="curve" smooth="yes"/>
      <point x="888" y="-333"/>
      <point x="1068" y="-272"/>
      <point x="1068" y="-145" type="curve" smooth="yes"/>
      <point x="1068" y="-81"/>
      <point x="1027" y="-48"/>
      <point x="969" y="-48" type="curve" smooth="yes"/>
      <point x="896" y="-48"/>
      <point x="853" y="-105"/>
      <point x="853" y="-165" type="curve" smooth="yes"/>
      <point x="853" y="-174" type="line"/>
      <point x="881" y="-174" type="line"/>
      <point x="881" y="-167" type="line" smooth="yes"/>
      <point x="881" y="-150"/>
      <point x="895" y="-108"/>
      <point x="934" y="-108" type="curve" smooth="yes"/>
      <point x="962" y="-108"/>
      <point x="977" y="-124"/>
      <point x="977" y="-154" type="curve" smooth="yes"/>
      <point x="977" y="-239"/>
      <point x="827" y="-279"/>
      <point x="674" y="-279" type="curve" smooth="yes"/>
      <point x="326" y="-279"/>
      <point x="124" y="-74"/>
      <point x="124" y="174" type="curve" smooth="yes"/>
      <point x="124" y="316"/>
      <point x="173" y="439"/>
      <point x="256" y="536" type="curve"/>
      <point x="210" y="573" type="line"/>
      <point x="118" y="467"/>
      <point x="63" y="337"/>
      <point x="63" y="182" type="curve" smooth="yes"/>
      <point x="63" y="-106"/>
      <point x="287" y="-333"/>
    </contour>
  </outline>
</glyph>
<glyph name="llluu-tamil" format="2">
  <advance width="1349"/>
  <note>
g141
</note>
  <anchor x="687" y="0" name="bottom"/>
  <anchor x="742" y="-333" name="nukta"/>
  <anchor x="922" y="554" name="top"/>
  <anchor x="926" y="554" name="vedic"/>
  <outline>
    <contour>
      <point x="752" y="-333" type="curve" smooth="yes"/>
      <point x="968" y="-333"/>
      <point x="1157" y="-271"/>
      <point x="1157" y="-146" type="curve" smooth="yes"/>
      <point x="1157" y="-82"/>
      <point x="1116" y="-48"/>
      <point x="1058" y="-48" type="curve" smooth="yes"/>
      <point x="985" y="-48"/>
      <point x="942" y="-105"/>
      <point x="942" y="-165" type="curve" smooth="yes"/>
      <point x="942" y="-174" type="line"/>
      <point x="970" y="-174" type="line"/>
      <point x="970" y="-167" type="line" smooth="yes"/>
      <point x="970" y="-150"/>
      <point x="984" y="-108"/>
      <point x="1022" y="-108" type="curve" smooth="yes"/>
      <point x="1051" y="-108"/>
      <point x="1066" y="-125"/>
      <point x="1066" y="-155" type="curve" smooth="yes"/>
      <point x="1066" y="-241"/>
      <point x="908" y="-279"/>
      <point x="728" y="-279" type="curve" smooth="yes"/>
      <point x="425" y="-279"/>
      <point x="125" y="-77"/>
      <point x="125" y="213" type="curve" smooth="yes"/>
      <point x="125" y="331"/>
      <point x="171" y="487"/>
      <point x="279" y="487" type="curve" smooth="yes"/>
      <point x="321" y="487"/>
      <point x="347" y="462"/>
      <point x="347" y="425" type="curve" smooth="yes"/>
      <point x="347" y="351"/>
      <point x="287" y="314"/>
      <point x="213" y="314" type="curve" smooth="yes"/>
      <point x="183" y="314"/>
      <point x="151" y="320"/>
      <point x="119" y="332" type="curve"/>
      <point x="101" y="295" type="line"/>
      <point x="148" y="272"/>
      <point x="198" y="261"/>
      <point x="244" y="261" type="curve" smooth="yes"/>
      <point x="353" y="261"/>
      <point x="444" y="322"/>
      <point x="444" y="425" type="curve" smooth="yes"/>
      <point x="444" y="508"/>
      <point x="383" y="559"/>
      <point x="300" y="559" type="curve" smooth="yes"/>
      <point x="153" y="559"/>
      <point x="63" y="411"/>
      <point x="63" y="220" type="curve" smooth="yes"/>
      <point x="63" y="-111"/>
      <point x="380" y="-333"/>
    </contour>
    <contour>
      <point x="522" y="0" type="line"/>
      <point x="1115" y="0" type="line" smooth="yes"/>
      <point x="1247" y="0"/>
      <point x="1285" y="90"/>
      <point x="1285" y="244" type="curve" smooth="yes"/>
      <point x="1285" y="446"/>
      <point x="1183" y="559"/>
      <point x="1056" y="559" type="curve" smooth="yes"/>
      <point x="953" y="559"/>
      <point x="875" y="497"/>
      <point x="875" y="381" type="curve" smooth="yes"/>
      <point x="875" y="-188" type="line"/>
      <point x="970" y="-188" type="line"/>
      <point x="970" y="382" type="line" smooth="yes"/>
      <point x="970" y="466"/>
      <point x="1013" y="500"/>
      <point x="1071" y="500" type="curve" smooth="yes"/>
      <point x="1140" y="500"/>
      <point x="1224" y="420"/>
      <point x="1224" y="242" type="curve" smooth="yes"/>
      <point x="1224" y="133"/>
      <point x="1215" y="54"/>
      <point x="1106" y="54" type="curve" smooth="yes"/>
      <point x="617" y="54" type="line"/>
      <point x="617" y="554" type="line"/>
      <point x="522" y="554" type="line"/>
    </contour>
  </outline>
</glyph>
